<svg width="24" height="24" viewBox="0 0 1091 1091" fill="none" xmlns="http://www.w3.org/2000/svg">
  <path
    d="M696.718 120.171C683.243 128.127 660.819 150.651 634.168 183.318L658.681 229.658C675.934 205.046 693.436 182.821 711.087 163.877C712.48 162.385 713.126 161.689 713.126 161.689C712.48 162.385 711.734 163.181 711.087 163.877C705.369 170.142 688.017 190.428 661.863 230.603C687.072 229.36 725.755 224.189 757.328 218.819C766.776 166.164 748.13 142.099 748.13 142.099C748.13 142.099 724.462 103.813 696.718 120.171Z"
    fill="url(#paint0_linear_2_82)"
  />
  <path
    d="M614.242 509.462C611.11 510.006 607.928 510.603 604.595 511.152C604.595 511.152 604.548 511.152 604.548 511.199L609.519 510.457C611.059 510.105 612.65 509.809 614.242 509.462Z"
    fill="#BD202E"
  />
  <path
    opacity="0.35"
    d="M614.242 509.462C611.11 510.006 607.928 510.603 604.595 511.152C604.595 511.152 604.548 511.152 604.548 511.199L609.519 510.457C611.059 510.105 612.65 509.809 614.242 509.462Z"
    fill="#BD202E"
  />
  <path
    d="M622.446 468.936C622.399 468.936 622.399 468.936 622.399 468.983C622.917 468.927 623.431 468.844 623.939 468.734C626.028 468.439 628.065 468.091 630.056 467.594C627.568 468.04 625.08 468.486 622.446 468.936Z"
    fill="#BD202E"
  />
  <path
    opacity="0.35"
    d="M622.446 468.936C622.399 468.936 622.399 468.936 622.399 468.983C622.917 468.927 623.431 468.844 623.939 468.734C626.028 468.439 628.065 468.091 630.056 467.594C627.568 468.04 625.08 468.486 622.446 468.936Z"
    fill="#BD202E"
  />
  <path
    d="M586.287 349.437C593.745 335.466 601.303 321.842 608.91 308.616C616.816 294.793 624.871 281.468 632.976 268.54C633.423 267.795 633.97 266.999 634.418 266.253C642.423 253.574 650.527 241.343 658.632 229.708L634.119 183.367C632.28 185.605 630.44 187.892 628.55 190.278C621.44 199.129 614.131 208.576 606.573 218.67C598.071 230.006 589.37 242.138 580.47 254.867C572.315 266.601 563.962 278.882 555.609 291.661C548.499 302.5 541.438 313.638 534.378 325.074C534.129 325.472 533.88 325.919 533.632 326.367L565.603 389.513C572.365 375.84 579.326 362.465 586.287 349.437Z"
    fill="url(#paint1_linear_2_82)"
  />
  <path
    d="M440.702 705.046C436.476 716.631 432.2 728.515 427.973 740.597C427.924 740.746 427.874 740.945 427.774 741.094C427.178 742.785 426.531 744.525 425.984 746.215C423.101 754.37 420.614 761.729 414.896 778.385C424.294 782.661 431.852 793.998 439.011 806.826C438.266 793.55 432.796 781.07 422.305 771.424C468.695 773.513 508.671 761.778 529.356 727.868C531.195 724.835 532.886 721.703 534.427 718.272C525.03 730.205 513.345 735.227 491.418 734.034C523.737 719.565 539.897 705.692 554.266 682.721C557.647 677.252 560.979 671.335 564.36 664.722C536.118 693.709 503.451 701.963 468.994 695.698L443.138 698.532C442.293 700.72 441.547 702.858 440.702 705.046Z"
    fill="url(#paint2_linear_2_82)"
  />
  <path
    d="M452.782 647.221C458.351 632.801 464.119 618.183 469.986 603.466C475.654 589.345 481.422 575.124 487.389 560.904C493.355 546.684 499.421 532.314 505.587 517.994C511.852 503.426 518.315 488.907 524.928 474.438C531.442 460.118 538.005 445.898 544.718 431.876C547.104 426.805 549.59 421.733 552.027 416.711C556.253 408.01 560.529 399.358 564.855 390.806C565.104 390.359 565.302 389.862 565.551 389.414L533.58 326.268C533.083 327.113 532.536 328.008 531.989 328.803C524.531 340.985 517.122 353.416 509.863 366.095C502.504 378.923 495.294 392 488.234 405.275C482.317 416.463 476.5 427.7 470.782 439.136C469.638 441.423 468.544 443.76 467.401 446.047C460.439 460.417 454.175 474.189 448.457 487.565C441.993 502.63 436.325 517.049 431.402 530.723C428.12 539.723 425.187 548.374 422.452 556.727C420.215 563.838 418.126 570.997 416.038 578.108C411.265 594.814 407.138 611.521 403.757 628.128L435.877 691.523C440.103 680.186 444.479 668.651 448.954 657.016C450.296 653.685 451.49 650.403 452.782 647.221Z"
    fill="url(#paint3_linear_2_82)"
  />
  <path
    d="M403.41 630.265C399.383 650.551 396.499 670.738 395.057 690.826L394.908 692.914C384.864 676.854 358.064 661.192 358.114 661.341C377.356 689.185 391.925 716.83 394.063 743.978C383.77 746.067 369.699 743.034 353.44 737.067C370.395 752.68 383.124 756.956 388.146 758.149C372.533 759.143 356.324 769.834 339.966 782.165C363.882 772.419 383.223 768.541 397.046 771.673C375.069 833.825 353.092 902.441 331.065 975.333C337.828 973.344 341.855 968.77 344.092 962.654C348.021 949.478 374.025 862.863 414.846 749.149C416.04 745.918 417.183 742.636 418.377 739.404C418.675 738.459 419.023 737.564 419.371 736.719C423.647 724.786 428.172 712.604 432.746 700.174C433.79 697.339 434.834 694.505 435.928 691.671C435.928 691.622 435.978 691.572 435.978 691.522L403.808 628.127C403.709 628.773 403.56 629.519 403.41 630.265Z"
    fill="url(#paint4_linear_2_82)"
  />
  <path
    d="M570.524 394.684C569.579 396.573 568.684 398.463 567.739 400.352C564.955 406.07 562.17 411.887 559.286 417.854C556.204 424.318 553.121 430.881 549.989 437.643C548.397 441.024 546.806 444.455 545.215 447.936C540.442 458.327 535.619 469.067 530.697 480.155C524.68 493.729 518.465 507.9 512.25 522.617C506.333 536.639 500.217 551.108 494.151 566.124C488.334 580.344 482.467 595.062 476.5 610.177C471.18 623.652 465.81 637.574 460.44 651.844C460.191 652.49 459.943 653.236 459.694 653.883C454.324 668.053 448.904 682.622 443.485 697.538C443.385 697.886 443.236 698.185 443.137 698.582L468.992 695.748C468.495 695.649 467.948 695.599 467.451 695.5C498.328 691.671 539.448 668.55 565.949 640.06C578.181 626.933 589.269 611.42 599.511 593.272C607.119 579.797 614.328 564.781 621.19 548.224C627.156 533.755 632.874 518.043 638.394 501.088C631.283 504.817 623.179 507.602 614.229 509.491C612.638 509.839 611.047 510.137 609.406 510.436C607.765 510.734 606.124 510.983 604.434 511.181C604.434 511.181 604.483 511.181 604.483 511.132C633.322 500.044 651.47 478.664 664.647 452.46C657.089 457.631 644.758 464.393 629.991 467.625C628.002 468.073 625.963 468.421 623.875 468.769C623.378 468.819 622.831 468.918 622.333 469.018H622.433C632.477 464.841 640.88 460.117 648.189 454.598C649.78 453.405 651.321 452.212 652.713 450.919C654.951 448.98 657.039 446.941 659.128 444.853C660.42 443.461 661.663 442.068 662.906 440.626C665.79 437.196 668.475 433.516 670.961 429.539C671.707 428.295 672.503 427.102 673.199 425.809C674.193 423.97 675.088 422.13 675.983 420.39C680.011 412.335 683.242 405.076 685.778 398.761C687.071 395.579 688.165 392.695 689.159 389.91C689.557 388.817 689.905 387.772 690.253 386.728C691.297 383.695 692.093 381.01 692.739 378.624C693.734 375.044 694.33 372.209 694.629 370.171C693.634 370.917 692.54 371.712 691.248 372.458C682.546 377.679 667.63 382.353 655.597 384.59C655.448 384.64 655.249 384.64 655.05 384.69C653.807 384.888 652.664 385.087 651.421 385.237L652.017 384.938L570.822 393.838C570.822 394.037 570.673 394.385 570.524 394.684Z"
    fill="url(#paint5_linear_2_82)"
  />
  <path
    d="M661.912 230.603C654.703 241.691 646.847 254.271 638.295 268.541C637.847 269.237 637.35 270.082 636.952 270.778C629.643 283.109 621.887 296.634 613.633 311.5C606.572 324.329 599.213 338.052 591.556 352.819C584.894 365.697 578.032 379.37 570.922 393.839L652.117 384.939C675.785 374.05 686.326 364.255 696.568 349.985C699.253 346.057 702.038 341.98 704.723 337.704C713.076 324.677 721.23 310.357 728.539 296.087C735.6 282.314 741.815 268.69 746.588 256.359C749.621 248.553 752.058 241.293 753.748 234.879C755.24 229.261 756.384 223.891 757.279 218.77C725.805 224.189 687.072 229.36 661.912 230.603Z"
    fill="url(#paint6_linear_2_82)"
  />
  <path
    d="M609.421 510.354C607.778 510.655 606.135 510.904 604.445 511.106C606.135 510.951 607.825 510.655 609.421 510.354Z"
    fill="#BD202E"
  />
  <path
    opacity="0.35"
    d="M609.421 510.354C607.778 510.655 606.135 510.904 604.445 511.106C606.135 510.951 607.825 510.655 609.421 510.354Z"
    fill="#BD202E"
  />
  <path
    d="M609.407 510.337C607.766 510.635 606.125 510.884 604.435 511.083C606.125 510.934 607.816 510.635 609.407 510.337Z"
    fill="url(#paint7_linear_2_82)"
  />
  <path
    d="M622.395 468.983C622.892 468.936 623.441 468.838 623.939 468.734C623.441 468.786 622.944 468.936 622.395 468.983Z"
    fill="#BD202E"
  />
  <path
    opacity="0.35"
    d="M622.395 468.983C622.892 468.936 623.441 468.838 623.939 468.734C623.441 468.786 622.944 468.936 622.395 468.983Z"
    fill="#BD202E"
  />
  <path
    d="M622.383 468.967C622.88 468.918 623.427 468.818 623.924 468.719C623.427 468.768 622.93 468.918 622.383 468.967Z"
    fill="url(#paint8_linear_2_82)"
  />
  <path
    d="M696.718 120.171C683.243 128.127 660.819 150.651 634.168 183.318L658.681 229.658C675.934 205.046 693.436 182.821 711.087 163.877C712.48 162.385 713.126 161.689 713.126 161.689C712.48 162.385 711.734 163.181 711.087 163.877C705.369 170.142 688.017 190.428 661.863 230.603C687.072 229.36 725.755 224.189 757.328 218.819C766.776 166.164 748.13 142.099 748.13 142.099C748.13 142.099 724.462 103.813 696.718 120.171Z"
    fill="url(#paint9_linear_2_82)"
  />
  <path
    d="M614.242 509.462C611.11 510.006 607.928 510.603 604.595 511.152C604.595 511.152 604.548 511.152 604.548 511.199L609.519 510.457C611.059 510.105 612.65 509.809 614.242 509.462Z"
    fill="#BD202E"
  />
  <path
    opacity="0.35"
    d="M614.242 509.462C611.11 510.006 607.928 510.603 604.595 511.152C604.595 511.152 604.548 511.152 604.548 511.199L609.519 510.457C611.059 510.105 612.65 509.809 614.242 509.462Z"
    fill="#BD202E"
  />
  <path
    d="M622.446 468.936C622.399 468.936 622.399 468.936 622.399 468.983C622.917 468.927 623.431 468.844 623.939 468.734C626.028 468.439 628.065 468.091 630.056 467.594C627.568 468.04 625.08 468.486 622.446 468.936Z"
    fill="#BD202E"
  />
  <path
    opacity="0.35"
    d="M622.446 468.936C622.399 468.936 622.399 468.936 622.399 468.983C622.917 468.927 623.431 468.844 623.939 468.734C626.028 468.439 628.065 468.091 630.056 467.594C627.568 468.04 625.08 468.486 622.446 468.936Z"
    fill="#BD202E"
  />
  <path
    d="M586.287 349.437C593.745 335.466 601.303 321.842 608.91 308.616C616.816 294.793 624.871 281.468 632.976 268.54C633.423 267.795 633.97 266.999 634.418 266.253C642.423 253.574 650.527 241.343 658.632 229.708L634.119 183.367C632.28 185.605 630.44 187.892 628.55 190.278C621.44 199.129 614.131 208.576 606.573 218.67C598.071 230.006 589.37 242.138 580.47 254.867C572.315 266.601 563.962 278.882 555.609 291.661C548.499 302.5 541.438 313.638 534.378 325.074C534.129 325.472 533.88 325.919 533.632 326.367L565.603 389.513C572.365 375.84 579.326 362.465 586.287 349.437Z"
    fill="url(#paint10_linear_2_82)"
  />
  <path
    d="M440.702 705.046C436.476 716.631 432.2 728.515 427.973 740.597C427.924 740.746 427.874 740.945 427.774 741.094C427.178 742.785 426.531 744.525 425.984 746.215C423.101 754.37 420.614 761.729 414.896 778.385C424.294 782.661 431.852 793.998 439.011 806.826C438.266 793.55 432.796 781.07 422.305 771.424C468.695 773.513 508.671 761.778 529.356 727.868C531.195 724.835 532.886 721.703 534.427 718.272C525.03 730.205 513.345 735.227 491.418 734.034C523.737 719.565 539.897 705.692 554.266 682.721C557.647 677.252 560.979 671.335 564.36 664.722C536.118 693.709 503.451 701.963 468.994 695.698L443.138 698.532C442.293 700.72 441.547 702.858 440.702 705.046Z"
    fill="url(#paint11_linear_2_82)"
  />
  <path
    d="M452.782 647.221C458.351 632.801 464.119 618.183 469.986 603.466C475.654 589.345 481.422 575.124 487.389 560.904C493.355 546.684 499.421 532.314 505.587 517.994C511.852 503.426 518.315 488.907 524.928 474.438C531.442 460.118 538.005 445.898 544.718 431.876C547.104 426.805 549.59 421.733 552.027 416.711C556.253 408.01 560.529 399.358 564.855 390.806C565.104 390.359 565.302 389.862 565.551 389.414L533.58 326.268C533.083 327.113 532.536 328.008 531.989 328.803C524.531 340.985 517.122 353.416 509.863 366.095C502.504 378.923 495.294 392 488.234 405.275C482.317 416.463 476.5 427.7 470.782 439.136C469.638 441.423 468.544 443.76 467.401 446.047C460.439 460.417 454.175 474.189 448.457 487.565C441.993 502.63 436.325 517.049 431.402 530.723C428.12 539.723 425.187 548.374 422.452 556.727C420.215 563.838 418.126 570.997 416.038 578.108C411.265 594.814 407.138 611.521 403.757 628.128L435.877 691.523C440.103 680.186 444.479 668.651 448.954 657.016C450.296 653.685 451.49 650.403 452.782 647.221Z"
    fill="url(#paint12_linear_2_82)"
  />
  <path
    d="M403.41 630.265C399.383 650.551 396.499 670.738 395.057 690.826L394.908 692.914C384.864 676.854 358.064 661.192 358.114 661.341C377.356 689.185 391.925 716.83 394.063 743.978C383.77 746.067 369.699 743.034 353.44 737.067C370.395 752.68 383.124 756.956 388.146 758.149C372.533 759.143 356.324 769.834 339.966 782.165C363.882 772.419 383.223 768.541 397.046 771.673C375.069 833.825 353.092 902.441 331.065 975.333C337.828 973.344 341.855 968.77 344.092 962.654C348.021 949.478 374.025 862.863 414.846 749.149C416.04 745.918 417.183 742.636 418.377 739.404C418.675 738.459 419.023 737.564 419.371 736.719C423.647 724.786 428.172 712.604 432.746 700.174C433.79 697.339 434.834 694.505 435.928 691.671C435.928 691.622 435.978 691.572 435.978 691.522L403.808 628.127C403.709 628.773 403.56 629.519 403.41 630.265Z"
    fill="url(#paint13_linear_2_82)"
  />
  <path
    d="M570.524 394.684C569.579 396.573 568.684 398.463 567.739 400.352C564.955 406.07 562.17 411.887 559.286 417.854C556.204 424.318 553.121 430.881 549.989 437.643C548.397 441.024 546.806 444.455 545.215 447.936C540.442 458.327 535.619 469.067 530.697 480.155C524.68 493.729 518.465 507.9 512.25 522.617C506.333 536.639 500.217 551.108 494.151 566.124C488.334 580.344 482.467 595.062 476.5 610.177C471.18 623.652 465.81 637.574 460.44 651.844C460.191 652.49 459.943 653.236 459.694 653.883C454.324 668.053 448.904 682.622 443.485 697.538C443.385 697.886 443.236 698.185 443.137 698.582L468.992 695.748C468.495 695.649 467.948 695.599 467.451 695.5C498.328 691.671 539.448 668.55 565.949 640.06C578.181 626.933 589.269 611.42 599.511 593.272C607.119 579.797 614.328 564.781 621.19 548.224C627.156 533.755 632.874 518.043 638.394 501.088C631.283 504.817 623.179 507.602 614.229 509.491C612.638 509.839 611.047 510.137 609.406 510.436C607.765 510.734 606.124 510.983 604.434 511.181C604.434 511.181 604.483 511.181 604.483 511.132C633.322 500.044 651.47 478.664 664.647 452.46C657.089 457.631 644.758 464.393 629.991 467.625C628.002 468.073 625.963 468.421 623.875 468.769C623.378 468.819 622.831 468.918 622.333 469.018H622.433C632.477 464.841 640.88 460.117 648.189 454.598C649.78 453.405 651.321 452.212 652.713 450.919C654.951 448.98 657.039 446.941 659.128 444.853C660.42 443.461 661.663 442.068 662.906 440.626C665.79 437.196 668.475 433.516 670.961 429.539C671.707 428.295 672.503 427.102 673.199 425.809C674.193 423.97 675.088 422.13 675.983 420.39C680.011 412.335 683.242 405.076 685.778 398.761C687.071 395.579 688.165 392.695 689.159 389.91C689.557 388.817 689.905 387.772 690.253 386.728C691.297 383.695 692.093 381.01 692.739 378.624C693.734 375.044 694.33 372.209 694.629 370.171C693.634 370.917 692.54 371.712 691.248 372.458C682.546 377.679 667.63 382.353 655.597 384.59C655.448 384.64 655.249 384.64 655.05 384.69C653.807 384.888 652.664 385.087 651.421 385.237L652.017 384.938L570.822 393.838C570.822 394.037 570.673 394.385 570.524 394.684Z"
    fill="url(#paint14_linear_2_82)"
  />
  <path
    d="M661.912 230.603C654.703 241.691 646.847 254.271 638.295 268.541C637.847 269.237 637.35 270.082 636.952 270.778C629.643 283.109 621.887 296.634 613.633 311.5C606.572 324.329 599.213 338.052 591.556 352.819C584.894 365.697 578.032 379.37 570.922 393.839L652.117 384.939C675.785 374.05 686.326 364.255 696.568 349.985C699.253 346.057 702.038 341.98 704.723 337.704C713.076 324.677 721.23 310.357 728.539 296.087C735.6 282.314 741.815 268.69 746.588 256.359C749.621 248.553 752.058 241.293 753.748 234.879C755.24 229.261 756.384 223.891 757.279 218.77C725.805 224.189 687.072 229.36 661.912 230.603Z"
    fill="url(#paint15_linear_2_82)"
  />
  <path
    d="M609.421 510.354C607.778 510.655 606.135 510.904 604.445 511.106C606.135 510.951 607.825 510.655 609.421 510.354Z"
    fill="#BD202E"
  />
  <path
    opacity="0.35"
    d="M609.421 510.354C607.778 510.655 606.135 510.904 604.445 511.106C606.135 510.951 607.825 510.655 609.421 510.354Z"
    fill="#BD202E"
  />
  <path
    d="M609.407 510.337C607.766 510.635 606.125 510.884 604.435 511.083C606.125 510.934 607.816 510.635 609.407 510.337Z"
    fill="url(#paint16_linear_2_82)"
  />
  <path
    d="M622.395 468.983C622.892 468.936 623.441 468.838 623.939 468.734C623.441 468.786 622.944 468.936 622.395 468.983Z"
    fill="#BD202E"
  />
  <path
    opacity="0.35"
    d="M622.395 468.983C622.892 468.936 623.441 468.838 623.939 468.734C623.441 468.786 622.944 468.936 622.395 468.983Z"
    fill="#BD202E"
  />
  <path
    d="M622.383 468.967C622.88 468.918 623.427 468.818 623.924 468.719C623.427 468.768 622.93 468.918 622.383 468.967Z"
    fill="url(#paint17_linear_2_82)"
  />
  <defs>
    <linearGradient
      id="paint0_linear_2_82"
      x1="654.777"
      y1="189.084"
      x2="834.688"
      y2="139.066"
      gradientUnits="userSpaceOnUse"
    >
      <stop stop-color="#F59723" />
      <stop offset="0.312" stop-color="#F69822" />
      <stop offset="0.838" stop-color="#E87726" />
    </linearGradient>
    <linearGradient
      id="paint1_linear_2_82"
      x1="260.968"
      y1="996.524"
      x2="626.902"
      y2="211.776"
      gradientUnits="userSpaceOnUse"
    >
      <stop offset="0.323" stop-color="#9C2063" />
      <stop offset="0.63" stop-color="#C82037" />
      <stop offset="0.751" stop-color="#CC2135" />
      <stop offset="1" stop-color="#E87726" />
    </linearGradient>
    <linearGradient
      id="paint2_linear_2_82"
      x1="383.754"
      y1="938.451"
      x2="601.815"
      y2="470.818"
      gradientUnits="userSpaceOnUse"
    >
      <stop stop-color="#282661" />
      <stop offset="0.095" stop-color="#662E8C" />
      <stop offset="0.788" stop-color="#9E2064" />
      <stop offset="0.949" stop-color="#CC2032" />
    </linearGradient>
    <linearGradient
      id="paint3_linear_2_82"
      x1="274.153"
      y1="949.014"
      x2="640.087"
      y2="164.266"
      gradientUnits="userSpaceOnUse"
    >
      <stop offset="0.323" stop-color="#9C2063" />
      <stop offset="0.63" stop-color="#C82037" />
      <stop offset="0.751" stop-color="#CC2135" />
      <stop offset="1" stop-color="#E87726" />
    </linearGradient>
    <linearGradient
      id="paint4_linear_2_82"
      x1="311.49"
      y1="896.746"
      x2="503.799"
      y2="484.337"
      gradientUnits="userSpaceOnUse"
    >
      <stop stop-color="#282661" />
      <stop offset="0.095" stop-color="#662E8C" />
      <stop offset="0.788" stop-color="#9E2064" />
      <stop offset="0.949" stop-color="#CC2032" />
    </linearGradient>
    <linearGradient
      id="paint5_linear_2_82"
      x1="355.403"
      y1="986.901"
      x2="721.337"
      y2="202.153"
      gradientUnits="userSpaceOnUse"
    >
      <stop offset="0.323" stop-color="#9C2063" />
      <stop offset="0.63" stop-color="#C82037" />
      <stop offset="0.751" stop-color="#CC2135" />
      <stop offset="1" stop-color="#E87726" />
    </linearGradient>
    <linearGradient
      id="paint6_linear_2_82"
      x1="328.639"
      y1="1033.69"
      x2="694.572"
      y2="248.939"
      gradientUnits="userSpaceOnUse"
    >
      <stop offset="0.323" stop-color="#9C2063" />
      <stop offset="0.63" stop-color="#C82037" />
      <stop offset="0.751" stop-color="#CC2135" />
      <stop offset="1" stop-color="#E87726" />
    </linearGradient>
    <linearGradient
      id="paint7_linear_2_82"
      x1="379.516"
      y1="998.146"
      x2="745.451"
      y2="213.397"
      gradientUnits="userSpaceOnUse"
    >
      <stop offset="0.323" stop-color="#9C2063" />
      <stop offset="0.63" stop-color="#C82037" />
      <stop offset="0.751" stop-color="#CC2135" />
      <stop offset="1" stop-color="#E87726" />
    </linearGradient>
    <linearGradient
      id="paint8_linear_2_82"
      x1="376.789"
      y1="996.875"
      x2="742.72"
      y2="212.123"
      gradientUnits="userSpaceOnUse"
    >
      <stop offset="0.323" stop-color="#9C2063" />
      <stop offset="0.63" stop-color="#C82037" />
      <stop offset="0.751" stop-color="#CC2135" />
      <stop offset="1" stop-color="#E87726" />
    </linearGradient>
    <linearGradient
      id="paint9_linear_2_82"
      x1="654.777"
      y1="189.084"
      x2="834.688"
      y2="139.066"
      gradientUnits="userSpaceOnUse"
    >
      <stop stop-color="#F59723" />
      <stop offset="0.312" stop-color="#F69822" />
      <stop offset="0.838" stop-color="#E87726" />
    </linearGradient>
    <linearGradient
      id="paint10_linear_2_82"
      x1="260.968"
      y1="996.524"
      x2="626.902"
      y2="211.776"
      gradientUnits="userSpaceOnUse"
    >
      <stop offset="0.323" stop-color="#9C2063" />
      <stop offset="0.63" stop-color="#C82037" />
      <stop offset="0.751" stop-color="#CC2135" />
      <stop offset="1" stop-color="#E87726" />
    </linearGradient>
    <linearGradient
      id="paint11_linear_2_82"
      x1="383.754"
      y1="938.451"
      x2="601.815"
      y2="470.818"
      gradientUnits="userSpaceOnUse"
    >
      <stop stop-color="#282661" />
      <stop offset="0.095" stop-color="#662E8C" />
      <stop offset="0.788" stop-color="#9E2064" />
      <stop offset="0.949" stop-color="#CC2032" />
    </linearGradient>
    <linearGradient
      id="paint12_linear_2_82"
      x1="274.153"
      y1="949.014"
      x2="640.087"
      y2="164.266"
      gradientUnits="userSpaceOnUse"
    >
      <stop offset="0.323" stop-color="#9C2063" />
      <stop offset="0.63" stop-color="#C82037" />
      <stop offset="0.751" stop-color="#CC2135" />
      <stop offset="1" stop-color="#E87726" />
    </linearGradient>
    <linearGradient
      id="paint13_linear_2_82"
      x1="311.49"
      y1="896.746"
      x2="503.799"
      y2="484.337"
      gradientUnits="userSpaceOnUse"
    >
      <stop stop-color="#282661" />
      <stop offset="0.095" stop-color="#662E8C" />
      <stop offset="0.788" stop-color="#9E2064" />
      <stop offset="0.949" stop-color="#CC2032" />
    </linearGradient>
    <linearGradient
      id="paint14_linear_2_82"
      x1="355.403"
      y1="986.901"
      x2="721.337"
      y2="202.153"
      gradientUnits="userSpaceOnUse"
    >
      <stop offset="0.323" stop-color="#9C2063" />
      <stop offset="0.63" stop-color="#C82037" />
      <stop offset="0.751" stop-color="#CC2135" />
      <stop offset="1" stop-color="#E87726" />
    </linearGradient>
    <linearGradient
      id="paint15_linear_2_82"
      x1="328.639"
      y1="1033.69"
      x2="694.572"
      y2="248.939"
      gradientUnits="userSpaceOnUse"
    >
      <stop offset="0.323" stop-color="#9C2063" />
      <stop offset="0.63" stop-color="#C82037" />
      <stop offset="0.751" stop-color="#CC2135" />
      <stop offset="1" stop-color="#E87726" />
    </linearGradient>
    <linearGradient
      id="paint16_linear_2_82"
      x1="379.516"
      y1="998.146"
      x2="745.451"
      y2="213.397"
      gradientUnits="userSpaceOnUse"
    >
      <stop offset="0.323" stop-color="#9C2063" />
      <stop offset="0.63" stop-color="#C82037" />
      <stop offset="0.751" stop-color="#CC2135" />
      <stop offset="1" stop-color="#E87726" />
    </linearGradient>
    <linearGradient
      id="paint17_linear_2_82"
      x1="376.789"
      y1="996.875"
      x2="742.72"
      y2="212.123"
      gradientUnits="userSpaceOnUse"
    >
      <stop offset="0.323" stop-color="#9C2063" />
      <stop offset="0.63" stop-color="#C82037" />
      <stop offset="0.751" stop-color="#CC2135" />
      <stop offset="1" stop-color="#E87726" />
    </linearGradient>
  </defs>
</svg>
