
  <svg width="24" height="25" viewBox="0 0 1091 1091" fill="none" xmlns="http://www.w3.org/2000/svg">
    <path
      fill-rule="evenodd"
      clip-rule="evenodd"
      d="M113.754 156.809C113.754 133.06 133.006 113.809 156.754 113.809H934.575C958.324 113.809 977.575 133.06 977.575 156.809V934.63C977.575 958.378 958.324 977.63 934.575 977.63H156.754C133.006 977.63 113.754 958.378 113.754 934.63V156.809ZM440.897 730.375C504.106 461.042 845.402 326.375 845.402 326.375C521.949 676.34 728.158 730.375 728.158 730.375H440.897ZM292.598 730.374C292.766 559.853 337.88 451.614 337.88 451.614C323.403 635.013 400.079 730.374 400.079 730.374H292.598Z"
      fill="#0F87C9"
    />
  </svg>

