<svg width="27" height="24" viewBox="0 0 27 24" fill="none" xmlns="http://www.w3.org/2000/svg">
  <path
    d="M9.13085 10.7005C10.5511 11.9037 11.4965 12.7705 11.6946 13.7478C11.9057 8.74515 14.4396 6.30512 17.3743 5.17252C15.3284 4.67749 13.7794 4.54217 12.703 4.90361C12.575 4.95462 12.4482 5.00617 12.3142 5.05362C11.892 5.20336 11.4618 5.33239 11.0289 5.4481C10.6799 5.54135 10.3293 5.62731 9.97771 5.69712C8.58315 5.97415 7.19596 6.06039 5.86481 5.96147C5.54268 5.93756 5.22472 5.90042 4.90994 5.85489C5.05384 6.15136 5.21273 6.43123 5.37925 6.70206C6.42105 8.39657 7.85703 9.62133 9.13085 10.7005Z"
    fill="#7986CB"
  />
  <path
    opacity="0.75"
    d="M11.698 13.7472C11.4999 12.7698 10.5546 11.9031 9.13432 10.6999C7.8605 9.62076 6.42461 8.39601 5.38262 6.70158C5.2161 6.43075 5.05722 6.15089 4.91332 5.85442C3.55192 5.65759 2.26357 5.26211 1.10575 4.66935L0.5 4.35938L0.536338 5.04138C0.650075 7.1728 3.00904 11.0423 6.59203 12.5021C9.24451 13.3562 11.0551 14.0484 11.3606 14.6844C11.4069 14.7802 11.4846 14.958 11.3933 15.1998C11.276 15.5023 11.5858 15.0129 11.6801 14.5819C11.6773 14.2941 11.6865 14.0194 11.698 13.7472Z"
    fill="#7986CB"
  />
  <path
    d="M9.98105 5.69702C10.3326 5.62721 10.6833 5.54125 11.0322 5.448C11.4652 5.33238 11.8953 5.20326 12.3176 5.05352C12.4516 5.00598 12.5785 4.95443 12.7064 4.90351C10.2826 4.68652 7.51907 3.88799 4.61549 0.712939L3.96359 0L3.93516 0.967526C3.87666 2.94555 4.27174 4.53331 4.91319 5.85479C5.22806 5.90032 5.54602 5.93746 5.86806 5.96137C7.1993 6.06029 8.58649 5.97405 9.98105 5.69702Z"
    fill="#7986CB"
  />
  <path
    d="M20.0147 10.3166L20.0847 10.3181C20.5037 6.23439 18.0191 5.30784 17.3776 5.17188C14.4431 6.30447 11.9092 8.7445 11.6979 13.7471C11.6676 15.1867 10.6976 17.6908 5.59882 23.2274C6.51389 23.039 6.83294 22.8665 6.83294 22.8665C10.432 21.814 18.3745 17.4841 19.9545 10.8164C19.9952 10.6447 20.0424 10.4872 20.0873 10.3249L20.0889 10.3201L20.0155 10.3166H20.0147Z"
    fill="#7986CB"
  />
  <path
    d="M26.4432 4.04279C26.372 3.89879 24.6484 0.519529 20.9782 0.806328C20.695 0.828501 20.4134 0.867009 20.1415 0.921029C18.5333 1.2405 17.3549 2.0654 16.1081 2.93866C15.1043 3.64129 14.0655 4.36362 12.7064 4.90455C13.7827 4.54311 15.3316 4.67843 17.3776 5.17347C21.6405 3.52823 26.7345 4.63062 26.7345 4.63062L26.4432 4.04279Z"
    fill="#7986CB"
  />
  <path d="M20.0156 10.3184L20.0853 10.3198L20.0148 10.3184H20.0156Z" fill="#7986CB" />
  <path d="M20.0156 10.3184L20.0853 10.3198L20.0148 10.3184H20.0156Z" fill="#7986CB" />
  <path
    opacity="0.75"
    d="M17.3763 5.17195C17.4024 5.17751 17.4326 5.1849 17.4646 5.19321C17.523 5.20817 17.5795 5.22514 17.6342 5.24422C18.5077 5.53758 20.4584 6.66252 20.0834 10.3182L20.0141 10.3167L20.0457 10.3182L20.0875 10.3202C21.2539 6.11766 23.8158 4.98917 25.2773 4.69881C25.7606 4.60282 26.0758 4.61057 26.0758 4.61057L26.733 4.62919C26.7331 4.6291 21.6392 3.52671 17.3763 5.17195Z"
    fill="#7986CB"
  />
</svg>
