<svg width="24" height="22" viewBox="0 0 24 22" fill="none" xmlns="http://www.w3.org/2000/svg">
  <g style="mix-blend-mode: lighten" opacity="0.96">
    <path
      d="M11.1501 4.90634C8.93621 4.70886 6.41236 3.98303 3.76065 1.10147L3.16499 0.454102L3.13901 1.33264C3.08556 3.12876 3.44655 4.57048 4.03267 5.77043C4.32037 5.81178 4.61089 5.8455 4.90515 5.86721C4.92004 5.86831 4.93493 5.86938 4.94983 5.87043C4.93376 5.86931 4.9177 5.86815 4.90165 5.86697C4.60731 5.84526 4.31678 5.81153 4.02916 5.77019C4.16065 6.03939 4.30583 6.29352 4.45798 6.53944C5.4099 8.07811 6.722 9.19023 7.88592 10.1701C9.18365 11.2627 10.0475 12.0497 10.2285 12.9371C10.4214 8.39463 12.7367 6.17901 15.4181 5.15058C14.1681 4.85 13.1211 4.69547 12.2705 4.7242C13.1216 4.695 14.1696 4.84954 15.4212 5.15047C19.3163 3.65654 23.9708 4.65755 23.9708 4.65755L23.7047 4.12378C23.6396 3.99303 22.0647 0.924553 18.7111 1.18498C18.4524 1.20511 18.1951 1.24008 17.9466 1.28913C16.4771 1.57921 15.4005 2.32825 14.2612 3.1212C13.3474 3.75685 12.4019 4.41026 11.1668 4.90084C11.1612 4.90265 11.1556 4.90449 11.1501 4.90634Z"
      fill="currentColor"
    />
    <path
      d="M17.8324 9.82212L17.895 9.82342C18.2779 6.11528 16.0076 5.27394 15.4215 5.15048C12.7401 6.17891 10.4248 8.39453 10.2318 12.9371C10.2041 14.2442 9.31784 16.5181 4.6589 21.5455C5.49503 21.3744 5.78656 21.2177 5.78656 21.2177C9.07513 20.262 16.3324 16.3303 17.7761 10.2759C17.8039 10.1594 17.8349 10.0501 17.866 9.94086L17.8662 9.94022C17.8767 9.90342 17.8871 9.86663 17.8975 9.82955L17.8989 9.82524L17.8324 9.82212Z"
      fill="currentColor"
    />
    <path
      d="M11.1501 4.90634C8.93621 4.70886 6.41236 3.98303 3.76065 1.10147L3.16499 0.454102L3.13901 1.33264C3.08556 3.12876 3.44655 4.57048 4.03267 5.77043C4.32037 5.81178 4.61089 5.8455 4.90515 5.86721C4.92004 5.86831 4.93493 5.86938 4.94983 5.87043C4.93376 5.86931 4.9177 5.86815 4.90165 5.86697C4.60731 5.84526 4.31678 5.81153 4.02916 5.77019C4.16065 6.03939 4.30583 6.29352 4.45798 6.53944C5.4099 8.07811 6.722 9.19023 7.88592 10.1701C9.18365 11.2627 10.0475 12.0497 10.2285 12.9371C10.4214 8.39463 12.7367 6.17901 15.4181 5.15058C14.1681 4.85 13.1211 4.69547 12.2705 4.7242C13.1216 4.695 14.1696 4.84954 15.4212 5.15047C19.3163 3.65654 23.9708 4.65755 23.9708 4.65755L23.7047 4.12378C23.6396 3.99303 22.0647 0.924553 18.7111 1.18498C18.4524 1.20511 18.1951 1.24008 17.9466 1.28913C16.4771 1.57921 15.4005 2.32825 14.2612 3.1212C13.3474 3.75685 12.4019 4.41026 11.1668 4.90084C11.1612 4.90265 11.1556 4.90449 11.1501 4.90634Z"
      stroke="currentColor"
      stroke-width="0.0291542"
    />
    <path
      d="M17.8324 9.82212L17.895 9.82342C18.2779 6.11528 16.0076 5.27394 15.4215 5.15048C12.7401 6.17891 10.4248 8.39453 10.2318 12.9371C10.2041 14.2442 9.31784 16.5181 4.6589 21.5455C5.49503 21.3744 5.78656 21.2177 5.78656 21.2177C9.07513 20.262 16.3324 16.3303 17.7761 10.2759C17.8039 10.1594 17.8349 10.0501 17.866 9.94086L17.8662 9.94022C17.8767 9.90342 17.8871 9.86663 17.8975 9.82955L17.8989 9.82524L17.8324 9.82212Z"
      stroke="currentColor"
      stroke-width="0.0291542"
    />
    <g opacity="0.75">
      <path
        d="M15.5009 5.16863C15.4717 5.16109 15.4441 5.15437 15.4202 5.14932C19.3153 3.65539 23.9698 4.6564 23.9697 4.65648L23.3692 4.63958C23.3692 4.63958 23.0812 4.63253 22.6396 4.7197C21.3041 4.98335 18.9633 6.00806 17.8975 9.82408L17.8593 9.82226L17.8305 9.82093L17.8937 9.82226C18.2364 6.5028 16.454 5.48133 15.6558 5.21494C15.6059 5.19763 15.5542 5.18221 15.5009 5.16863Z"
        fill="currentColor"
      />
      <path
        d="M7.88941 10.1697C9.18714 11.2623 10.0509 12.0493 10.232 12.9367C10.2214 13.1839 10.213 13.4334 10.2155 13.6946C10.1294 14.0861 9.8463 14.5304 9.95346 14.2558C10.0369 14.0362 9.96591 13.8748 9.92366 13.7878C9.64451 13.2103 7.9901 12.5817 5.56646 11.8061C2.29257 10.4807 0.137127 6.967 0.033203 5.0316L0 4.41232L0.553491 4.69379C1.61142 5.23203 2.78862 5.59114 4.03257 5.76986C4.16405 6.03907 4.30923 6.2932 4.46138 6.53912C5.41347 8.07771 6.72548 9.18983 7.88941 10.1697Z"
        fill="currentColor"
      />
    </g>
  </g>
</svg>
