<svg width="117" height="38" viewBox="0 0 117 38" fill="none" xmlns="http://www.w3.org/2000/svg">
<path d="M19.3519 8.62171C15.5095 8.27897 11.1292 7.01925 6.52693 2.01809L5.49312 0.894531L5.44803 2.41931C5.35525 5.53659 5.98179 8.03882 6.99903 10.1214C7.49836 10.1932 8.00259 10.2517 8.5133 10.2894C8.53913 10.2913 8.56498 10.2932 8.59084 10.295C8.56295 10.293 8.53508 10.291 8.50722 10.289C7.99637 10.2513 7.49214 10.1927 6.99295 10.121C7.22115 10.5882 7.47312 11.0293 7.73719 11.4561C9.38933 14.1266 11.6666 16.0567 13.6866 17.7574C15.9389 19.6536 17.4382 21.0196 17.7523 22.5598C18.0871 14.6759 22.1055 10.8305 26.7594 9.04561C24.5898 8.52394 22.7727 8.25574 21.2964 8.3056C22.7736 8.25493 24.5925 8.52314 26.7647 9.04543C33.5249 6.45261 41.6031 8.18993 41.6031 8.18993L41.1412 7.26353C41.0283 7.0366 38.2949 1.71103 32.4746 2.16302C32.0255 2.19796 31.5789 2.25865 31.1477 2.34378C28.5973 2.84725 26.7287 4.14725 24.7514 5.52348C23.1654 6.62669 21.5244 7.76073 19.3808 8.61216C19.3711 8.61532 19.3615 8.6185 19.3519 8.62171Z" fill="white" fill-opacity="0.7"/>
<path d="M30.9495 17.1534L31.0582 17.1557C31.7226 10.7199 27.7825 9.25971 26.7652 9.04544C22.1115 10.8304 18.0931 14.6757 17.7581 22.5596C17.71 24.8283 16.1718 28.7748 8.08591 37.5002C9.53708 37.2032 10.043 36.9313 10.043 36.9313C15.7506 35.2726 28.346 28.4489 30.8518 17.941C30.9 17.7388 30.9539 17.5492 31.0078 17.3595L31.0081 17.3584C31.0263 17.2945 31.0444 17.2307 31.0624 17.1663L31.0648 17.1588L30.9495 17.1534Z" fill="white" fill-opacity="0.7"/>
<path d="M19.3519 8.62171C15.5095 8.27897 11.1292 7.01925 6.52693 2.01809L5.49312 0.894531L5.44803 2.41931C5.35525 5.53659 5.98179 8.03882 6.99903 10.1214C7.49836 10.1932 8.00259 10.2517 8.5133 10.2894C8.53913 10.2913 8.56498 10.2932 8.59084 10.295C8.56295 10.293 8.53508 10.291 8.50722 10.289C7.99637 10.2513 7.49214 10.1927 6.99295 10.121C7.22115 10.5882 7.47312 11.0293 7.73719 11.4561C9.38933 14.1266 11.6666 16.0567 13.6866 17.7574C15.9389 19.6536 17.4382 21.0196 17.7523 22.5598C18.0871 14.6759 22.1055 10.8305 26.7594 9.04561C24.5898 8.52394 22.7727 8.25574 21.2964 8.3056C22.7736 8.25493 24.5925 8.52314 26.7647 9.04543C33.5249 6.45261 41.6031 8.18993 41.6031 8.18993L41.1412 7.26353C41.0283 7.0366 38.2949 1.71103 32.4746 2.16302C32.0255 2.19796 31.5789 2.25865 31.1477 2.34378C28.5973 2.84725 26.7287 4.14725 24.7514 5.52348C23.1654 6.62669 21.5244 7.76073 19.3808 8.61216C19.3711 8.61532 19.3615 8.6185 19.3519 8.62171Z" stroke="white" stroke-opacity="0.7" stroke-width="0.0455715"/>
<path d="M30.9495 17.1534L31.0582 17.1557C31.7226 10.7199 27.7825 9.25971 26.7652 9.04544C22.1115 10.8304 18.0931 14.6757 17.7581 22.5596C17.71 24.8283 16.1718 28.7748 8.08591 37.5002C9.53708 37.2032 10.043 36.9313 10.043 36.9313C15.7506 35.2726 28.346 28.4489 30.8518 17.941C30.9 17.7388 30.9539 17.5492 31.0078 17.3595L31.0081 17.3584C31.0263 17.2945 31.0444 17.2307 31.0624 17.1663L31.0648 17.1588L30.9495 17.1534Z" stroke="white" stroke-opacity="0.7" stroke-width="0.0455715"/>
<g opacity="0.75">
<path d="M26.9029 9.07789C26.8522 9.0648 26.8044 9.05316 26.7629 9.04438C33.5231 6.45156 41.6013 8.18888 41.6011 8.18903L40.559 8.15969C40.559 8.15969 40.0591 8.14747 39.2926 8.29875C36.9749 8.75634 32.9121 10.5348 31.0625 17.1578L30.9961 17.1546L30.9461 17.1523L31.0559 17.1546C31.6506 11.3935 28.5571 9.62061 27.1719 9.15828C27.0851 9.12822 26.9955 9.10147 26.9029 9.07789Z" fill="white" fill-opacity="0.7"/>
<path d="M13.6926 17.7576C15.945 19.6539 17.4441 21.0197 17.7583 22.56C17.74 22.989 17.7255 23.422 17.7298 23.8754C17.5802 24.5548 17.089 25.326 17.275 24.8493C17.4198 24.4682 17.2966 24.1881 17.2232 24.0371C16.7388 23.0347 13.8674 21.9438 9.66099 20.5978C3.97893 18.2973 0.237995 12.1991 0.0576262 8.84007L0 7.76527L0.960624 8.25378C2.79673 9.18794 4.83986 9.8112 6.99882 10.1214C7.22702 10.5886 7.47899 11.0297 7.74306 11.4565C9.39548 14.1268 11.6726 16.057 13.6926 17.7576Z" fill="white" fill-opacity="0.7"/>
</g>
<path d="M44.9904 17.1563V17.156H47.9191V15.3394H44.9904V15.3396C41.6833 15.3396 38.993 18.0416 38.993 21.3634V25.9843H38.9927V25.9847C38.9927 29.3066 41.683 32.0085 44.9901 32.0085V32.0087H47.9188V30.192H44.9901V30.1919C42.6803 30.1919 40.8013 28.3043 40.8013 25.9847L40.8015 25.9845V21.3634C40.8015 19.0438 42.6808 17.1563 44.9904 17.1563Z" fill="white" fill-opacity="0.7"/>
<path fill-rule="evenodd" clip-rule="evenodd" d="M117 24.4184L116.999 24.4167C116.999 21.5914 114.711 19.2928 111.899 19.2928H108.056V21.113H111.899C113.681 21.113 115.128 22.5461 115.178 24.3243C114.671 24.0407 114.097 23.8649 113.477 23.8648V23.8646H110.319V23.8648C108.377 23.8649 106.797 25.4522 106.797 27.4028V28.4906C106.797 30.4411 108.377 32.0283 110.319 32.0286H113.477C115.369 32.0284 116.904 30.5202 116.984 28.6401L117 24.4184ZM113.477 30.2084H110.319C109.376 30.2083 108.609 29.4378 108.609 28.4908V27.4029C108.609 26.4557 109.376 25.6854 110.319 25.6851V25.6849H113.477V25.6851C114.42 25.6852 115.187 26.4557 115.187 27.4029H115.188V28.4908H115.187C115.187 29.438 114.42 30.2083 113.477 30.2084Z" fill="white" fill-opacity="0.7"/>
<path fill-rule="evenodd" clip-rule="evenodd" d="M81.1865 24.3994C81.1865 21.5836 83.4679 19.2928 86.271 19.2928C89.0742 19.2928 91.3545 21.5836 91.3545 24.3993V26.8789C91.3545 29.6947 89.0733 31.9855 86.2702 31.9855C85.0214 31.9855 83.8783 31.5291 82.9925 30.7762V36.0743H81.1865V24.3994ZM86.2702 30.1717C88.0777 30.1717 89.5485 28.6948 89.5485 26.879V24.3994C89.5485 22.5836 88.0786 21.1067 86.271 21.1067C84.4632 21.1067 82.9925 22.5836 82.9925 24.3994V26.879C82.9925 28.6948 84.4625 30.1717 86.2702 30.1717Z" fill="white" fill-opacity="0.7"/>
<path d="M104.579 19.2928H102.773V31.9811H104.579V19.2928Z" fill="white" fill-opacity="0.7"/>
<path d="M63.3902 15.3409H65.1961V32.007H63.3902V15.3409Z" fill="white" fill-opacity="0.7"/>
<path d="M97.2829 26.9318V21.0946H100.231V19.2808H97.2829V15.3629H95.4771V19.2808H93.6499V21.0947H95.4771V26.9319C95.4771 29.7476 97.7574 32.0387 100.561 32.0387H100.561V30.2246H100.561C98.7527 30.2245 97.2829 28.7475 97.2829 26.9318Z" fill="white" fill-opacity="0.7"/>
<path fill-rule="evenodd" clip-rule="evenodd" d="M60.4198 24.4057L60.4206 24.4074L60.4049 28.6291C60.325 30.5091 58.7892 32.0174 56.8981 32.0175H53.7394C51.7979 32.0173 50.2178 30.43 50.2178 28.4796V27.3917C50.2178 25.4411 51.7979 23.8539 53.7394 23.8538V23.8536H56.8981V23.8538C57.5179 23.8539 58.0921 24.0296 58.5986 24.3132C58.5486 22.535 57.1014 21.1019 55.3194 21.1019H51.4767V19.2818H55.3194C58.1321 19.2818 60.4198 21.5804 60.4198 24.4057ZM53.7394 30.1973H56.8981C57.841 30.1971 58.608 29.4268 58.608 28.4796H58.6084V27.3917H58.608C58.608 26.4445 57.8408 25.674 56.8981 25.6739V25.6738H53.7394V25.6739C52.7966 25.674 52.0299 26.4445 52.0299 27.3917V28.4796C52.0299 29.4267 52.7966 30.1971 53.7394 30.1973Z" fill="white" fill-opacity="0.7"/>
<path d="M78.327 19.3142H76.5211V26.8789H76.5212V26.8791C76.5212 28.6949 75.0513 30.1718 73.2436 30.1718C71.4359 30.1718 69.9651 28.6949 69.9651 26.8791L69.9649 26.8789V19.3142H68.1589V26.8789L68.1591 26.8791C68.1591 29.6948 70.4403 31.9857 73.2434 31.9857C74.492 31.9857 75.6353 31.5291 76.5211 30.7764V30.9679C76.5211 32.7837 75.0511 34.2606 73.2434 34.2606H69.4137V36.0745H73.2434C76.0466 36.0745 78.3269 33.7836 78.3269 30.9679L78.327 19.3142Z" fill="white" fill-opacity="0.7"/>
<path d="M102.773 15.3629H104.579V17.177H102.773V15.3629Z" fill="white" fill-opacity="0.7"/>
</svg>
