  <svg viewBox="0 0 114 35" fill="none" xmlns="http://www.w3.org/2000/svg">
    <path
      d="M13.3986 16.1314C15.599 17.9342 17.0636 19.2329 17.3705 20.6971C17.6975 13.2018 21.6232 9.54593 26.1697 7.84897C23.0001 7.10727 20.6003 6.90452 18.9328 7.44606C18.7345 7.52249 18.538 7.59974 18.3305 7.67083C17.6763 7.89519 17.0099 8.08851 16.3391 8.26186C15.7985 8.40159 15.2553 8.53038 14.7106 8.63497C12.5501 9.05005 10.401 9.17925 8.3387 9.03105C7.83963 8.99522 7.34704 8.93958 6.85938 8.87136C7.08231 9.31556 7.32846 9.73487 7.58644 10.1407C9.20046 12.6795 11.4251 14.5146 13.3986 16.1314Z"
      fill="url(#paint0_linear_1_5718)"
    />
    <path
      d="M17.3754 20.6967C17.0684 19.2323 15.6039 17.9338 13.4036 16.131C11.4301 14.5142 9.20554 12.6791 7.59125 10.1404C7.33327 9.73462 7.08712 9.3153 6.86418 8.8711C4.75504 8.5762 2.75906 7.98366 0.965314 7.09554L0.0268555 6.6311L0.083152 7.65294C0.259359 10.8464 3.91397 16.6441 9.46493 18.8312C13.5743 20.1109 16.3794 21.148 16.8527 22.101C16.9243 22.2445 17.0447 22.5108 16.9032 22.8732C16.7215 23.3264 17.2014 22.5932 17.3475 21.9473C17.3433 21.5162 17.3575 21.1046 17.3754 20.6967Z"
      fill="url(#paint1_linear_1_5718)"
    />
    <path
      d="M14.7153 8.63482C15.2599 8.53023 15.8032 8.40144 16.3438 8.26172C17.0146 8.08849 17.681 7.89504 18.3351 7.67068C18.5427 7.59945 18.7393 7.52221 18.9375 7.44592C15.1824 7.1208 10.9011 5.92437 6.40271 1.16725L5.39275 0.0990601L5.3487 1.54869C5.25806 4.51234 5.87014 6.89125 6.86391 8.87121C7.35172 8.93943 7.84431 8.99508 8.34324 9.0309C10.4057 9.1791 12.5548 9.0499 14.7153 8.63482Z"
      fill="url(#paint2_linear_1_5718)"
    />
    <path
      d="M30.2595 15.5565L30.368 15.5587C31.0171 9.4401 27.1679 8.05186 26.1741 7.84814C21.6277 9.5451 17.7021 13.201 17.3748 20.6963C17.3278 22.8532 15.8251 26.6051 7.92578 34.9005C9.34346 34.6182 9.83774 34.3597 9.83774 34.3597C15.4136 32.7828 27.7184 26.2953 30.1663 16.3053C30.2294 16.048 30.3024 15.812 30.3721 15.5688L30.3745 15.5617L30.2608 15.5565H30.2595Z"
      fill="url(#paint3_linear_1_5718)"
    />
    <path
      d="M40.2201 6.15522C40.1098 5.93948 37.4395 0.876373 31.7535 1.30608C31.3148 1.3393 30.8785 1.397 30.4572 1.47794C27.9657 1.95659 26.1402 3.19253 24.2085 4.50092C22.6533 5.55366 21.0441 6.63592 18.9385 7.44639C20.6058 6.90485 23.0056 7.1076 26.1754 7.8493C32.7796 5.38426 40.6714 7.03596 40.6714 7.03596L40.2201 6.15522Z"
      fill="url(#paint4_linear_1_5718)"
    />
    <path d="M30.262 15.5566L30.3691 15.5588L30.2607 15.5566H30.262Z" fill="#03C0FF" />
    <path d="M30.262 15.5566L30.3691 15.5588L30.2607 15.5566H30.262Z" fill="url(#paint5_linear_1_5718)" />
    <path
      d="M26.1733 7.84682C26.2139 7.85516 26.2606 7.86624 26.3101 7.87868C26.4006 7.9011 26.4882 7.92653 26.5729 7.9551C27.9261 8.39465 30.9482 10.0801 30.3673 15.5574L30.26 15.5552L30.3089 15.5574L30.3737 15.5604C32.1807 9.26378 36.1497 7.57298 38.414 7.13794C39.1627 6.99411 39.6511 7.00573 39.6511 7.00573L40.6692 7.03362C40.6693 7.03348 32.7776 5.38178 26.1733 7.84682Z"
      fill="#0199FF"
    />
    <path
      d="M113.972 22.4386L113.972 22.437C113.972 19.7753 111.743 17.6099 109.003 17.6099H105.26V19.3246H109.003C110.739 19.3246 112.149 20.6747 112.198 22.3499C111.704 22.0828 111.145 21.9172 110.541 21.917V21.9169H107.464V21.917C105.573 21.9172 104.034 23.4125 104.034 25.2501V26.275C104.034 28.1125 105.573 29.6078 107.464 29.608H110.541C112.383 29.6079 113.879 28.187 113.957 26.4158L113.972 22.4386ZM110.541 27.8933H107.464C106.546 27.8932 105.799 27.1673 105.799 26.2751V25.2503C105.799 24.3579 106.546 23.6322 107.464 23.6319V23.6318H110.541V23.6319C111.459 23.632 112.207 24.3579 112.207 25.2503H112.207V26.2751H112.207C112.207 27.1675 111.459 27.8932 110.541 27.8933Z"
      fill="white"
    />
    <path d="M101.874 13.9077H100.115V15.6166H101.874V13.9077Z" fill="white" />
    <path
      d="M43.8269 15.5974V15.5971H46.6799V13.8857H43.8269V13.886C40.6054 13.886 37.9847 16.4314 37.9847 19.5609V19.5613V23.9141H37.9844V23.9145C37.9844 27.044 40.6051 29.5895 43.8267 29.5895V29.5896H46.6796V27.8782H43.8267V27.878C41.5766 27.878 39.7462 26.0997 39.7462 23.9145L39.7464 23.9143V23.9141V19.5613V19.5609C39.7464 17.3756 41.5771 15.5974 43.8269 15.5974Z"
      fill="white"
    />
    <path
      d="M84.0394 17.61C81.3087 17.61 79.0864 19.7681 79.0864 22.4208V24.7568V33.4196H80.8457V28.4283C81.7086 29.1376 82.8221 29.5675 84.0385 29.5675C86.7692 29.5675 88.9913 27.4094 88.9913 24.7567V22.4207C88.9913 19.7681 86.77 17.61 84.0394 17.61ZM87.2321 24.7568C87.2321 26.4674 85.7993 27.8588 84.0385 27.8588C82.2776 27.8588 80.8457 26.4674 80.8457 24.7568V22.4208C80.8457 20.7102 82.2783 19.3188 84.0394 19.3188C85.8002 19.3188 87.2321 20.7102 87.2321 22.4208V24.7568Z"
      fill="white"
    />
    <path d="M101.874 17.61H100.115V29.5634H101.874V17.61Z" fill="white" />
    <path d="M63.5096 13.8868H61.7505V29.5877H63.5096V13.8868Z" fill="white" />
    <path
      d="M94.7661 24.8065V19.3074H97.6383V17.5986H94.7661V13.9077H93.007V17.5986H91.2271V19.3075H93.007V24.8066C93.007 27.4592 95.2283 29.6176 97.9589 29.6176H97.9594V27.9086H97.9589C96.1979 27.9085 94.7661 26.5171 94.7661 24.8065Z"
      fill="white"
    />
    <path
      d="M58.8573 22.429L58.8564 22.4273C58.8564 19.7657 56.628 17.6002 53.888 17.6002H50.1447V19.3149H53.888C55.6239 19.3149 57.0337 20.665 57.0824 22.3403C56.589 22.0731 56.0297 21.9075 55.4259 21.9074V21.9073H52.3489V21.9074C50.4576 21.9075 48.9185 23.4028 48.9185 25.2405V26.2653C48.9185 28.1028 50.4576 29.5981 52.3489 29.5984H55.4259C57.268 29.5982 58.7641 28.1773 58.8419 26.4061L58.8573 22.429ZM55.4259 27.8835H52.3489C51.4305 27.8834 50.6836 27.1575 50.6836 26.2653V25.2405C50.6836 24.3481 51.4305 23.6223 52.3489 23.6221V23.622H55.4259V23.6221C56.3442 23.6223 57.0916 24.3481 57.0916 25.2405H57.092V26.2653H57.0916C57.0916 27.1577 56.3444 27.8834 55.4259 27.8835Z"
      fill="white"
    />
    <path
      d="M76.301 17.6296H74.5418V24.7562H74.5419V24.7564C74.5419 26.467 73.11 27.8584 71.3491 27.8584C69.5881 27.8584 68.1554 26.467 68.1554 24.7564L68.1553 24.7562V17.6296H66.396V24.7562L66.3961 24.7564C66.3961 27.409 68.6183 29.5672 71.3489 29.5672C72.5652 29.5672 73.6789 29.1371 74.5418 28.428V28.6084C74.5418 30.3191 73.1099 31.7104 71.3489 31.7104H67.6183V33.4193H71.3489C74.0796 33.4193 76.3009 31.261 76.3009 28.6084L76.301 17.6296Z"
      fill="white"
    />
    <defs>
      <linearGradient
        id="paint0_linear_1_5718"
        x1="8.25499"
        y1="13.8511"
        x2="24.3424"
        y2="13.9558"
        gradientUnits="userSpaceOnUse"
      >
        <stop stop-color="#15C1FF" />
        <stop offset="1" stop-color="#0049E9" />
      </linearGradient>
      <linearGradient
        id="paint1_linear_1_5718"
        x1="-0.513775"
        y1="7.26251"
        x2="15.5316"
        y2="20.9898"
        gradientUnits="userSpaceOnUse"
      >
        <stop stop-color="#B3A9FF" />
        <stop offset="1" stop-color="#3300BF" />
      </linearGradient>
      <linearGradient
        id="paint2_linear_1_5718"
        x1="5.6242"
        y1="5.21814"
        x2="17.9719"
        y2="2.70447"
        gradientUnits="userSpaceOnUse"
      >
        <stop stop-color="#2BF497" />
        <stop offset="1" stop-color="#08B4E5" />
      </linearGradient>
      <linearGradient
        id="paint3_linear_1_5718"
        x1="11.1424"
        y1="30.5302"
        x2="31.3046"
        y2="8.2099"
        gradientUnits="userSpaceOnUse"
      >
        <stop stop-color="#FF55EC" />
        <stop offset="1" stop-color="#0049E9" />
      </linearGradient>
      <linearGradient
        id="paint4_linear_1_5718"
        x1="22.3859"
        y1="6.78909"
        x2="40.2261"
        y2="3.15727"
        gradientUnits="userSpaceOnUse"
      >
        <stop stop-color="#3FFFFC" />
        <stop offset="1" stop-color="#014FFF" />
      </linearGradient>
      <linearGradient
        id="paint5_linear_1_5718"
        x1="18.5879"
        y1="1.90339"
        x2="32.055"
        y2="18.5436"
        gradientUnits="userSpaceOnUse"
      >
        <stop stop-color="#94FFF7" />
        <stop offset="0.6882" stop-color="#0085BF" />
        <stop offset="1" stop-color="#0056BF" />
      </linearGradient>
    </defs>
  </svg>
