  <svg width="24" height="24" viewBox="0 0 1091 1091" fill="none" xmlns="http://www.w3.org/2000/svg">
    <path
      d="M156 113.809C132.252 113.809 113 133.06 113 156.809V934.63C113 958.378 132.252 977.63 156 977.63H933.822C957.57 977.63 976.821 958.378 976.821 934.63V156.809C976.821 133.06 957.57 113.809 933.821 113.809H156ZM544.911 260.12C610.458 260.12 670.153 281.189 719.314 317.474L690.051 357.27C650.255 326.838 599.924 309.28 546.081 309.28C444.249 309.28 356.462 373.657 321.347 463.785L275.698 446.228C316.665 337.372 422.009 260.12 544.911 260.12ZM358.803 550.401C358.803 628.824 406.793 695.542 475.852 723.634L457.124 769.283C413.816 751.726 376.36 722.463 350.609 683.837C324.859 646.381 309.642 599.562 309.642 550.401H358.803ZM326.029 464.956C343.586 421.647 372.849 383.021 411.475 357.27C450.101 330.349 495.75 315.133 546.081 315.133V364.293C467.658 364.293 399.77 413.454 372.849 482.513L326.029 464.956ZM364.655 550.401C364.655 450.91 445.419 370.146 544.911 370.146C631.527 370.146 704.097 432.182 721.655 514.116H671.324C654.937 459.103 604.606 419.306 544.911 419.306C472.34 419.306 413.816 477.831 413.816 550.401C413.816 622.972 472.34 681.496 544.911 681.496C604.606 681.496 654.937 641.699 671.324 586.686H721.655C705.268 668.621 631.527 730.657 544.911 730.657C445.419 730.657 364.655 649.893 364.655 550.401ZM608.117 514.116C599.924 500.07 587.048 488.365 571.832 482.513L590.56 433.352C625.674 447.398 653.766 476.66 664.301 512.946H608.117V514.116ZM664.301 586.686C652.596 622.972 625.674 653.404 590.56 666.28L571.832 618.29C587.048 612.437 599.924 600.732 608.117 586.686H664.301ZM472.34 550.401C472.34 560.936 474.681 570.3 478.193 579.664L430.203 600.732C423.18 585.516 419.668 567.959 419.668 550.401C419.668 481.342 475.852 425.159 544.911 425.159V477.831C505.114 477.831 472.34 510.605 472.34 550.401ZM544.911 622.972V675.644C510.966 675.644 479.363 661.598 457.124 639.358L493.409 603.073C507.455 615.949 525.012 622.972 544.911 622.972ZM544.911 737.68C635.038 737.68 711.12 673.303 727.507 587.857H777.838C760.281 700.224 663.13 786.84 544.911 786.84V737.68ZM727.507 514.116C714.632 450.91 671.324 399.408 612.799 377.169L630.357 331.52C707.609 361.952 764.963 431.011 777.838 514.116H727.507ZM279.21 667.45C274.528 656.916 271.016 646.381 267.505 634.677C267.505 633.506 267.505 633.506 266.334 632.336C266.334 629.995 265.164 627.654 263.993 626.483C263.993 625.313 262.823 622.972 262.823 621.801C262.823 619.46 261.652 618.29 261.652 615.949C261.652 613.608 260.482 612.437 260.482 610.096C260.482 608.926 259.311 607.755 259.311 606.585C259.311 604.244 258.141 601.903 258.141 598.391C258.141 597.221 258.141 597.221 258.141 596.05C258.141 592.539 256.97 590.198 256.97 586.686C256.97 586.686 256.97 586.686 256.97 585.516C255.8 573.811 254.629 562.106 254.629 550.401H303.79C303.79 560.936 304.96 571.47 306.131 582.005C306.131 583.175 306.131 585.516 307.301 586.686C307.301 589.027 308.472 590.198 308.472 592.539C308.472 593.709 308.472 594.88 308.472 596.05C308.472 598.391 309.642 600.732 309.642 603.073V604.244C310.813 606.585 310.813 608.926 311.983 612.437C313.154 614.778 313.154 618.29 314.324 620.631C316.665 629.995 320.177 639.359 324.859 647.552L279.21 667.45ZM544.911 841.853C464.147 841.853 391.577 809.08 338.905 756.407L374.019 721.293C417.327 764.601 478.193 792.693 544.911 792.693C665.471 792.693 766.133 703.735 783.691 587.857H834.022C815.294 730.657 693.563 841.853 544.911 841.853ZM783.691 514.116C779.009 481.342 767.304 449.739 749.746 422.818L791.884 397.067C814.123 432.182 828.169 471.978 834.022 514.116H783.691Z"
      fill="#F08921"
    />
  </svg>

