
  <svg width="24" height="25" viewBox="0 0 1090 1091" fill="none" xmlns="http://www.w3.org/2000/svg">
    <path
      d="M344.03 334.61C350.516 332.844 357.889 335.258 362.165 340.421C364.88 343.613 366.285 347.801 366.285 351.975C366.285 413.617 366.278 475.252 366.285 536.893C366.38 542.854 363.352 548.829 358.264 552.014C351.144 556.727 340.661 555.499 335.048 548.979C331.87 545.528 330.437 540.788 330.574 536.157C330.581 474.781 330.547 413.405 330.594 352.029C330.328 344.015 336.194 336.356 344.03 334.61Z"
      fill="#00A5DE"
    />
    <path
      d="M728.013 334.597C734.492 332.864 741.851 335.292 746.107 340.455C748.992 343.818 750.26 348.299 750.26 352.677C750.254 413.855 750.254 475.033 750.26 536.205C750.349 541.702 748.173 547.335 743.815 550.814C737.281 556.359 726.683 556.202 720.374 550.384C716.514 547.028 714.399 541.934 714.502 536.846C714.481 475.245 714.481 413.637 714.502 352.029C714.229 343.988 720.142 336.315 728.013 334.597Z"
      fill="#00A5DE"
    />
    <path
      d="M247.885 400.208C254.937 398.728 262.766 401.975 266.504 408.174C268.495 411.059 268.686 414.654 269.812 417.88C270.596 420.171 270.262 422.627 270.316 425C270.289 450.685 270.33 476.377 270.303 502.063C270.439 507.137 268.38 512.232 264.601 515.642C259.772 520.205 252.331 521.528 246.152 519.222C239.38 516.842 234.537 509.974 234.612 502.786C234.578 474.345 234.592 445.911 234.605 417.47C234.408 409.6 239.843 401.525 247.885 400.208Z"
      fill="#00A5DE"
    />
    <path
      d="M440.899 400.208C447.146 398.946 454.062 401.231 458.127 406.176C460.937 409.484 462.314 413.828 462.28 418.132C462.28 446.129 462.287 474.12 462.273 502.117C462.287 506.257 461.053 510.445 458.413 513.684C453.721 519.741 444.957 521.916 437.877 519.147C431.173 516.692 426.542 509.872 426.535 502.758C426.453 475.013 426.542 447.261 426.487 419.516C426.453 416.093 426.876 412.566 428.486 409.49C430.9 404.696 435.62 401.149 440.899 400.208Z"
      fill="#00A5DE"
    />
    <path
      d="M633.218 400.147C638.654 399.158 644.553 400.795 648.577 404.614C652.137 407.867 654.224 412.648 654.163 417.47C654.163 445.911 654.163 474.345 654.163 502.785C654.252 508.774 650.923 514.591 645.822 517.688C639.063 521.95 629.487 520.968 623.826 515.294C620.484 512.047 618.5 507.444 618.554 502.772C618.534 474.345 618.541 445.911 618.547 417.477C618.329 409.122 624.979 401.361 633.218 400.147Z"
      fill="#00A5DE"
    />
    <path
      d="M824.888 400.194C831.129 398.932 837.99 401.265 842.055 406.196C844.879 409.49 846.209 413.842 846.188 418.145C846.202 446.129 846.202 474.119 846.188 502.103C846.188 506.243 844.981 510.438 842.321 513.664C837.451 520.006 828.121 522.08 820.912 518.779C814.44 516.003 810.238 509.114 810.416 502.117C810.388 474.351 810.416 446.586 810.402 418.827C809.816 410.131 816.199 401.579 824.888 400.194Z"
      fill="#00A5DE"
    />
    <path
      d="M150.334 448.522C155.64 447.09 161.642 447.956 166.068 451.305C170.665 454.606 173.304 460.253 173.236 465.88C173.236 477.959 173.236 490.031 173.243 502.109C173.4 508.575 169.86 515.041 164.117 518.096C158.006 521.527 149.883 520.974 144.366 516.63C139.885 513.247 137.341 507.641 137.471 502.055C137.491 489.785 137.43 477.515 137.505 465.246C137.511 457.641 142.975 450.466 150.334 448.522Z"
      fill="#00A5DE"
    />
    <path
      d="M535.66 448.441C540.011 447.37 544.786 447.759 548.782 449.859C552.902 452.001 556.121 455.847 557.444 460.308C558.269 463.002 558.222 465.86 558.222 468.649C558.174 480.012 558.256 491.374 558.188 502.737C558.228 507.941 555.814 513.07 551.763 516.33C546.62 520.586 539.043 521.513 532.98 518.771C526.725 516.112 522.545 509.544 522.517 502.778C522.476 491.177 522.538 479.575 522.49 467.967C522.429 465.116 522.586 462.218 523.581 459.517C525.43 454.122 530.136 449.846 535.66 448.441Z"
      fill="#00A5DE"
    />
    <path
      d="M919.636 448.428C923.817 447.405 928.379 447.746 932.267 449.649C937.485 452.152 941.318 457.417 941.965 463.194C942.32 466.365 942.15 469.557 942.184 472.742C942.143 482.741 942.238 492.746 942.143 502.745C942.109 507.921 939.728 513.036 935.705 516.303C930.446 520.675 922.63 521.562 916.492 518.588C910.463 515.826 906.432 509.408 906.452 502.799C906.439 491.191 906.48 479.583 906.439 467.975C906.329 464.762 906.555 461.461 907.898 458.501C909.937 453.536 914.459 449.744 919.636 448.428Z"
      fill="#00A5DE"
    />
    <path
      d="M235.731 627.29C247.898 617.291 263.401 611.787 279.046 610.825C291.923 609.755 304.677 612.428 317.158 615.245C317.22 628.49 317.192 641.735 317.172 654.98C307.507 649.36 296.152 647.171 285.062 647.45C273.29 647.935 261.443 653.35 254.596 663.158C244.133 677.576 246.22 699.817 259.827 711.534C269.157 719.739 282.327 722.187 294.378 720.571C302.372 719.705 310.024 716.963 317.165 713.341C317.22 725.918 317.186 738.495 317.179 751.064C303.688 754.761 289.516 756.507 275.554 755.075C260.686 753.452 246.138 747.736 234.639 738.085C226.823 731.586 220.508 723.299 216.368 714.017C210.284 700.417 208.75 684.989 211.082 670.346C213.728 653.643 222.533 637.922 235.731 627.29Z"
      fill="#00A5DE"
    />
    <path
      d="M616.835 618.962C630.769 611.896 646.838 609.496 662.32 611.085C670.143 611.712 677.775 613.649 685.441 615.252C685.502 628.49 685.482 641.735 685.468 654.98C676.206 649.592 665.389 647.403 654.756 647.403C644.751 647.587 634.602 651.045 627.311 658.056C619.509 665.333 615.533 676.287 616.378 686.872C616.91 697.321 622.128 707.599 630.769 713.635C640.051 720.312 652.096 722.065 663.234 720.496C671.029 719.582 678.484 716.874 685.454 713.341C685.516 725.918 685.447 738.495 685.482 751.065C671.78 754.823 657.375 756.534 643.202 755.034C630.592 753.615 618.206 749.353 607.744 742.096C598.189 735.555 590.4 726.471 585.421 716.015C579.412 703.479 577.455 689.239 578.696 675.462C579.917 662.694 584.446 650.199 592.071 639.853C598.502 631.048 607.103 623.873 616.835 618.962Z"
      fill="#00A5DE"
    />
    <path
      d="M784.649 613.656C803.991 610.962 824.582 615.108 840.5 626.682C851.897 634.867 860.599 646.652 865.271 659.87C873.606 683.025 869.889 710.388 854.632 729.867C842.676 745.526 823.934 755.484 804.393 757.366C795.854 758.635 787.165 757.666 778.763 755.954C760.225 751.971 743.386 740.418 733.36 724.274C720.156 703.465 718.696 675.898 729.356 653.711C737.077 637.261 751.454 624.132 768.471 617.789C773.695 615.824 779.124 614.419 784.649 613.656ZM789.409 649.101C781.218 650.506 773.525 654.755 768.116 661.077C760.614 669.623 757.545 681.784 759.911 692.88C761.712 701.787 766.882 710.067 774.35 715.305C781.77 720.652 791.251 722.951 800.308 721.88C810.177 720.809 819.575 715.578 825.454 707.551C831.647 699.25 834.164 688.276 832.063 678.121C830.031 667.154 822.645 657.319 812.619 652.415C805.498 648.835 797.239 647.805 789.409 649.101Z"
      fill="#00A5DE"
    />
    <path
      d="M464.061 624.363C475.301 616.097 489.719 613.553 503.4 613.997C513.978 614.467 524.502 616.077 534.787 618.573C534.746 628.176 534.808 637.772 534.753 647.375C522.367 644.299 509.388 641.537 496.634 643.917C492.113 644.933 486.725 646.795 485.019 651.57C483.383 656.303 486.37 661.357 490.619 663.485C499.826 668.307 510.357 669.909 519.517 674.868C528.628 679.594 536.676 686.974 540.755 696.543C544.765 705.73 544.445 716.335 541.505 725.774C538.456 735.609 531.213 743.787 522.354 748.854C511.093 755.47 497.842 757.659 484.958 757.973C472.491 757.537 460.003 756.568 447.719 754.331C447.747 743.65 447.726 732.963 447.733 722.276C461.735 726.218 476.453 729.11 491.021 727.023C495.925 726.184 501.224 724.751 504.573 720.802C507.724 717.194 507.636 711.268 504.307 707.796C500.774 703.663 495.332 702.258 490.407 700.532C486.875 698.984 482.939 698.786 479.386 697.286C470.165 693.746 461.039 688.774 454.983 680.747C448.824 672.678 446.901 662.032 448.067 652.102C449.179 641.148 455.099 630.774 464.061 624.363Z"
      fill="#00A5DE"
    />
    <path
      d="M366.305 615.129C378.173 615.068 390.04 615.068 401.907 615.129C401.982 661.562 401.955 707.987 401.921 754.42C390.047 754.475 378.173 754.468 366.305 754.427C366.271 707.994 366.271 661.562 366.305 615.129Z"
      fill="#00A5DE"
    />
  </svg>
