
  <svg viewBox="0 0 32 32" fill="none" xmlns="http://www.w3.org/2000/svg">
    <g clip-path="url(#clip0_15_49)">
      <path
        fill-rule="evenodd"
        clip-rule="evenodd"
        d="M24.8501 11.3944C27.3791 10.8697 28.657 10.8966 29.2355 10.9773C29.3162 10.9908 29.3296 11.1119 29.222 11.1388C29.0738 11.1558 28.8948 11.1715 28.691 11.1893C27.7669 11.2704 26.3329 11.3961 24.9442 11.8921L24.9441 11.8921C24.6617 11.9997 24.3792 12.1073 24.1102 12.2419C24.0953 12.2567 24.0557 12.2757 24.0029 12.3011C23.9602 12.3216 23.9087 12.3463 23.8546 12.3764C23.4914 12.5647 23.1013 13.049 22.886 13.4257L20.4646 17.5421C20.4528 17.5619 20.4401 17.5838 20.4263 17.6073C19.9177 18.4742 17.9988 21.745 14.3842 23.4476C9.50098 25.7345 5.04828 24.5103 5.04828 24.5103C5.04828 24.5103 6.72981 24.0799 8.7342 22.6809C10.1198 21.7661 11.4785 20.515 12.6623 18.7932C13.3343 18.1891 13.6244 17.5743 13.849 17.0985C13.9795 16.8219 14.0879 16.5923 14.2362 16.439C14.8195 15.8557 15.4829 15.4327 16.1103 15.0327C16.163 14.999 16.2154 14.9656 16.2675 14.9323C17.226 14.5661 17.9776 13.3894 18.4532 12.6448C18.5717 12.4594 18.673 12.3007 18.7561 12.188C19.079 11.7576 19.3749 11.502 19.7516 11.3002C20.4242 10.9504 21.5677 10.8025 22.9532 11.2733C23.2626 11.3675 23.6125 11.4616 23.9353 11.4885C24.243 11.4972 24.5505 11.4656 24.8501 11.3944ZM22.1137 12.4467C22.1137 12.6695 21.933 12.8502 21.71 12.8502C21.4872 12.8502 21.3065 12.6695 21.3065 12.4467C21.3065 12.2238 21.4872 12.0431 21.71 12.0431C21.933 12.0431 22.1137 12.2238 22.1137 12.4467Z"
        fill="url(#paint0_linear_15_49)"
      />
      <path
        fill-rule="evenodd"
        clip-rule="evenodd"
        d="M24.85 11.3945C27.379 10.8698 28.657 10.8967 29.2354 10.9775C29.2535 10.9796 29.2702 10.9884 29.2823 11.002C29.2944 11.0156 29.3011 11.0332 29.3011 11.0514C29.3011 11.0697 29.2944 11.0872 29.2823 11.1009C29.2702 11.1145 29.2535 11.1232 29.2354 11.1254C29.1995 11.1296 29.1611 11.1339 29.1205 11.1385C28.235 11.2392 26.2811 11.4614 24.6348 12.0402C24.5145 12.0883 24.4479 12.1069 24.3882 12.1235C24.3146 12.144 24.2514 12.1616 24.1101 12.2285C24.0952 12.2434 24.0557 12.2624 24.0028 12.2878C23.9601 12.3083 23.9087 12.333 23.8545 12.363C23.4913 12.5514 23.1012 13.0357 22.886 13.4123L20.4646 17.5287C20.2564 17.8915 20.0273 18.2418 19.7785 18.578C19.1866 19.3717 17.9759 19.8425 16.4827 19.8022C15.6217 19.8156 14.6397 19.6676 13.5098 19.1699C13.281 19.0757 12.9178 18.9008 12.6488 18.7529C12.5143 18.6722 12.3125 18.5511 12.2722 18.5242C11.8519 18.2467 11.4477 17.9458 11.0614 17.6229C10.7386 17.3673 10.4426 17.0982 10.1332 16.8023C8.70728 15.4167 7.30824 13.6545 6.1917 11.9057C5.94956 11.529 5.72088 11.1523 5.51908 10.7891C4.96755 9.82056 4.51017 8.86545 4.20077 8.03141C4.06624 7.65475 4.09315 7.43951 4.12005 7.35879C4.17386 7.11665 4.34874 6.96868 4.65814 7.06284C5.37111 7.33189 6.01682 7.58748 6.63563 7.86998C8.02121 8.52914 9.40679 9.37664 10.7789 10.3183C11.317 10.6681 11.9493 11.1523 12.595 11.6635C13.7384 12.6052 14.9223 13.6679 16.2675 14.9324C17.226 14.5662 17.9776 13.3896 18.4532 12.6449C18.5716 12.4595 18.673 12.3008 18.7562 12.1882C19.079 11.7577 19.375 11.5021 19.7516 11.3003C20.4377 10.9236 21.5273 10.8026 22.9533 11.2734C23.2627 11.3676 23.6124 11.4617 23.9353 11.4886C24.243 11.4973 24.5505 11.4657 24.85 11.3945ZM22.1136 12.4468C22.1136 12.6696 21.933 12.8503 21.7101 12.8503C21.4872 12.8503 21.3065 12.6696 21.3065 12.4468C21.3065 12.2239 21.4872 12.0432 21.7101 12.0432C21.933 12.0432 22.1136 12.2239 22.1136 12.4468Z"
        fill="url(#paint1_linear_15_49)"
      />
      <path
        opacity="0.8"
        d="M4.09271 7.50703C4.09271 7.46667 4.10616 7.42631 4.09271 7.39941C4.10628 7.434 4.10628 7.47243 4.09271 7.50703Z"
        fill="url(#paint2_linear_15_49)"
      />
      <path
        opacity="0.8"
        d="M5.22253 7.25124C5.20188 7.24038 5.17852 7.23571 5.15527 7.23779C5.19563 7.25124 5.23598 7.27814 5.27635 7.2916C5.27635 7.27814 5.24944 7.26469 5.22253 7.25124Z"
        fill="url(#paint3_linear_15_49)"
      />
      <path
        opacity="0.8"
        d="M5.63993 7.42557C5.62648 7.42557 5.59958 7.41211 5.58612 7.41211C5.62648 7.42557 5.66684 7.45247 5.69374 7.45247C5.66684 7.43902 5.65338 7.42557 5.63993 7.42557Z"
        fill="url(#paint4_linear_15_49)"
      />
      <path
        d="M13.5363 15.1739C14.4913 15.2949 15.4195 15.2277 16.2536 14.9049C15.4465 14.1515 14.6796 13.4655 13.9667 12.8467C13.6035 12.5373 13.2537 12.2279 12.9174 11.9454C12.904 11.9319 12.877 11.9185 12.877 11.905C12.7829 11.8243 12.7022 11.757 12.6215 11.6898C12.5946 11.6763 12.5811 11.6494 12.5676 11.6494C11.922 11.1382 11.2897 10.6674 10.7785 10.3042C9.40637 9.37597 8.03423 8.51502 6.64865 7.85586C6.52758 7.7886 6.40651 7.74824 6.27198 7.68098C6.23163 7.66753 6.19127 7.64062 6.16437 7.64062C11.5184 10.5329 13.2269 13.1561 13.5363 15.1739Z"
        fill="url(#paint5_linear_15_49)"
      />
      <path
        opacity="0.8"
        d="M4.29457 8.28662C4.25421 8.2059 4.22731 8.11175 4.18695 8.01758C4.22731 8.09829 4.25421 8.19246 4.29457 8.28662Z"
        fill="url(#paint6_linear_15_49)"
      />
      <path
        opacity="0.3"
        d="M4.09271 7.547C4.09271 7.53327 4.09271 7.53326 4.10645 7.51953C4.10645 7.53327 4.10645 7.53327 4.09271 7.547Z"
        fill="url(#paint7_linear_15_49)"
      />
      <path
        opacity="0.3"
        d="M4.67133 7.04883C4.8462 7.11609 5.00763 7.1699 5.16906 7.23716C4.99418 7.1699 4.83275 7.10264 4.67133 7.04883Z"
        fill="url(#paint8_linear_15_49)"
      />
      <path
        opacity="0.3"
        d="M4.09271 7.54785C4.09999 7.70867 4.13174 7.86744 4.18688 8.01868C4.13174 7.86744 4.09999 7.70867 4.09271 7.54785Z"
        fill="url(#paint9_linear_15_49)"
      />
      <path
        opacity="0.3"
        d="M6.0836 7.61455L6.16432 7.65491C6.01634 7.58765 5.85491 7.52039 5.69348 7.45312C5.74729 7.48003 5.78765 7.49349 5.84146 7.52039C5.92434 7.54589 6.00527 7.57737 6.0836 7.61455Z"
        fill="url(#paint10_linear_15_49)"
      />
      <path
        d="M7.67083 12.3499C6.23144 11.193 4.87276 9.57874 4.29431 8.30078C5.63954 11.7042 9.13714 16.5335 12.2581 18.5245C12.3119 18.5649 12.5002 18.6725 12.6482 18.7532C13.0517 18.1344 13.7916 16.8564 13.536 15.1749C11.6124 14.9193 9.54071 13.87 7.67083 12.3499Z"
        fill="url(#paint11_linear_15_49)"
      />
      <path
        opacity="0.3"
        d="M5.58584 7.41306L5.30334 7.29199C5.31679 7.29199 5.33025 7.30544 5.3437 7.30544C5.41096 7.33235 5.49167 7.3727 5.58584 7.41306Z"
        fill="url(#paint12_linear_15_49)"
      />
      <path
        opacity="0.8"
        d="M7.67106 12.3495C9.54092 13.8696 11.6126 14.9054 13.5363 15.1611C13.2269 13.1566 11.5184 10.52 6.1644 7.65464C6.13621 7.64394 6.10917 7.63042 6.08369 7.61429C6.00298 7.57393 5.92226 7.54703 5.855 7.50667C5.80119 7.47977 5.76083 7.46632 5.70702 7.43941C5.66667 7.42595 5.62631 7.39905 5.59941 7.39905C5.51739 7.35963 5.4318 7.3281 5.34381 7.30489C5.33036 7.30489 5.31691 7.29143 5.30346 7.29143C5.26309 7.27798 5.22274 7.25108 5.18238 7.23762C5.02096 7.18382 4.85953 7.1031 4.68465 7.04929C4.37525 6.95513 4.20037 7.1031 4.13311 7.33179C4.12631 7.35826 4.12181 7.38527 4.11965 7.4125C4.1062 7.43941 4.11965 7.47977 4.11965 7.52012C4.11965 7.53358 4.11965 7.53358 4.1062 7.54703C4.11348 7.70785 4.14523 7.86661 4.20037 8.01785C4.23033 8.11417 4.26627 8.20852 4.30798 8.30036C4.87298 9.57832 6.24511 11.1926 7.67106 12.3495Z"
        fill="url(#paint13_linear_15_49)"
      />
      <path
        d="M7.67106 12.3495C9.54092 13.8696 11.6126 14.9054 13.5363 15.1611C13.2269 13.1566 11.5184 10.52 6.1644 7.65464C6.13621 7.64394 6.10917 7.63042 6.08369 7.61429C6.00298 7.57393 5.92226 7.54703 5.855 7.50667C5.80119 7.47977 5.76083 7.46632 5.70702 7.43941C5.66667 7.42595 5.62631 7.39905 5.59941 7.39905C5.51739 7.35963 5.4318 7.3281 5.34381 7.30489C5.33036 7.30489 5.31691 7.29143 5.30346 7.29143C5.26309 7.27798 5.22274 7.25108 5.18238 7.23762C5.02096 7.18382 4.85953 7.1031 4.68465 7.04929C4.37525 6.95513 4.20037 7.1031 4.13311 7.33179C4.12631 7.35826 4.12181 7.38527 4.11965 7.4125C4.1062 7.43941 4.11965 7.47977 4.11965 7.52012C4.11965 7.53358 4.11965 7.53358 4.1062 7.54703C4.11348 7.70785 4.14523 7.86661 4.20037 8.01785C4.23033 8.11417 4.26627 8.20852 4.30798 8.30036C4.87298 9.57832 6.24511 11.1926 7.67106 12.3495Z"
        fill="url(#paint14_linear_15_49)"
      />
      <path
        fill-rule="evenodd"
        clip-rule="evenodd"
        d="M24.8493 11.3944C27.3784 10.8697 28.6564 10.8966 29.2348 10.9773C29.3155 10.9908 29.329 11.1119 29.2617 11.1657C28.7102 11.2195 26.3963 11.5289 24.8628 12.0401C23.8957 12.3666 23.3977 12.8925 23.2811 13.0156C23.2728 13.0244 23.2664 13.0311 23.262 13.0355C23.2569 13.0431 23.2423 13.0598 23.2184 13.0871C23.1151 13.2049 22.8378 13.5212 22.401 14.1655C22.1454 14.5422 21.3383 15.6991 20.0334 16.1296C18.6747 16.5735 17.2219 15.8336 16.2802 14.9458C17.2387 14.5796 17.9904 13.4029 18.4659 12.6583C18.5844 12.4728 18.6858 12.3142 18.7689 12.2015C18.985 11.8917 19.2591 11.6267 19.5761 11.4213C19.9722 11.1547 20.4315 10.997 20.9078 10.9639C21.4593 10.9235 22.1454 11.0042 22.9526 11.2733C23.262 11.3675 23.6117 11.4616 23.9346 11.4885C24.2423 11.4972 24.5499 11.4656 24.8493 11.3944ZM22.1134 12.4467C22.1134 12.6695 21.9328 12.8502 21.7099 12.8502C21.487 12.8502 21.3063 12.6695 21.3063 12.4467C21.3063 12.2238 21.487 12.0431 21.7099 12.0431C21.9328 12.0431 22.1134 12.2238 22.1134 12.4467Z"
        fill="url(#paint15_linear_15_49)"
      />
    </g>
    <defs>
      <linearGradient
        id="paint0_linear_15_49"
        x1="29.7561"
        y1="16.7058"
        x2="4.58234"
        y2="18.7382"
        gradientUnits="userSpaceOnUse"
      >
        <stop offset="0.2986" stop-color="#0097CE" />
        <stop offset="0.3791" stop-color="#0999C5" />
        <stop offset="0.5119" stop-color="#229DAD" />
        <stop offset="0.6469" stop-color="#42A38F" />
        <stop offset="0.7352" stop-color="#5DAD82" />
        <stop offset="0.9239" stop-color="#A1C661" />
        <stop offset="1" stop-color="#BED153" />
      </linearGradient>
      <linearGradient
        id="paint1_linear_15_49"
        x1="3.3487"
        y1="10.1594"
        x2="27.7064"
        y2="16.8614"
        gradientUnits="userSpaceOnUse"
      >
        <stop offset="0.08199" stop-color="#3D65AF" />
        <stop offset="0.2305" stop-color="#2372B8" />
        <stop offset="0.5058" stop-color="#00B8BB" />
      </linearGradient>
      <linearGradient
        id="paint2_linear_15_49"
        x1="4.08296"
        y1="7.45054"
        x2="17.3144"
        y2="11.0912"
        gradientUnits="userSpaceOnUse"
      >
        <stop offset="0.1297" />
        <stop offset="0.3277" stop-color="#00334B" />
        <stop offset="0.5276" stop-color="#006190" />
        <stop offset="0.6723" stop-color="#007FBB" />
        <stop offset="0.7457" stop-color="#008ACC" />
      </linearGradient>
      <linearGradient
        id="paint3_linear_15_49"
        x1="4.86665"
        y1="35.0293"
        x2="17.2171"
        y2="35.0293"
        gradientUnits="userSpaceOnUse"
      >
        <stop offset="0.1297" />
        <stop offset="0.3277" stop-color="#00334B" />
        <stop offset="0.5276" stop-color="#006190" />
        <stop offset="0.6723" stop-color="#007FBB" />
        <stop offset="0.7457" stop-color="#008ACC" />
      </linearGradient>
      <linearGradient
        id="paint4_linear_15_49"
        x1="5.32957"
        y1="28.0871"
        x2="16.3077"
        y2="28.0871"
        gradientUnits="userSpaceOnUse"
      >
        <stop offset="0.1297" />
        <stop offset="0.3277" stop-color="#00334B" />
        <stop offset="0.5276" stop-color="#006190" />
        <stop offset="0.6723" stop-color="#007FBB" />
        <stop offset="0.7457" stop-color="#008ACC" />
      </linearGradient>
      <linearGradient
        id="paint5_linear_15_49"
        x1="5.46065"
        y1="10.1985"
        x2="16.6979"
        y2="13.2904"
        gradientUnits="userSpaceOnUse"
      >
        <stop offset="0.1297" stop-color="#2483C5" />
        <stop offset="0.1672" stop-color="#2486C7" />
        <stop offset="0.676" stop-color="#29B1DF" />
        <stop offset="0.9352" stop-color="#2BC2E8" />
      </linearGradient>
      <linearGradient
        id="paint6_linear_15_49"
        x1="3.9304"
        y1="147.981"
        x2="14.9086"
        y2="147.981"
        gradientUnits="userSpaceOnUse"
      >
        <stop offset="0.1297" />
        <stop offset="0.3277" stop-color="#00334B" />
        <stop offset="0.5276" stop-color="#006190" />
        <stop offset="0.6723" stop-color="#007FBB" />
        <stop offset="0.7457" stop-color="#008ACC" />
      </linearGradient>
      <linearGradient
        id="paint7_linear_15_49"
        x1="4.10124"
        y1="7.53373"
        x2="4.10125"
        y2="7.53374"
        gradientUnits="userSpaceOnUse"
      >
        <stop stop-color="#682C90" />
        <stop offset="0.496" stop-color="#817CB9" />
        <stop offset="1" stop-color="white" />
      </linearGradient>
      <linearGradient
        id="paint8_linear_15_49"
        x1="46.6706"
        y1="103.41"
        x2="20.953"
        y2="103.41"
        gradientUnits="userSpaceOnUse"
      >
        <stop stop-color="#682C90" />
        <stop offset="0.496" stop-color="#817CB9" />
        <stop offset="1" stop-color="white" />
      </linearGradient>
      <linearGradient
        id="paint9_linear_15_49"
        x1="12.0386"
        y1="251.331"
        x2="7.1731"
        y2="251.331"
        gradientUnits="userSpaceOnUse"
      >
        <stop stop-color="#682C90" />
        <stop offset="0.496" stop-color="#817CB9" />
        <stop offset="1" stop-color="white" />
      </linearGradient>
      <linearGradient
        id="paint10_linear_15_49"
        x1="45.4225"
        y1="110.888"
        x2="21.0951"
        y2="110.888"
        gradientUnits="userSpaceOnUse"
      >
        <stop stop-color="#682C90" />
        <stop offset="0.496" stop-color="#817CB9" />
        <stop offset="1" stop-color="white" />
      </linearGradient>
      <linearGradient
        id="paint11_linear_15_49"
        x1="3.25156"
        y1="12.0908"
        x2="13.9852"
        y2="15.0441"
        gradientUnits="userSpaceOnUse"
      >
        <stop offset="0.1297" stop-color="#3B67AD" />
        <stop offset="0.5697" stop-color="#227CAA" />
        <stop offset="0.9352" stop-color="#118AA8" />
      </linearGradient>
      <linearGradient
        id="paint12_linear_15_49"
        x1="29.1409"
        y1="69.2932"
        x2="14.5444"
        y2="69.2932"
        gradientUnits="userSpaceOnUse"
      >
        <stop stop-color="#682C90" />
        <stop offset="0.496" stop-color="#817CB9" />
        <stop offset="1" stop-color="white" />
      </linearGradient>
      <linearGradient
        id="paint13_linear_15_49"
        x1="-18.4138"
        y1="4338.25"
        x2="943.546"
        y2="4338.25"
        gradientUnits="userSpaceOnUse"
      >
        <stop offset="0.1297" />
        <stop offset="0.3277" stop-color="#00334B" />
        <stop offset="0.5276" stop-color="#006190" />
        <stop offset="0.6723" stop-color="#007FBB" />
        <stop offset="0.7457" stop-color="#008ACC" />
      </linearGradient>
      <linearGradient
        id="paint14_linear_15_49"
        x1="3.49154"
        y1="9.59761"
        x2="14.257"
        y2="12.5597"
        gradientUnits="userSpaceOnUse"
      >
        <stop offset="0.1297" stop-color="#3A67B0" />
        <stop offset="0.5622" stop-color="#357FBD" />
        <stop offset="0.9352" stop-color="#3290C6" />
      </linearGradient>
      <linearGradient
        id="paint15_linear_15_49"
        x1="17.1427"
        y1="11.733"
        x2="28.2772"
        y2="14.7966"
        gradientUnits="userSpaceOnUse"
      >
        <stop offset="0.1724" stop-color="#4E5CA8" />
        <stop offset="0.9937" stop-color="#1FC3F3" />
      </linearGradient>
      <clip-path id="clip0_15_49">
        <rect width="26" height="18.9091" fill="white" transform="translate(3 6.5459)" />
      </clip-path>
    </defs>
  </svg>
