
  <svg viewBox="0 0 32 32" fill="none" xmlns="http://www.w3.org/2000/svg">
    <path
      fill-rule="evenodd"
      clip-rule="evenodd"
      d="M25.5579 9.09325L25.9303 8.97305C26.1952 8.88753 25.8206 8.66125 25.5023 8.58118C25.4691 8.57312 25.4357 8.56512 25.4021 8.55712C25.1746 8.50263 24.9406 8.44663 24.7426 8.35125C24.5685 8.26718 24.3341 8.0268 24.1706 7.85902C24.1104 7.79725 24.0598 7.74533 24.0253 7.71467C23.6543 7.38663 23.186 7.18143 22.4091 7.3226C21.3534 7.52054 20.5247 8.13849 19.6706 8.77532C18.5588 9.60436 17.404 10.4655 15.6494 10.4738C14.5074 10.4808 12.7447 9.85174 10.8956 9.1918C7.60567 8.01772 4.04234 6.74604 3.21491 8.78587C2.75331 9.90367 3.80788 11.8113 6.13816 13.764C6.7611 14.2856 7.43844 14.7479 8.10261 15.2011C9.88221 16.4155 11.5674 17.5655 11.8583 19.6211C12.3661 23.2315 8.02896 24.9699 8.02896 24.9699C8.02896 24.9699 13.5052 24.9199 17.0148 21.9773C19.7188 19.7153 20.4708 17.3207 21.1987 15.0024C21.6059 13.7055 22.0056 12.4326 22.7353 11.2201C23.593 9.80077 24.8766 9.30408 25.5579 9.09325ZM23.1049 8.51449C23.1831 8.75677 23.0501 9.01656 22.8079 9.09477C22.5656 9.17298 22.3058 9.04001 22.2276 8.79774C22.1494 8.55546 22.2823 8.29567 22.5246 8.21746C22.7669 8.13925 23.0266 8.27222 23.1049 8.51449Z"
      fill="url(#paint0_linear_15_50)"
    />
    <path
      d="M11.3607 9.36298C10.4919 9.04946 9.59284 8.72747 8.72369 8.44147C8.52903 8.37636 8.33705 8.31953 8.1424 8.25443C5.82767 7.56702 3.80861 7.31418 3.21441 8.78546C2.75547 9.91146 3.81005 11.8191 6.14032 13.7718L6.21403 13.8303C7.42029 14.8208 10.6917 16.9997 16.1718 15.0933C16.4104 14.5867 16.7188 13.6737 17.1823 12.6468C15.4144 11.1339 13.139 10.0591 11.3607 9.36298Z"
      fill="url(#paint1_linear_15_50)"
    />
    <path
      d="M19.7763 16.406C19.5313 15.5621 19.1095 14.7935 18.5716 14.0898C17.8781 14.4326 17.0911 14.7689 16.1722 15.093C15.726 16.0322 14.8119 18.4658 12.8158 21.0294C10.1625 24.4449 8.02881 24.9693 8.02881 24.9693C8.02881 24.9693 13.5024 24.911 17.0147 21.9767C18.2733 20.9214 19.1114 19.8375 19.7102 18.7486C19.8164 18.5681 20.1467 17.6663 19.7763 16.406Z"
      fill="url(#paint2_linear_15_50)"
    />
    <path
      d="M17.174 12.6494C16.7189 13.6737 16.4022 14.5893 16.1636 15.0959C17.0852 14.78 17.8805 14.441 18.5631 14.0927C18.4028 13.8794 18.2287 13.6798 18.0463 13.4827C17.7795 13.1942 17.4878 12.9137 17.174 12.6494Z"
      fill="url(#paint3_linear_15_50)"
    />
    <path
      d="M20.3363 8.29297C18.9936 9.22918 17.7497 10.4715 15.6429 10.4846C14.6032 10.4913 13.035 9.9649 11.3604 9.36331C13.1413 10.0677 15.4166 11.1426 17.1736 12.6498C17.8535 11.1326 18.8355 9.36242 20.3363 8.29297Z"
      fill="url(#paint4_linear_15_50)"
    />
    <path
      d="M18.5712 14.0906C19.1174 14.7916 19.531 15.5628 19.776 16.4067C20.1463 17.6671 19.8051 18.5632 19.7098 18.7493C21.1312 16.1885 21.2987 13.5938 22.7265 11.2228C22.9947 10.7798 23.3006 10.4251 23.614 10.1504C22.4992 11.1134 21.4367 12.6628 18.5712 14.0906Z"
      fill="url(#paint5_linear_15_50)"
    />
    <path
      d="M12.8153 21.0294C14.8115 18.4658 15.7256 16.0322 16.1717 15.093C10.7 16.9968 7.42024 14.8206 6.21399 13.8301C8.49539 15.7164 11.4606 16.8335 11.8578 19.6205C12.3711 23.2199 8.02842 24.9693 8.02842 24.9693C8.02842 24.9693 10.1621 24.4449 12.8153 21.0294Z"
      fill="url(#paint6_linear_15_50)"
    />
    <path
      fill-rule="evenodd"
      clip-rule="evenodd"
      d="M25.5015 8.58061C25.8281 8.65799 26.2028 8.88426 25.9297 8.97247L25.5489 9.09536C25.0854 9.24502 24.3265 9.52661 23.6221 10.147C23.3411 10.3887 23.0639 10.6668 22.7613 10.9705C21.8546 11.8805 20.7197 13.0194 18.571 14.0899C18.4108 13.8766 18.2367 13.677 18.0543 13.48C17.7874 13.1914 17.4876 12.9136 17.1821 12.6467C17.8593 11.1212 18.8414 9.35102 20.3421 8.28157C20.9761 7.8393 21.6314 7.4632 22.4083 7.32203C23.1826 7.17258 23.651 7.37777 24.0245 7.71408C24.0591 7.74475 24.1097 7.79668 24.1699 7.85843C24.3334 8.02622 24.5678 8.26661 24.7419 8.35068C24.931 8.4475 25.1485 8.49805 25.3632 8.54792C25.4096 8.55874 25.4558 8.56943 25.5015 8.58061ZM23.1043 8.51399C23.1825 8.75626 23.0495 9.01605 22.8072 9.09426C22.565 9.17247 22.3052 9.0395 22.227 8.79723C22.1488 8.55502 22.2818 8.29523 22.524 8.21702C22.7663 8.13881 23.0261 8.27178 23.1043 8.51399Z"
      fill="url(#paint7_linear_15_50)"
    />
    <defs>
      <linearGradient
        id="paint0_linear_15_50"
        x1="5.45609"
        y1="16.9915"
        x2="26.4493"
        y2="10.2135"
        gradientUnits="userSpaceOnUse"
      >
        <stop stop-color="#2A59A2" />
        <stop offset="1" stop-color="#2A59A2" />
      </linearGradient>
      <linearGradient
        id="paint1_linear_15_50"
        x1="3.43996"
        y1="13.6542"
        x2="25.6461"
        y2="6.48461"
        gradientUnits="userSpaceOnUse"
      >
        <stop stop-color="#91D3F2" />
        <stop offset="0.266" stop-color="#6FB2DE" />
        <stop offset="0.521" stop-color="#5598CE" />
        <stop offset="0.673" stop-color="#4B8FC8" />
      </linearGradient>
      <linearGradient
        id="paint2_linear_15_50"
        x1="7.04585"
        y1="21.9152"
        x2="28.1938"
        y2="15.0872"
        gradientUnits="userSpaceOnUse"
      >
        <stop stop-color="#2C9EC7" />
        <stop offset="0.404" stop-color="#2C63A5" />
        <stop offset="1" stop-color="#395DA1" />
      </linearGradient>
      <linearGradient
        id="paint3_linear_15_50"
        x1="5.60197"
        y1="17.4464"
        x2="26.7499"
        y2="10.6185"
        gradientUnits="userSpaceOnUse"
      >
        <stop stop-color="#4FAAC4" />
        <stop offset="0.002" stop-color="#2F75B1" />
        <stop offset="1" stop-color="#356EAC" />
      </linearGradient>
      <linearGradient
        id="paint4_linear_15_50"
        x1="12.1184"
        y1="11.7001"
        x2="25.8071"
        y2="7.28042"
        gradientUnits="userSpaceOnUse"
      >
        <stop stop-color="#4FAAC4" />
        <stop offset="0.002" stop-color="#2F81B6" />
        <stop offset="1" stop-color="#3B5EA9" />
      </linearGradient>
      <linearGradient
        id="paint5_linear_15_50"
        x1="13.8219"
        y1="16.9805"
        x2="27.5106"
        y2="12.5609"
        gradientUnits="userSpaceOnUse"
      >
        <stop stop-color="#4FAAC4" />
        <stop offset="0.002" stop-color="#1E3773" />
        <stop offset="1" stop-color="#203370" />
      </linearGradient>
      <linearGradient
        id="paint6_linear_15_50"
        x1="4.03275"
        y1="20.394"
        x2="19.6101"
        y2="15.3646"
        gradientUnits="userSpaceOnUse"
      >
        <stop offset="0.112" stop-color="#38B1DA" />
        <stop offset="1" stop-color="#326FB5" />
      </linearGradient>
      <linearGradient
        id="paint7_linear_15_50"
        x1="23.0532"
        y1="15.271"
        x2="20.6112"
        y2="7.70743"
        gradientUnits="userSpaceOnUse"
      >
        <stop stop-color="#4FAAC4" />
        <stop offset="0.002" stop-color="#2C5A9A" />
        <stop offset="1" stop-color="#374580" />
      </linearGradient>
    </defs>
  </svg>
