
  <svg style="position: absolute; width: 100%; height: 100%;" viewBox="0 0 19 18" fill="none" xmlns="http://www.w3.org/2000/svg">
    <path
      d="M1.7526 0.50099C1.62101 0.51162 1.48827 0.540636 1.37458 0.611022C1.20519 0.717032 1.07302 0.881074 1.01135 1.07327C0.990883 1.12757 0.976672 1.18445 0.973545 1.24277C0.972693 1.25455 0.971272 1.27782 0.970703 1.28931C1.00571 1.40113 1.00326 1.51743 1.00082 1.63329C1.00005 1.66984 0.999285 1.70635 0.999694 1.74266C0.999599 2.64922 0.999694 3.55575 0.999789 4.46227C0.999978 6.27539 1.00017 8.08847 0.998841 9.90168C0.998489 9.94384 0.999478 9.98615 1.00047 10.0285C1.00348 10.1573 1.00649 10.2863 0.97184 10.4119C0.972396 10.424 0.972953 10.4482 0.973242 10.4608L0.973261 10.4616C0.978661 10.5702 1.01646 10.6751 1.0662 10.7707C1.15403 10.9342 1.29472 11.0686 1.46355 11.1436C1.52806 11.1701 1.59543 11.1907 1.66506 11.1994C1.76787 11.2009 1.87067 11.1981 1.97348 11.1952C2.00511 11.1944 2.03674 11.1935 2.06837 11.1928C2.06728 11.0544 2.06928 10.9159 2.07128 10.7775C2.07398 10.5906 2.07668 10.4037 2.07178 10.2168C2.0664 10.0265 2.06906 9.83608 2.07173 9.6457C2.07455 9.44421 2.07737 9.24273 2.07065 9.04125C2.06718 8.8615 2.06947 8.68169 2.07176 8.50187C2.07435 8.2986 2.07695 8.09529 2.07121 7.89209C2.06576 7.7081 2.06863 7.52419 2.0715 7.34027C2.07446 7.15028 2.07742 6.96029 2.07121 6.77022C2.06578 6.58233 2.06862 6.39445 2.07145 6.20656C2.0741 6.03074 2.07676 5.85492 2.07264 5.6791C2.06752 5.44869 2.06638 5.21828 2.07264 4.98816C2.077 4.81759 2.07425 4.64709 2.07151 4.47663C2.06871 4.30285 2.06591 4.1291 2.07065 3.95536C2.07728 3.74618 2.07445 3.537 2.07163 3.32783C2.06877 3.11555 2.06591 2.90327 2.07292 2.691C2.07746 2.529 2.0746 2.36693 2.07175 2.20489C2.06834 2.01176 2.06494 1.81866 2.07406 1.62573L2.08997 1.62343C2.20537 1.60361 2.32304 1.60131 2.43985 1.60504C3.00243 1.60562 3.565 1.60568 4.12749 1.60575L4.97114 1.60591C5.27193 1.58995 5.57298 1.59113 5.87403 1.5923C6.0176 1.59286 6.16117 1.59341 6.30472 1.59212C6.57006 1.59212 6.83543 1.59221 7.10081 1.5923C7.76435 1.59254 8.42807 1.59277 9.09152 1.59154C9.39034 1.57984 9.68943 1.58117 9.98851 1.58251C10.1153 1.58307 10.2421 1.58364 10.3688 1.58321C11.0037 1.58212 11.6386 1.58243 12.2735 1.58274C13.3192 1.58325 14.3649 1.58376 15.4104 1.57804C15.4311 1.37579 15.4064 1.1767 15.3569 0.981051L15.3555 0.973294C15.2836 0.850334 15.185 0.74375 15.0673 0.664458C14.8908 0.54236 14.6751 0.497255 14.4639 0.500128C12.4462 0.500675 10.4285 0.500571 8.41078 0.500467C6.19134 0.500352 3.97193 0.500238 1.7526 0.50099Z"
      fill="currentColor"
    />
    <path
      d="M3.43322 2.27307C3.34341 2.26388 3.25672 2.30209 3.17799 2.34145C3.00945 2.43223 2.87444 2.58047 2.79713 2.75716C2.7653 2.83042 2.74285 2.90885 2.73688 2.989L2.73602 3.01342L2.74209 3.04768C2.75158 3.10064 2.76111 3.15375 2.76274 3.20763C2.76154 4.75899 2.76177 6.31043 2.762 7.86187C2.7622 9.24107 2.76241 10.6207 2.7616 11.9998C2.75789 12.0453 2.74927 12.0902 2.74066 12.135L2.73489 12.1653C2.73517 12.1846 2.73631 12.2225 2.73688 12.2414C2.74654 12.336 2.78008 12.4273 2.82271 12.5118C2.90002 12.6626 3.02337 12.7876 3.16975 12.8706L3.22773 12.895C3.26836 12.8981 3.309 12.9017 3.34966 12.9053C3.50212 12.9186 3.6548 12.932 3.80783 12.92C3.81743 12.7143 3.81636 12.5084 3.81528 12.3026C3.8147 12.1916 3.81412 12.0806 3.81522 11.9697C3.81463 10.7739 3.81478 9.57807 3.81492 8.38224V8.38154C3.81513 6.70773 3.81534 5.0339 3.81351 3.36018C4.2149 3.35877 4.61632 3.35952 5.01774 3.36027C5.68424 3.36151 6.35073 3.36275 7.01699 3.35414C7.70642 3.3521 8.39576 3.35255 9.08507 3.353C9.65547 3.35338 10.2259 3.35375 10.7963 3.35271C11.1106 3.32865 11.4254 3.33099 11.7402 3.33332C11.8992 3.3345 12.0582 3.33568 12.2171 3.33346C13.161 3.33531 14.1049 3.33312 15.0489 3.33093C15.7165 3.32938 16.3841 3.32783 17.0518 3.32771C17.0633 3.32493 17.0773 3.32467 17.0918 3.32441C17.1266 3.32378 17.1638 3.32311 17.1748 3.28721C17.1865 3.22703 17.193 3.16597 17.1996 3.10494C17.203 3.07365 17.2063 3.04227 17.2104 3.01112C17.201 2.92091 17.1726 2.83386 17.1331 2.75285C17.0538 2.6026 16.9307 2.4782 16.7877 2.38971C16.6672 2.3222 16.5342 2.26675 16.3938 2.27106C16.2856 2.30298 16.174 2.2999 16.0627 2.29684C16.0218 2.29571 15.9809 2.29458 15.9402 2.2952C14.0428 2.29639 12.1454 2.29611 10.2479 2.29584C8.03422 2.29552 5.82051 2.2952 3.60688 2.29721C3.55815 2.2941 3.51019 2.28601 3.46221 2.27792L3.43322 2.27307Z"
      fill="currentColor"
    />
    <path
      d="M11.6709 6.5095C11.6313 6.48584 11.5891 6.46069 11.5481 6.49296C11.4814 6.53058 11.4155 6.56987 11.3497 6.60918C11.2717 6.6557 11.1936 6.70232 11.1141 6.74607C11.0993 6.75472 11.0697 6.77196 11.055 6.78083C10.8879 6.88023 10.7199 6.97848 10.5511 7.07473C10.3969 7.16419 10.2431 7.25421 10.0892 7.34425C9.86263 7.47682 9.63587 7.6095 9.40823 7.74038C9.38691 7.7556 9.36644 7.77169 9.34683 7.78893C9.37478 7.82694 9.4159 7.85071 9.45619 7.874L9.47047 7.8823C9.64498 7.98026 9.81751 8.08225 9.99003 8.18453C10.0681 8.23079 10.1465 8.27652 10.225 8.32227C10.3106 8.37224 10.3964 8.42228 10.4817 8.47296L10.4912 8.47819C10.5242 8.49628 10.5573 8.51445 10.5897 8.53358L10.6123 8.5469C10.7736 8.64214 10.9347 8.73728 11.0974 8.83006C11.2273 8.90419 11.3566 8.97917 11.4842 9.05731C11.543 9.09753 11.611 9.13948 11.6732 9.07771C11.6817 9.07265 11.6902 9.0677 11.6988 9.06272L11.7155 9.053C11.8148 8.99207 11.9155 8.93374 12.0162 8.87541C12.0863 8.83476 12.1566 8.79402 12.2263 8.7525C12.6077 8.52726 12.9906 8.3049 13.374 8.0834C13.4136 8.06082 13.4529 8.03791 13.4923 8.01499C13.5561 7.97788 13.62 7.94068 13.6846 7.90499C13.7378 7.87339 13.7912 7.84121 13.8395 7.80157C13.8241 7.7669 13.7918 7.74782 13.7603 7.72922C13.7506 7.72346 13.7409 7.71776 13.7318 7.71165C13.6102 7.64356 13.4894 7.57403 13.3697 7.50193C13.3032 7.46228 13.2364 7.42321 13.1693 7.385C13.0437 7.31346 12.9192 7.2402 12.795 7.16637C12.6197 7.06278 12.4438 6.9604 12.268 6.85803C12.0801 6.74869 11.8918 6.63908 11.7047 6.5283C11.6937 6.52313 11.6824 6.51637 11.6709 6.5095Z"
      fill="currentColor"
    />
    <path
      d="M9.11658 8.20401C9.20611 8.24911 9.2928 8.29996 9.37863 8.35196C9.47243 8.40913 9.56821 8.46343 9.66456 8.51658C9.70944 8.54324 9.75446 8.56977 9.7995 8.59632C9.85046 8.62635 9.90183 8.65663 9.95276 8.68694L10.0702 8.75587C10.2236 8.84601 10.3772 8.93621 10.5323 9.02365C10.5687 9.04433 10.6051 9.0653 10.6414 9.08685C10.7788 9.17006 10.9179 9.25042 11.057 9.33081L11.1181 9.36609L11.1608 9.39067C11.2271 9.4288 11.2935 9.46702 11.36 9.50485C11.3759 9.73079 11.373 9.95747 11.3701 10.1842C11.3686 10.3005 11.3671 10.4168 11.3682 10.5331C11.3727 10.9482 11.3706 11.3634 11.3685 11.7786L11.3676 11.9448C11.3655 11.9912 11.3628 12.0377 11.3601 12.0846L11.3597 12.0928C11.2787 12.0488 11.1977 12.0046 11.1178 11.9586L11.0632 11.9264C10.9447 11.8551 10.8253 11.7855 10.7058 11.716C10.643 11.6795 10.5802 11.6429 10.5175 11.6061C10.2394 11.4475 9.96313 11.2856 9.68677 11.1237C9.59962 11.0726 9.51247 11.0216 9.42524 10.9706C9.38959 10.9479 9.35245 10.9274 9.31533 10.907C9.24976 10.8709 9.18426 10.8348 9.12709 10.7862C9.11165 10.7123 9.11306 10.6369 9.11447 10.5617C9.11501 10.5331 9.11555 10.5046 9.11516 10.4762C9.1165 10.0776 9.11627 9.67901 9.11605 9.28039C9.11584 8.92165 9.11563 8.56285 9.11658 8.20401Z"
      fill="currentColor"
    />
    <path
      d="M14.0695 8.2066C14.0325 8.22642 13.9962 8.24624 13.9598 8.26664C13.5849 8.48441 13.2103 8.70275 12.8362 8.92195C12.7419 8.97854 12.6464 9.03399 12.55 9.08714C12.4525 9.14402 12.3556 9.20119 12.2587 9.25836C12.116 9.34311 11.9731 9.42729 11.8284 9.50831C11.8262 9.75767 11.8265 10.007 11.8267 10.2564C11.8269 10.436 11.8271 10.6155 11.8264 10.7951C11.8265 10.9394 11.8263 11.0837 11.8261 11.228C11.8257 11.5168 11.8254 11.8056 11.8273 12.0945C12.0597 11.9711 12.2863 11.8367 12.5128 11.7024C12.596 11.653 12.6792 11.6037 12.7626 11.555C12.8468 11.5053 12.9317 11.457 13.0176 11.4102C13.0721 11.3786 13.1264 11.3463 13.1807 11.3141C13.2435 11.2767 13.3063 11.2394 13.3697 11.203C13.559 11.0898 13.75 10.9795 13.9413 10.8701C13.9854 10.8445 14.0291 10.8186 14.0726 10.7919C14.0717 10.4563 14.0721 10.1205 14.0725 9.78481C14.0732 9.25878 14.0738 8.73269 14.0695 8.2066Z"
      fill="currentColor"
    />
    <path
      fill-rule="evenodd"
      clip-rule="evenodd"
      d="M4.90662 4.1142C5.01633 4.04295 5.14736 4.01652 5.27583 4.00733C5.51521 4.01865 5.75468 4.01535 5.99424 4.01204C6.17395 4.00956 6.35371 4.00708 6.53352 4.01077C6.73574 4.01315 6.93803 4.0122 7.14032 4.01126C7.4023 4.01003 7.6643 4.0088 7.92621 4.0148C8.24065 4.00818 8.55509 4.01013 8.86953 4.01208C9.0195 4.01301 9.1695 4.01394 9.31947 4.01394C9.55737 4.00744 9.79527 4.00957 10.0332 4.0117C10.2691 4.01381 10.505 4.01592 10.7409 4.00963L10.7709 4.00987C11.1778 4.01325 11.5845 4.01661 11.9912 4.00876C12.2622 4.01639 12.5332 4.01413 12.8044 4.01187C13.0542 4.00979 13.304 4.00771 13.5538 4.01336C13.6947 4.01653 13.8356 4.01401 13.9766 4.01148C14.129 4.00874 14.2815 4.00601 14.4341 4.01049C14.6614 4.01796 14.8889 4.01516 15.1163 4.01235C15.3438 4.00955 15.5712 4.00675 15.7986 4.01422C16.1523 4.01014 16.506 4.01077 16.8596 4.0114C17.2767 4.01214 17.6938 4.01289 18.1108 4.00589C18.2418 4.02083 18.3728 4.04985 18.4916 4.10932C18.6497 4.19148 18.7858 4.3176 18.8773 4.47187C18.9237 4.56295 18.9612 4.66034 18.9706 4.76319L18.9649 4.79765C18.9559 4.8516 18.947 4.90555 18.9444 4.96027C18.9455 6.48376 18.9453 8.00725 18.9452 9.53073C18.945 10.8514 18.9449 12.1721 18.9455 13.4928C18.9455 13.5216 18.9449 13.5506 18.9443 13.5796C18.9419 13.6934 18.9395 13.808 18.9703 13.9185C18.9751 14.0277 18.9393 14.1326 18.8895 14.2279C18.8003 14.3911 18.659 14.5244 18.495 14.6089C18.4001 14.6528 18.3006 14.6867 18.1975 14.7043C17.8353 14.6988 17.473 14.6999 17.1107 14.701C16.7296 14.7021 16.3485 14.7033 15.9674 14.6968C15.859 14.697 15.7506 14.6985 15.6422 14.7C15.4396 14.7029 15.2368 14.7058 15.0341 14.7C14.8605 14.695 14.6869 14.6977 14.5133 14.7003C14.3447 14.7029 14.1758 14.7055 14.0072 14.7011L13.9692 14.7002C13.8505 14.6972 13.7314 14.6941 13.6129 14.7043L13.6053 14.7267C13.5908 14.7703 13.5786 14.8146 13.5672 14.8594C13.5214 15.0349 13.4831 15.2122 13.4518 15.3909C13.4194 15.5805 13.406 15.7776 13.4535 15.9658C13.5092 16.2036 13.7167 16.3639 13.9335 16.445C14.1288 16.5173 14.3354 16.5518 14.5412 16.5771C14.567 16.5804 14.5927 16.584 14.6185 16.5876C14.6754 16.5955 14.7323 16.6035 14.7896 16.6084C14.9834 16.6707 15.1881 16.6695 15.3899 16.6684C15.4219 16.6683 15.4539 16.6681 15.4857 16.6682C15.568 16.6689 15.6502 16.6687 15.7325 16.6686C15.8798 16.6683 16.0272 16.668 16.1744 16.6728C16.1833 16.9406 16.1794 17.2091 16.1755 17.4772L16.1752 17.4941C15.7258 17.5014 15.2762 17.5003 14.8266 17.4992C14.5162 17.4984 14.2057 17.4976 13.8955 17.4996C12.9796 17.4989 12.0637 17.4991 11.1478 17.4993C9.68222 17.4996 8.21665 17.4999 6.75123 17.4967C6.7464 17.2218 6.74612 16.9466 6.75152 16.6716C6.93685 16.667 7.12227 16.6678 7.30768 16.6685C7.44756 16.6691 7.58743 16.6696 7.72725 16.6679C7.74708 16.6668 7.76699 16.6659 7.78693 16.665C7.9174 16.6589 8.04965 16.6528 8.17292 16.6064C8.23743 16.5952 8.30195 16.5857 8.36732 16.5814C8.53246 16.5725 8.69617 16.5446 8.85846 16.5116C9.04349 16.4688 9.22824 16.4131 9.39593 16.3211C9.53719 16.2413 9.6594 16.1232 9.72705 15.9729C9.75348 15.9172 9.77224 15.8583 9.78673 15.7985C9.8624 15.4395 9.7698 15.0754 9.68136 14.7277L9.6756 14.7051C9.18802 14.7003 8.7005 14.7009 8.21302 14.7015C7.73892 14.7021 7.26481 14.7026 6.79074 14.6982C6.52927 14.7051 6.26774 14.703 6.0062 14.7008C5.73468 14.6986 5.46315 14.6964 5.1917 14.7043C5.08085 14.6887 4.97171 14.6514 4.87707 14.5905C4.74178 14.4991 4.63121 14.371 4.56385 14.2208C4.52804 14.1406 4.50161 14.0547 4.49734 13.9665C4.49706 13.9542 4.49621 13.9292 4.49564 13.9168C4.53197 13.7889 4.52886 13.657 4.52578 13.5256C4.52485 13.4863 4.52393 13.4471 4.52406 13.408C4.52389 11.8004 4.52403 10.1929 4.52416 8.58537V8.5809C4.52425 7.50821 4.52434 6.43551 4.52434 5.36276C4.52314 5.30953 4.52415 5.2561 4.52516 5.20265C4.52773 5.06629 4.53031 4.92984 4.49621 4.79651L4.49734 4.74624C4.5036 4.65775 4.53173 4.57243 4.56755 4.49198C4.64031 4.33541 4.75798 4.20096 4.90662 4.1142ZM13.0428 5.11598C12.4879 5.12475 11.9328 5.12376 11.3776 5.12276C11.0604 5.12219 10.7431 5.12162 10.426 5.12287C9.78724 5.12092 9.14844 5.12375 8.50964 5.12657C7.55145 5.13081 6.59326 5.13505 5.63537 5.12316L5.59558 5.14844C5.57938 5.18895 5.56489 5.23118 5.56687 5.276C5.56676 6.36245 5.56683 7.44894 5.5669 8.53545V8.54048C5.567 10.1725 5.5671 11.8045 5.56659 13.4365C5.56886 13.4896 5.57739 13.5425 5.58734 13.595C5.70589 13.6141 5.82567 13.6124 5.94544 13.6108C5.99939 13.6101 6.05335 13.6094 6.10718 13.6106C8.4323 13.6104 10.7574 13.6105 13.0826 13.6107C14.6328 13.6107 16.1833 13.6108 17.7336 13.6108C17.7831 13.608 17.8322 13.5999 17.8814 13.591C17.9068 13.4921 17.9049 13.3901 17.903 13.2888C17.9027 13.2701 17.9023 13.2514 17.9022 13.2328C17.9016 11.9878 17.9019 10.7428 17.9022 9.49777C17.9025 8.0618 17.9028 6.62575 17.9019 5.1901L17.8825 5.11598L17.8831 5.10822C16.4597 5.1176 15.036 5.11691 13.6124 5.11623L13.0428 5.11598Z"
      fill="currentColor"
    />
  </svg>
