
  <svg width="94" height="74" viewBox="0 0 94 74" fill="none" xmlns="http://www.w3.org/2000/svg">
    <path
      d="M7.09287 1.04734C7.64225 0.942885 8.20323 0.908065 8.76228 0.902262C34.4263 0.902262 60.0904 0.902262 85.7545 0.902262C87.9849 0.851966 90.2133 1.80177 91.6932 3.47312C93.0086 4.92007 93.7146 6.87578 93.6817 8.82761C93.6817 26.2413 93.6817 43.6551 93.6817 61.0668C93.7146 63.0168 93.0086 64.9705 91.6951 66.4175C90.2172 68.0908 87.9887 69.0406 85.7603 68.9941C60.0923 68.9941 34.4244 68.9941 8.75648 68.9941C6.80464 69.027 4.84893 68.319 3.40198 67.0036C1.7287 65.5238 0.776962 63.2934 0.829191 61.063C0.834995 43.5255 0.817585 25.986 0.838863 8.44653C0.856273 4.91233 3.62057 1.66636 7.09287 1.04734ZM6.80464 4.34748C5.17005 5.00325 3.98618 6.65912 3.93588 8.42525C3.90493 10.0444 3.93395 11.6635 3.92428 13.2826C32.8111 13.2826 61.6998 13.2826 90.5867 13.2826C90.5673 11.5977 90.6234 9.91283 90.5596 8.22988C90.4145 5.90663 88.277 3.95092 85.9518 4.00121C60.5411 3.99154 35.1305 4.00122 9.71982 3.99541C8.74294 3.99348 7.71962 3.94125 6.80464 4.34748ZM3.92428 16.3777C3.92621 31.3366 3.92041 46.2956 3.92815 61.2564C3.86238 63.7364 6.0889 65.9551 8.5669 65.8952C34.2987 65.9049 60.0304 65.8952 85.7603 65.899C87.6115 65.9764 89.4376 64.8583 90.1746 63.1541C90.666 62.1424 90.5886 60.9914 90.5867 59.9004C90.5867 45.3922 90.5867 30.8859 90.5867 16.3777C61.6998 16.3777 32.8111 16.3777 3.92428 16.3777Z"
      fill="#312E81"
    />
    <path
      d="M47.2554 8.64C47.2554 7.78531 47.9482 7.09245 48.8029 7.09245C60.1516 7.09245 71.5002 7.09245 82.8489 7.09245C83.7035 7.09245 84.3964 7.78531 84.3964 8.64C84.3964 9.49468 83.7035 10.1875 82.8489 10.1875C71.5002 10.1875 60.1516 10.1875 48.8029 10.1875C47.9482 10.1875 47.2554 9.49468 47.2554 8.64Z"
      fill="#312E81"
    />
    <path
      d="M19.6179 22.9838C19.5632 22.5685 19.7946 22.1683 20.1817 22.0083C22.271 21.1447 24.3613 20.2817 26.4493 19.4115C26.8359 19.2504 27.2826 19.3684 27.5379 19.7004C28.1413 20.4849 28.742 21.2721 29.3448 22.0573C29.5405 22.3122 29.8544 22.4454 30.1748 22.4201C31.2429 22.3359 32.3168 22.336 33.3838 22.4203C33.7028 22.4455 34.0157 22.3136 34.2113 22.0603C34.8183 21.2745 35.4199 20.4854 36.0243 19.6973C36.2786 19.3659 36.7236 19.2466 37.1098 19.4058C39.2031 20.2684 41.2947 21.1308 43.3827 22.0053C43.7686 22.1669 43.9975 22.5677 43.9419 22.9824C43.8105 23.9636 43.6814 24.945 43.5527 25.9272C43.5108 26.2472 43.6398 26.5647 43.8855 26.774C44.6976 27.4655 45.451 28.2248 46.144 29.0354C46.3531 29.2801 46.6703 29.407 46.9894 29.3651C47.9689 29.2366 48.9498 29.1138 49.9287 28.9806C50.3469 28.9237 50.752 29.1541 50.914 29.5438C51.7815 31.631 52.6456 33.7203 53.5117 35.8075C53.6714 36.1923 53.5546 36.6366 53.2247 36.8913C52.438 37.4987 51.6465 38.1 50.8584 38.7062C50.6049 38.9011 50.4724 39.2135 50.497 39.5324C50.5793 40.598 50.5802 41.6696 50.4961 42.7363C50.471 43.0554 50.6028 43.3683 50.8562 43.5638C51.6427 44.1708 52.4338 44.7725 53.2226 45.378C53.5543 45.6325 53.6729 46.0782 53.5128 46.4645C52.6466 48.5538 51.7814 50.6431 50.9139 52.7325C50.752 53.1224 50.3467 53.353 49.9283 53.2961C48.9494 53.1628 47.9684 53.0401 46.9887 52.9115C46.67 52.8697 46.3532 52.9963 46.144 53.2405C45.4491 54.0514 44.6949 54.8097 43.8828 55.5035C43.6385 55.7122 43.5104 56.0284 43.552 56.3471C43.6803 57.3292 43.8112 58.3121 43.9425 59.2943C43.998 59.709 43.7684 60.1094 43.3824 60.2708C41.2949 61.1435 39.2047 62.0108 37.1119 62.8716C36.7256 63.0305 36.2808 62.9107 36.0268 62.5792C35.4227 61.791 34.8196 61.0011 34.2133 60.2152C34.0176 59.9616 33.7045 59.8294 33.3851 59.8546C32.3171 59.9389 31.2441 59.9389 30.1761 59.8547C29.8561 59.8294 29.5424 59.9622 29.3469 60.2168C28.7429 61.0031 28.1425 61.7929 27.538 62.5788C27.2828 62.9106 26.8361 63.0282 26.4498 62.8669C24.3623 61.9952 22.2733 61.1309 20.1818 60.2685C19.7937 60.1085 19.5618 59.7073 19.617 59.2912C19.7475 58.3086 19.8784 57.3267 20.0077 56.345C20.0495 56.0274 19.923 55.712 19.6799 55.5034C18.8688 54.8073 18.1097 54.051 17.415 53.2385C17.2073 52.9955 16.8933 52.8675 16.5763 52.9089C15.5883 53.0383 14.6032 53.1811 13.6154 53.3074C13.2049 53.3599 12.8116 53.1293 12.6527 52.7472C11.7836 50.656 10.9178 48.5625 10.05 46.47C9.88952 46.083 10.0088 45.6363 10.3415 45.3816C11.1278 44.7796 11.9152 44.1802 12.7003 43.5779C12.9555 43.382 13.0886 43.0675 13.0631 42.7468C12.9778 41.6777 12.9778 40.6038 13.0632 39.5358C13.0887 39.2161 12.9566 38.9025 12.7027 38.7065C11.917 38.1 11.1295 37.4982 10.3418 36.895C10.0091 36.6402 9.88936 36.1936 10.0497 35.8065C10.9163 33.7135 11.7822 31.6196 12.6529 29.5281C12.8117 29.1466 13.2042 28.9164 13.614 28.9687C14.6019 29.0947 15.5871 29.2393 16.5753 29.3681C16.8928 29.4095 17.2071 29.2804 17.4147 29.0367C18.107 28.2241 18.8666 27.4694 19.6785 26.7752C19.9223 26.5667 20.0495 26.2508 20.0076 25.9326C19.8783 24.9494 19.7474 23.9669 19.6179 22.9838ZM23.5677 23.9546C23.1786 24.1139 22.9439 24.5145 22.9984 24.9314C23.1007 25.7145 23.2056 26.4969 23.3085 27.2792C23.3542 27.627 23.1974 27.969 22.9127 28.1739C21.3378 29.3074 19.9537 30.6913 18.821 32.2671C18.6141 32.5549 18.2677 32.7117 17.9165 32.6638C17.1345 32.557 16.3526 32.4544 15.5706 32.3534C15.1565 32.3 14.7581 32.5307 14.5981 32.9162C14.3379 33.543 14.0778 34.1698 13.8183 34.7972C13.6586 35.1832 13.7776 35.6282 14.109 35.8825C14.7356 36.3633 15.3638 36.8422 15.9902 37.3241C16.2685 37.538 16.3987 37.8911 16.3416 38.2374C16.0249 40.1571 16.0236 42.1198 16.34 44.0408C16.3969 44.3864 16.2674 44.7387 15.9901 44.9525C15.3641 45.4353 14.7356 45.914 14.1085 46.3948C13.7773 46.6487 13.6582 47.0934 13.8177 47.4791C14.0765 48.1051 14.3365 48.7311 14.5953 49.3571C14.755 49.7433 15.1533 49.9753 15.5678 49.9223C16.351 49.8221 17.1341 49.7197 17.9165 49.613C18.2677 49.565 18.6141 49.7219 18.821 50.0097C19.9537 51.5852 21.3378 52.9677 22.9126 54.1009C23.1974 54.3058 23.3542 54.6478 23.3085 54.9957C23.2057 55.7774 23.1006 56.5593 22.9976 57.3419C22.9426 57.7595 23.1775 58.161 23.5674 58.3205C24.1928 58.5763 24.8171 58.8356 25.4412 59.0948C25.8297 59.2561 26.2779 59.1349 26.5333 58.8007C27.0101 58.1768 27.4892 57.5547 27.9674 56.9323C28.1819 56.6532 28.5356 56.5216 28.8829 56.5786C30.8019 56.8934 32.7626 56.8931 34.6815 56.5779C35.0265 56.5212 35.3783 56.6504 35.5919 56.9272C36.076 57.5547 36.556 58.1862 37.0389 58.8149C37.2916 59.1438 37.7329 59.2628 38.1169 59.106C38.7467 58.8487 39.3762 58.5888 40.0046 58.3261C40.3891 58.1654 40.6176 57.7667 40.5629 57.3536C40.459 56.5689 40.3543 55.7842 40.2515 54.9995C40.2058 54.6516 40.3626 54.3097 40.6474 54.1047C42.2257 52.9686 43.6114 51.5809 44.7467 50.0019C44.9494 49.72 45.2864 49.563 45.6308 49.6062C46.4166 49.7048 47.2013 49.8135 47.9869 49.9195C48.4029 49.9756 48.8037 49.7432 48.964 49.3552C49.2229 48.7284 49.4833 48.1019 49.7436 47.4751C49.9034 47.0903 49.7863 46.6462 49.4563 46.3919C48.8282 45.9078 48.1971 45.4279 47.5694 44.9442C47.2923 44.7307 47.1627 44.3789 47.2193 44.0337C47.5334 42.1175 47.5347 40.1595 47.2197 38.2433C47.163 37.8979 47.2924 37.5459 47.5695 37.3321C48.1979 36.8475 48.8283 36.3676 49.4561 35.8843C49.7861 35.6302 49.9039 35.1864 49.7448 34.8015C49.4851 34.1735 49.225 33.5457 48.9647 32.9184C48.8043 32.5318 48.4043 32.3011 47.9895 32.3571C47.2041 32.4631 46.4191 32.5719 45.6327 32.6705C45.2883 32.7138 44.9513 32.5567 44.7486 32.2749C43.6129 30.6955 42.2255 29.3077 40.6466 28.1714C40.3622 27.9668 40.2054 27.6255 40.2509 27.2782C40.3539 26.493 40.4606 25.7078 40.5632 24.9218C40.6172 24.5085 40.3864 24.1109 40.0016 23.9507C39.3732 23.689 38.7454 23.4273 38.1156 23.1697C37.7324 23.013 37.2921 23.1322 37.0399 23.4606C36.5567 24.0897 36.0763 24.7216 35.5919 25.3495C35.3783 25.6263 35.0265 25.7556 34.6815 25.6989C32.7627 25.3837 30.8011 25.3834 28.8836 25.698C28.5359 25.755 28.1818 25.6231 27.9675 25.3435C27.4893 24.7195 27.0106 24.0961 26.5331 23.4722C26.2779 23.1388 25.8305 23.0184 25.4427 23.1794C24.818 23.4389 24.1931 23.6984 23.5677 23.9546Z"
      fill="#312E81"
    />
    <path
      d="M68.9308 20.9913C68.9134 20.1808 69.6407 19.4612 70.4512 19.4825C72.525 19.4651 74.6025 19.4651 76.6782 19.4825C77.4926 19.4631 78.216 20.1924 78.1967 21.0049C78.2276 22.0417 78.1948 23.0786 78.2064 24.1154C79.9618 24.1154 81.7159 24.1154 83.4709 24.1154C83.9821 24.1154 84.3965 24.5298 84.3965 25.0411C84.3965 25.4556 84.3965 25.8703 84.3965 26.2849C84.3965 26.7961 83.9821 27.2105 83.4709 27.2105C81.7159 27.2105 79.9618 27.2105 78.2064 27.2105C78.1928 28.2493 78.2296 29.29 78.1967 30.3288C78.2102 31.1355 77.4926 31.8551 76.6859 31.8435C74.6103 31.8609 72.5308 31.8589 70.4551 31.8435C69.6427 31.8628 68.9134 31.1413 68.9308 30.3288C68.8998 29.29 68.9327 28.2493 68.9211 27.2105C65.1035 27.2105 61.2843 27.2105 57.4664 27.2105C56.9552 27.2105 56.5408 26.7961 56.5408 26.2849C56.5408 25.8703 56.5408 25.4556 56.5408 25.0411C56.5408 24.5298 56.9552 24.1154 57.4664 24.1154C61.2843 24.1154 65.1035 24.1154 68.9211 24.1154C68.9327 23.0747 68.8979 22.032 68.9308 20.9913ZM72.0162 22.5679C72.0162 24.6319 72.0162 26.694 72.0162 28.758C73.0472 28.758 74.0783 28.758 75.1113 28.758C75.1113 26.694 75.1113 24.6319 75.1113 22.5679C74.0783 22.5679 73.0472 22.5679 72.0162 22.5679Z"
      fill="#312E81"
    />
    <path
      d="M30.3234 31.9712C32.8943 31.5572 35.6257 32.2865 37.6355 33.9443C39.5622 35.5054 40.8215 37.8634 41.0208 40.3376C41.2645 42.8949 40.3592 45.5276 38.6182 47.4118C36.8057 49.412 34.082 50.5417 31.3854 50.4082C28.8087 50.3153 26.3037 49.0754 24.6575 47.0906C22.7791 44.8738 22.0518 41.7419 22.7656 38.9235C23.5916 35.3661 26.7099 32.5012 30.3234 31.9712ZM30.5072 35.0817C29.4781 35.2945 28.507 35.7762 27.7177 36.4706C25.5202 38.3083 24.9399 41.7303 26.3984 44.1948C27.8048 46.7811 31.1823 48.0192 33.9234 46.9398C36.8869 45.9106 38.6685 42.4229 37.7245 39.4206C36.9217 36.3875 33.5674 34.3621 30.5072 35.0817Z"
      fill="#312E81"
    />
    <path
      d="M59.6455 36.4745C59.6262 35.662 60.3497 34.9385 61.1602 34.9579C63.2358 34.9405 65.3153 34.9405 67.391 34.9579C68.2034 34.9366 68.9269 35.662 68.9114 36.4745C68.9424 37.5133 68.9095 38.5521 68.9211 39.5908C73.7717 39.5908 78.6205 39.5908 83.4709 39.5908C83.9821 39.5908 84.3965 40.0053 84.3965 40.5165C84.3965 40.9309 84.3965 41.3455 84.3965 41.7603C84.3965 42.2715 83.9821 42.6859 83.4709 42.6859C78.6205 42.6859 73.7717 42.6859 68.9211 42.6859C68.9095 43.7247 68.9424 44.7635 68.9114 45.8004C68.9269 46.6128 68.2015 47.3363 67.391 47.3189C65.3153 47.3363 63.2378 47.3363 61.1641 47.3189C60.3497 47.3344 59.6242 46.6109 59.6455 45.7965C59.6146 44.7596 59.6475 43.7228 59.6359 42.6859C58.912 42.6846 58.189 42.6851 57.4664 42.6856C56.9552 42.6859 56.5408 42.2715 56.5408 41.7603C56.5408 41.3455 56.5408 40.9309 56.5408 40.5165C56.5408 40.0053 56.9552 39.5908 57.4664 39.5908C58.189 39.5908 58.912 39.5908 59.6359 39.5908C59.6475 38.5521 59.6146 37.5113 59.6455 36.4745ZM62.7309 38.0433C62.7309 40.1073 62.7309 42.1694 62.7309 44.2335C63.762 44.2335 64.793 44.2335 65.826 44.2335C65.826 42.1694 65.826 40.1073 65.826 38.0433C64.793 38.0433 63.762 38.0433 62.7309 38.0433Z"
      fill="#312E81"
    />
    <path
      d="M65.8357 51.9518C65.8144 51.1413 66.5379 50.4159 67.3484 50.4333C69.4279 50.4159 71.5094 50.4159 73.5889 50.4333C74.4013 50.4159 75.121 51.1452 75.1016 51.9576C75.1326 52.9926 75.0997 54.0294 75.1113 55.0663C77.8978 55.0663 80.6844 55.0663 83.4709 55.0663C83.9821 55.0663 84.3965 55.4807 84.3965 55.9919C84.3965 56.4064 84.3965 56.8209 84.3965 57.2357C84.3965 57.7469 83.9821 58.1614 83.4709 58.1614C80.6844 58.1614 77.8978 58.1614 75.1113 58.1614C75.0919 59.2582 75.15 60.355 75.0861 61.4499C75.0242 62.1946 74.3317 62.8021 73.5889 62.7943C71.5152 62.8117 69.4376 62.8098 67.3639 62.7943C66.5495 62.8156 65.8183 62.096 65.8357 61.2797C65.8047 60.2409 65.8376 59.2001 65.826 58.1614C63.0395 58.1614 60.2529 58.1614 57.4664 58.1614C56.9552 58.1614 56.5408 57.7469 56.5408 57.2357C56.5408 56.8209 56.5408 56.4064 56.5408 55.9919C56.5408 55.4807 56.9552 55.0663 57.4664 55.0663C60.2529 55.0663 63.0395 55.0663 65.826 55.0663C65.8376 54.0275 65.8047 52.9887 65.8357 51.9518ZM68.9211 53.5187C68.9211 55.5828 68.9211 57.6449 68.9211 59.7089C69.9522 59.7089 70.9832 59.7089 72.0162 59.7089C72.0162 57.6449 72.0162 55.5828 72.0162 53.5187C70.9832 53.5187 69.9522 53.5187 68.9211 53.5187Z"
      fill="#312E81"
    />
  </svg>

