<svg width="132" height="48" viewBox="0 0 132 48" fill="none" xmlns="http://www.w3.org/2000/svg">
<path d="M41.128 0.406613C42.0596 0.126643 43.0498 0.287367 44.0107 0.24589C44.8593 0.280454 45.7821 0.111089 46.565 0.532773C47.1681 0.847308 47.4015 1.57834 47.3825 2.22124C47.3721 3.72478 47.3876 4.23006 47.3755 5.7336C47.3807 6.50093 46.8467 7.25616 46.0759 7.40133C45.1081 7.58106 44.1178 7.46527 43.1397 7.49984C42.3343 7.47392 41.427 7.60526 40.7288 7.11791C40.1741 6.73079 40.0082 6.00839 40.0324 5.36895C40.0427 3.92762 40.0203 3.48629 40.041 2.04496C40.0462 1.35022 40.4489 0.638194 41.128 0.406613Z" fill="white" fill-opacity="0.5"/>
<path d="M0 10.8596C2.45752 10.8457 4.91504 10.8561 7.37256 10.8561C10.0288 18.538 12.6592 26.2303 15.2964 33.9191C16.1415 36.171 16.8363 38.4747 17.4791 40.7922C17.7747 40.7939 18.0737 40.7939 18.3726 40.7922C19.572 37.4066 20.6331 33.9727 21.8256 30.5837C24.0446 24.0113 26.3155 17.4561 28.5121 10.8768C30.9782 10.8267 33.4478 10.863 35.9175 10.8578C31.8786 21.5918 27.8242 32.3205 23.7802 43.051C23.4588 44.1605 22.7623 45.3806 21.5145 45.5759C19.2229 45.6122 16.9296 45.5828 14.6362 45.5897C13.404 45.5776 12.5468 44.4819 12.2617 43.3759C8.17618 32.5365 4.08377 21.7006 0 10.8596Z" fill="white" fill-opacity="0.5"/>
<path d="M40.2933 10.8561C42.5694 10.8526 44.8437 10.8526 47.1198 10.8544C47.1198 22.4334 47.1198 34.0124 47.1198 45.5915C44.8437 45.5932 42.5694 45.5915 40.2933 45.5915C40.2916 34.0124 40.2916 22.4334 40.2933 10.8561Z" fill="white" fill-opacity="0.5"/>
<path d="M50.2461 10.8595C52.7105 10.8492 55.175 10.8509 57.6394 10.8595C60.6016 19.5006 63.5551 28.1434 66.5466 36.7724C66.9648 38.1066 67.3416 39.4546 67.7356 40.7957C68.0312 40.7957 68.3301 40.7939 68.6291 40.7922C69.7542 37.6019 70.7514 34.3667 71.8747 31.1747C74.1715 24.4001 76.4925 17.6341 78.7789 10.8578C81.2433 10.8561 83.7061 10.844 86.1688 10.863C82.1455 21.5485 78.1101 32.2289 74.0851 42.9127C73.7325 44.1415 72.9393 45.5863 71.4824 45.5914C69.2945 45.5914 67.1066 45.5932 64.9186 45.5914C63.9785 45.5793 63.123 44.9175 62.7739 44.0603C58.5934 32.9962 54.4284 21.9236 50.2461 10.8595Z" fill="white" fill-opacity="0.5"/>
<g style="mix-blend-mode:multiply" opacity="0.5">
<circle cx="109.637" cy="26.0161" r="13.9658" transform="rotate(-45 109.637 26.0161)" fill="white" fill-opacity="0.5"/>
</g>
<g style="mix-blend-mode:multiply" opacity="0.5">
<path d="M94.1059 10.4852C89.9868 14.6042 87.6727 20.1909 87.6727 26.0161C87.6727 31.8413 89.9868 37.428 94.1059 41.5471C98.2249 45.6661 103.812 47.9802 109.637 47.9802C115.462 47.9802 121.049 45.6661 125.168 41.5471L109.637 26.0161L94.1059 10.4852Z" fill="white" fill-opacity="0.5"/>
</g>
<g style="mix-blend-mode:multiply" opacity="0.5">
<path d="M125.168 10.4852C129.287 14.6042 131.601 20.1909 131.601 26.0161C131.601 31.8413 129.287 37.428 125.168 41.5471C121.049 45.6661 115.462 47.9802 109.637 47.9802C103.811 47.9802 98.2247 45.6661 94.1057 41.5471L109.637 26.0161L125.168 10.4852Z" fill="white" fill-opacity="0.5"/>
</g>
</svg>
