<svg width="55" height="55" viewBox="0 0 53 52" fill="none" xmlns="http://www.w3.org/2000/svg">
<g filter="url(#filter0_bdddddd_10634_113236)">
<path d="M12.1078 15.2455C12.5657 12.9649 14.2752 11.1864 16.5535 10.717C18.9873 10.2155 22.4832 9.69434 26.5003 9.69434C30.5174 9.69434 34.0133 10.2155 36.4471 10.717C38.7254 11.1864 40.4349 12.9649 40.8928 15.2455C41.4133 17.8378 41.9811 21.5064 41.9811 25.1751C41.9811 28.8438 41.4133 32.5124 40.8928 35.1047C40.4349 37.3853 38.7254 39.1639 36.4471 39.6333C34.0133 40.1347 30.5174 40.6559 26.5003 40.6559C22.4832 40.6559 18.9873 40.1347 16.5535 39.6333C14.2752 39.1639 12.5657 37.3853 12.1078 35.1047C11.5873 32.5124 11.0195 28.8438 11.0195 25.1751C11.0195 21.5064 11.5873 17.8378 12.1078 15.2455Z" fill="#0D3D61" fill-opacity="0.6" shape-rendering="crispEdges"/>
</g>
<g style="mix-blend-mode:overlay">
<g filter="url(#filter1_df_10634_113236)">
<path d="M19.6751 31.7037C17.5961 28.9727 18.7094 25.2033 21.3068 22.9595C21.9695 22.387 22.7049 21.784 23.5036 21.176C24.3023 20.568 25.0793 20.0197 25.8075 19.5333C28.6618 17.6269 32.5915 17.5572 34.6706 20.2882C36.7496 23.0192 35.6363 26.7887 33.0389 29.0324C32.3762 29.6049 31.6408 30.2079 30.8421 30.8159C30.0434 31.424 29.2665 31.9723 28.5382 32.4587C25.684 34.3651 21.7542 34.4348 19.6751 31.7037Z" fill="#7B61FF"/>
</g>
<g filter="url(#filter2_df_10634_113236)">
<path d="M18.9532 18.7518C20.8939 16.5207 24.149 15.8891 26.4697 17.7218C28.7904 19.5545 28.9304 22.8673 27.2099 25.2723C27.0293 25.5248 26.8412 25.7763 26.6466 26.0227C26.452 26.2691 26.2509 26.5104 26.0472 26.7446C24.1064 28.9757 20.8514 29.6074 18.5307 27.7747C16.21 25.942 16.0699 22.6292 17.7905 20.2241C17.9711 19.9717 18.1592 19.7201 18.3538 19.4737C18.5484 19.2273 18.7495 18.986 18.9532 18.7518Z" fill="#FFB547"/>
</g>
<g filter="url(#filter3_df_10634_113236)">
<path d="M27.0303 24.8095C28.971 22.5783 32.2261 21.9467 34.5468 23.7794C36.8675 25.6121 37.0075 28.9249 35.287 31.3299C35.1064 31.5824 34.9183 31.8339 34.7237 32.0803C34.5291 32.3268 34.328 32.568 34.1243 32.8022C32.1836 35.0333 28.9285 35.665 26.6078 33.8323C24.2871 31.9996 24.1471 28.6868 25.8676 26.2817C26.0482 26.0293 26.2363 25.7777 26.4309 25.5313C26.6255 25.2849 26.8266 25.0437 27.0303 24.8095Z" fill="url(#paint0_linear_10634_113236)"/>
</g>
</g>
<g style="mix-blend-mode:lighten" opacity="0.96">
<path d="M25.4576 21.0885C23.6912 20.9309 21.6774 20.3518 19.5617 18.0527L19.0864 17.5361L19.0657 18.2371C19.023 19.6702 19.3111 20.8205 19.7787 21.7779C20.0083 21.8109 20.2401 21.8378 20.4749 21.8552C20.4867 21.856 20.4986 21.8569 20.5105 21.8577C20.4977 21.8568 20.4849 21.8559 20.4721 21.855C20.2372 21.8376 20.0054 21.8107 19.7759 21.7777C19.8808 21.9925 19.9967 22.1953 20.1181 22.3915C20.8776 23.6192 21.9245 24.5065 22.8532 25.2884C23.8886 26.1601 24.5778 26.7881 24.7222 27.4961C24.8761 23.8717 26.7235 22.1039 28.863 21.2834C27.8656 21.0435 27.0302 20.9202 26.3515 20.9432C27.0306 20.9199 27.8668 21.0432 28.8654 21.2833C31.9733 20.0913 35.687 20.89 35.687 20.89L35.4746 20.4641C35.4227 20.3598 34.1661 17.9115 31.4904 18.1193C31.2839 18.1353 31.0786 18.1632 30.8804 18.2024C29.7079 18.4338 28.8489 19.0315 27.9399 19.6642C27.2107 20.1713 26.4564 20.6927 25.4709 21.0841C25.4664 21.0855 25.462 21.087 25.4576 21.0885Z" fill="#F9FBFC"/>
<path d="M30.7893 25.0107L30.8392 25.0117C31.1447 22.0531 29.3333 21.3818 28.8657 21.2833C26.7262 22.1039 24.8789 23.8717 24.7249 27.496C24.7028 28.539 23.9957 30.3533 20.2784 34.3646C20.9455 34.228 21.1781 34.103 21.1781 34.103C23.802 33.3405 29.5924 30.2035 30.7443 25.3728C30.7665 25.2798 30.7913 25.1926 30.8161 25.1054L30.8162 25.1049C30.8246 25.0756 30.8329 25.0462 30.8412 25.0166L30.8423 25.0132L30.7893 25.0107Z" fill="#F9FBFC"/>
<path d="M25.4576 21.0885C23.6912 20.9309 21.6774 20.3518 19.5617 18.0527L19.0864 17.5361L19.0657 18.2371C19.023 19.6702 19.3111 20.8205 19.7787 21.7779C20.0083 21.8109 20.2401 21.8378 20.4749 21.8552C20.4867 21.856 20.4986 21.8569 20.5105 21.8577C20.4977 21.8568 20.4849 21.8559 20.4721 21.855C20.2372 21.8376 20.0054 21.8107 19.7759 21.7777C19.8808 21.9925 19.9967 22.1953 20.1181 22.3915C20.8776 23.6192 21.9245 24.5065 22.8532 25.2884C23.8886 26.1601 24.5778 26.7881 24.7222 27.4961C24.8761 23.8717 26.7235 22.1039 28.863 21.2834C27.8656 21.0435 27.0302 20.9202 26.3515 20.9432C27.0306 20.9199 27.8668 21.0432 28.8654 21.2833C31.9733 20.0913 35.687 20.89 35.687 20.89L35.4746 20.4641C35.4227 20.3598 34.1661 17.9115 31.4904 18.1193C31.2839 18.1353 31.0786 18.1632 30.8804 18.2024C29.7079 18.4338 28.8489 19.0315 27.9399 19.6642C27.2107 20.1713 26.4564 20.6927 25.4709 21.0841C25.4664 21.0855 25.462 21.087 25.4576 21.0885Z" stroke="#F9FBFC" stroke-width="0.0232616"/>
<path d="M30.7893 25.0107L30.8392 25.0117C31.1447 22.0531 29.3333 21.3818 28.8657 21.2833C26.7262 22.1039 24.8789 23.8717 24.7249 27.496C24.7028 28.539 23.9957 30.3533 20.2784 34.3646C20.9455 34.228 21.1781 34.103 21.1781 34.103C23.802 33.3405 29.5924 30.2035 30.7443 25.3728C30.7665 25.2798 30.7913 25.1926 30.8161 25.1054L30.8162 25.1049C30.8246 25.0756 30.8329 25.0462 30.8412 25.0166L30.8423 25.0132L30.7893 25.0107Z" stroke="#F9FBFC" stroke-width="0.0232616"/>
<g opacity="0.75">
<path d="M28.9294 21.2976C28.9061 21.2916 28.8841 21.2862 28.865 21.2822C31.9728 20.0902 35.6865 20.8889 35.6865 20.8889L35.2074 20.8755C35.2074 20.8755 34.9775 20.8698 34.6252 20.9394C33.5597 21.1497 31.692 21.9673 30.8416 25.0121L30.8111 25.0106L30.7881 25.0096L30.8386 25.0106C31.112 22.3621 29.6898 21.5471 29.053 21.3345C29.0132 21.3207 28.972 21.3084 28.9294 21.2976Z" fill="#FAFBFC"/>
<path d="M22.8563 25.2878C23.8918 26.1596 24.581 26.7875 24.7254 27.4956C24.717 27.6928 24.7103 27.8919 24.7123 28.1003C24.6435 28.4126 24.4177 28.7672 24.5032 28.548C24.5698 28.3728 24.5131 28.244 24.4794 28.1746C24.2567 27.7138 22.9367 27.2123 21.0029 26.5935C18.3907 25.536 16.6709 22.7325 16.588 21.1882L16.5615 20.6941L17.0031 20.9187C17.8472 21.3482 18.7865 21.6347 19.779 21.7773C19.8839 21.9921 19.9998 22.1948 20.1212 22.3911C20.8808 23.6187 21.9277 24.506 22.8563 25.2878Z" fill="#FAFBFC"/>
</g>
</g>
<defs>
<filter id="filter0_bdddddd_10634_113236" x="8.74112" y="7.41593" width="35.5187" height="44.0628" filterUnits="userSpaceOnUse" color-interpolation-filters="sRGB">
<feFlood flood-opacity="0" result="BackgroundImageFix"/>
<feGaussianBlur in="BackgroundImageFix" stdDeviation="1.1392"/>
<feComposite in2="SourceAlpha" operator="in" result="effect1_backgroundBlur_10634_113236"/>
<feColorMatrix in="SourceAlpha" type="matrix" values="0 0 0 0 0 0 0 0 0 0 0 0 0 0 0 0 0 0 127 0" result="hardAlpha"/>
<feOffset/>
<feComposite in2="hardAlpha" operator="out"/>
<feColorMatrix type="matrix" values="0 0 0 0 0.290196 0 0 0 0 0.345098 0 0 0 0 0.917647 0 0 0 0.36 0"/>
<feBlend mode="normal" in2="effect1_backgroundBlur_10634_113236" result="effect2_dropShadow_10634_113236"/>
<feColorMatrix in="SourceAlpha" type="matrix" values="0 0 0 0 0 0 0 0 0 0 0 0 0 0 0 0 0 0 127 0" result="hardAlpha"/>
<feOffset dy="0.569602"/>
<feGaussianBlur stdDeviation="0.284801"/>
<feComposite in2="hardAlpha" operator="out"/>
<feColorMatrix type="matrix" values="0 0 0 0 0.290196 0 0 0 0 0.345098 0 0 0 0 0.917647 0 0 0 0.36 0"/>
<feBlend mode="normal" in2="effect2_dropShadow_10634_113236" result="effect3_dropShadow_10634_113236"/>
<feColorMatrix in="SourceAlpha" type="matrix" values="0 0 0 0 0 0 0 0 0 0 0 0 0 0 0 0 0 0 127 0" result="hardAlpha"/>
<feOffset dy="1.1392"/>
<feGaussianBlur stdDeviation="0.569602"/>
<feComposite in2="hardAlpha" operator="out"/>
<feColorMatrix type="matrix" values="0 0 0 0 0.290196 0 0 0 0 0.345098 0 0 0 0 0.917647 0 0 0 0.31 0"/>
<feBlend mode="normal" in2="effect3_dropShadow_10634_113236" result="effect4_dropShadow_10634_113236"/>
<feColorMatrix in="SourceAlpha" type="matrix" values="0 0 0 0 0 0 0 0 0 0 0 0 0 0 0 0 0 0 127 0" result="hardAlpha"/>
<feOffset dy="2.84801"/>
<feGaussianBlur stdDeviation="0.854403"/>
<feComposite in2="hardAlpha" operator="out"/>
<feColorMatrix type="matrix" values="0 0 0 0 0.290196 0 0 0 0 0.345098 0 0 0 0 0.917647 0 0 0 0.18 0"/>
<feBlend mode="normal" in2="effect4_dropShadow_10634_113236" result="effect5_dropShadow_10634_113236"/>
<feColorMatrix in="SourceAlpha" type="matrix" values="0 0 0 0 0 0 0 0 0 0 0 0 0 0 0 0 0 0 127 0" result="hardAlpha"/>
<feOffset dy="5.69602"/>
<feGaussianBlur stdDeviation="1.1392"/>
<feComposite in2="hardAlpha" operator="out"/>
<feColorMatrix type="matrix" values="0 0 0 0 0.290196 0 0 0 0 0.345098 0 0 0 0 0.917647 0 0 0 0.05 0"/>
<feBlend mode="normal" in2="effect5_dropShadow_10634_113236" result="effect6_dropShadow_10634_113236"/>
<feColorMatrix in="SourceAlpha" type="matrix" values="0 0 0 0 0 0 0 0 0 0 0 0 0 0 0 0 0 0 127 0" result="hardAlpha"/>
<feOffset dy="8.54403"/>
<feGaussianBlur stdDeviation="1.1392"/>
<feComposite in2="hardAlpha" operator="out"/>
<feColorMatrix type="matrix" values="0 0 0 0 0.290196 0 0 0 0 0.345098 0 0 0 0 0.917647 0 0 0 0.01 0"/>
<feBlend mode="normal" in2="effect6_dropShadow_10634_113236" result="effect7_dropShadow_10634_113236"/>
<feBlend mode="normal" in="SourceGraphic" in2="effect7_dropShadow_10634_113236" result="shape"/>
</filter>
<filter id="filter1_df_10634_113236" x="2.35236" y="1.92365" width="49.641" height="48.1449" filterUnits="userSpaceOnUse" color-interpolation-filters="sRGB">
<feFlood flood-opacity="0" result="BackgroundImageFix"/>
<feColorMatrix in="SourceAlpha" type="matrix" values="0 0 0 0 0 0 0 0 0 0 0 0 0 0 0 0 0 0 127 0" result="hardAlpha"/>
<feOffset/>
<feGaussianBlur stdDeviation="8.11923"/>
<feComposite in2="hardAlpha" operator="out"/>
<feColorMatrix type="matrix" values="0 0 0 0 0.482353 0 0 0 0 0.380392 0 0 0 0 1 0 0 0 1 0"/>
<feBlend mode="normal" in2="BackgroundImageFix" result="effect1_dropShadow_10634_113236"/>
<feBlend mode="normal" in="SourceGraphic" in2="effect1_dropShadow_10634_113236" result="shape"/>
<feGaussianBlur stdDeviation="2.02933" result="effect2_foregroundBlur_10634_113236"/>
</filter>
<filter id="filter2_df_10634_113236" x="0.388493" y="0.41193" width="44.223" height="44.6732" filterUnits="userSpaceOnUse" color-interpolation-filters="sRGB">
<feFlood flood-opacity="0" result="BackgroundImageFix"/>
<feColorMatrix in="SourceAlpha" type="matrix" values="0 0 0 0 0 0 0 0 0 0 0 0 0 0 0 0 0 0 127 0" result="hardAlpha"/>
<feOffset/>
<feGaussianBlur stdDeviation="8.11923"/>
<feComposite in2="hardAlpha" operator="out"/>
<feColorMatrix type="matrix" values="0 0 0 0 0.482353 0 0 0 0 0.380392 0 0 0 0 1 0 0 0 1 0"/>
<feBlend mode="normal" in2="BackgroundImageFix" result="effect1_dropShadow_10634_113236"/>
<feBlend mode="normal" in="SourceGraphic" in2="effect1_dropShadow_10634_113236" result="shape"/>
<feGaussianBlur stdDeviation="4.72163" result="effect2_foregroundBlur_10634_113236"/>
</filter>
<filter id="filter3_df_10634_113236" x="8.46564" y="6.46955" width="44.223" height="44.6732" filterUnits="userSpaceOnUse" color-interpolation-filters="sRGB">
<feFlood flood-opacity="0" result="BackgroundImageFix"/>
<feColorMatrix in="SourceAlpha" type="matrix" values="0 0 0 0 0 0 0 0 0 0 0 0 0 0 0 0 0 0 127 0" result="hardAlpha"/>
<feOffset/>
<feGaussianBlur stdDeviation="8.11923"/>
<feComposite in2="hardAlpha" operator="out"/>
<feColorMatrix type="matrix" values="0 0 0 0 0.482353 0 0 0 0 0.380392 0 0 0 0 1 0 0 0 1 0"/>
<feBlend mode="normal" in2="BackgroundImageFix" result="effect1_dropShadow_10634_113236"/>
<feBlend mode="normal" in="SourceGraphic" in2="effect1_dropShadow_10634_113236" result="shape"/>
<feGaussianBlur stdDeviation="4.72163" result="effect2_foregroundBlur_10634_113236"/>
</filter>
<linearGradient id="paint0_linear_10634_113236" x1="35.5532" y1="31.3511" x2="26.6404" y2="24.849" gradientUnits="userSpaceOnUse">
<stop offset="0.2986" stop-color="#0097CE"/>
<stop offset="0.3791" stop-color="#0999C5"/>
<stop offset="0.5119" stop-color="#229DAD"/>
<stop offset="0.6469" stop-color="#42A38F"/>
<stop offset="0.7352" stop-color="#5DAD82"/>
<stop offset="0.9239" stop-color="#A1C661"/>
<stop offset="1" stop-color="#BED153"/>
</linearGradient>
</defs>
</svg>
