<svg width="310" height="230" viewBox="0 0 310 230" fill="none" xmlns="http://www.w3.org/2000/svg">
<g filter="url(#filter0_bdddddd_10296_129378)">
<path d="M61.7531 78.163C63.2905 70.5056 69.0304 64.5341 76.68 62.9581C84.8509 61.2747 96.5879 59.5249 110.075 59.5249C123.561 59.5249 135.298 61.2747 143.469 62.9581C151.119 64.5341 156.859 70.5056 158.396 78.163C160.143 86.8662 162.05 99.183 162.05 111.5C162.05 123.817 160.143 136.134 158.396 144.837C156.859 152.494 151.119 158.466 143.469 160.042C135.298 161.725 123.561 163.475 110.075 163.475C96.5879 163.475 84.8509 161.725 76.68 160.042C69.0304 158.466 63.2905 152.494 61.7531 144.837C60.0058 136.134 58.0996 123.817 58.0996 111.5C58.0996 99.183 60.0058 86.8662 61.7531 78.163Z" fill="#2A3CDF" fill-opacity="0.44" shape-rendering="crispEdges"/>
</g>
<g style="mix-blend-mode:overlay">
<g filter="url(#filter1_df_10296_129378)">
<path d="M87.1626 133.422C80.1821 124.252 83.9201 111.596 92.6409 104.062C94.8661 102.14 97.335 100.116 100.017 98.0742C102.698 96.0327 105.307 94.1918 107.752 92.5586C117.336 86.1579 130.53 85.9238 137.51 95.0933C144.491 104.263 140.753 116.919 132.032 124.452C129.807 126.375 127.338 128.399 124.656 130.441C121.975 132.482 119.366 134.323 116.921 135.956C107.337 142.357 94.143 142.591 87.1626 133.422Z" fill="#7B61FF"/>
</g>
<g filter="url(#filter2_df_10296_129378)">
<path d="M84.7385 89.9357C91.2546 82.4446 102.184 80.3238 109.975 86.4772C117.767 92.6306 118.238 103.754 112.461 111.829C111.854 112.676 111.223 113.521 110.57 114.348C109.916 115.175 109.241 115.985 108.557 116.772C102.041 124.263 91.1119 126.384 83.32 120.23C75.5282 114.077 75.058 102.954 80.8347 94.879C81.4411 94.0314 82.0726 93.1868 82.726 92.3595C83.3793 91.5321 84.0545 90.722 84.7385 89.9357Z" fill="#FFB547"/>
</g>
<g filter="url(#filter3_df_10296_129378)">
<path d="M111.857 110.275C118.373 102.784 129.302 100.663 137.094 106.817C144.885 112.97 145.356 124.093 139.579 132.168C138.973 133.015 138.341 133.86 137.688 134.687C137.034 135.515 136.359 136.325 135.675 137.111C129.159 144.602 118.23 146.723 110.438 140.57C102.646 134.416 102.176 123.293 107.953 115.218C108.559 114.371 109.191 113.526 109.844 112.699C110.498 111.871 111.173 111.061 111.857 110.275Z" fill="url(#paint0_linear_10296_129378)"/>
</g>
</g>
<g style="mix-blend-mode:hard-light">
<g opacity="0.6" filter="url(#filter4_df_10296_129378)">
<path d="M145.69 82.0796C154.256 68.8874 168.85 65.1804 179.685 76.9621C190.519 88.7438 191.283 109.152 183.949 123.684C182.863 125.837 181.712 127.995 180.507 130.096C179.303 132.196 178.045 134.238 176.776 136.192C168.209 149.384 153.615 153.091 142.78 141.31C131.946 129.528 131.182 109.12 138.516 94.5878C139.602 92.435 140.753 90.2764 141.958 88.1761C143.162 86.0759 144.421 84.0339 145.69 82.0796Z" fill="url(#paint1_linear_10296_129378)"/>
</g>
<g filter="url(#filter5_df_10296_129378)">
<path d="M63.038 150.699C49.4258 125.467 53.7743 88.8904 73.5002 68.213C93.226 47.5355 119.988 51.5004 134.028 76.2845C134.256 76.6873 134.483 77.0922 134.708 77.4988C134.932 77.9055 135.155 78.3141 135.377 78.7242C148.989 103.957 144.64 140.533 124.915 161.21C105.189 181.888 78.4267 177.923 64.3868 153.139C64.1586 152.736 63.932 152.331 63.7072 151.924C63.4823 151.518 63.2593 151.109 63.038 150.699Z" fill="#7B61FF"/>
</g>
<g filter="url(#filter6_df_10296_129378)">
<path d="M188.342 78.0451C201.286 57.5896 223.85 52.8862 240.462 70.9508C257.075 89.0153 258.982 120.33 247.531 142.409C246.433 144.527 245.29 146.633 244.108 148.695C242.925 150.757 241.702 152.776 240.461 154.738C227.517 175.193 204.952 179.897 188.34 161.832C171.728 143.768 169.82 112.453 181.271 90.3738C182.369 88.256 183.512 86.1503 184.695 84.0881C185.877 82.026 187.1 80.0072 188.342 78.0451Z" fill="url(#paint2_linear_10296_129378)"/>
</g>
</g>
<g style="mix-blend-mode:luminosity" opacity="0.9">
<path d="M108.299 100.968C103.532 100.543 98.0965 98.9794 92.3861 92.774L91.1033 91.3799L91.0474 93.2718C90.9323 97.1398 91.7097 100.245 92.9719 102.829C93.5914 102.918 94.2171 102.99 94.8508 103.037C94.8828 103.039 94.9149 103.042 94.947 103.044C94.9124 103.042 94.8778 103.039 94.8432 103.036C94.2094 102.99 93.5837 102.917 92.9643 102.828C93.2475 103.408 93.5601 103.955 93.8878 104.485C95.9377 107.798 98.7633 110.193 101.27 112.303C104.065 114.656 105.925 116.351 106.315 118.262C106.73 108.48 111.716 103.708 117.491 101.494C114.799 100.846 112.544 100.514 110.712 100.576C112.545 100.513 114.802 100.845 117.497 101.494C125.885 98.2763 135.909 100.432 135.909 100.432L135.336 99.2825C135.195 99.001 131.804 92.393 124.582 92.9538C124.025 92.9972 123.471 93.0725 122.936 93.1781C119.771 93.8028 117.452 95.4159 114.999 97.1235C113.031 98.4923 110.995 99.8995 108.335 100.956C108.323 100.96 108.311 100.964 108.299 100.968Z" fill="white"/>
<path d="M122.69 111.554L122.824 111.557C123.649 103.571 118.76 101.759 117.498 101.494C111.723 103.708 106.737 108.48 106.322 118.262C106.262 121.077 104.353 125.974 94.3205 136.8C96.1211 136.432 96.7489 136.094 96.7489 136.094C103.831 134.036 119.459 125.569 122.568 112.531C122.628 112.28 122.695 112.045 122.762 111.81L122.762 111.808C122.785 111.729 122.807 111.65 122.83 111.57L122.833 111.561L122.69 111.554Z" fill="white"/>
<path d="M108.299 100.968C103.532 100.543 98.0965 98.9794 92.3861 92.774L91.1033 91.3799L91.0474 93.2718C90.9323 97.1398 91.7097 100.245 92.9719 102.829C93.5914 102.918 94.2171 102.99 94.8508 103.037C94.8828 103.039 94.9149 103.042 94.947 103.044C94.9124 103.042 94.8778 103.039 94.8432 103.036C94.2094 102.99 93.5837 102.917 92.9643 102.828C93.2475 103.408 93.5601 103.955 93.8878 104.485C95.9377 107.798 98.7633 110.193 101.27 112.303C104.065 114.656 105.925 116.351 106.315 118.262C106.73 108.48 111.716 103.708 117.491 101.494C114.799 100.846 112.544 100.514 110.712 100.576C112.545 100.513 114.802 100.845 117.497 101.494C125.885 98.2763 135.909 100.432 135.909 100.432L135.336 99.2825C135.195 99.001 131.804 92.393 124.582 92.9538C124.025 92.9972 123.471 93.0725 122.936 93.1781C119.771 93.8028 117.452 95.4159 114.999 97.1235C113.031 98.4923 110.995 99.8995 108.335 100.956C108.323 100.96 108.311 100.964 108.299 100.968Z" stroke="white" stroke-width="0.0627836"/>
<path d="M122.69 111.554L122.824 111.557C123.649 103.571 118.76 101.759 117.498 101.494C111.723 103.708 106.737 108.48 106.322 118.262C106.262 121.077 104.353 125.974 94.3205 136.8C96.1211 136.432 96.7489 136.094 96.7489 136.094C103.831 134.036 119.459 125.569 122.568 112.531C122.628 112.28 122.695 112.045 122.762 111.81L122.762 111.808C122.785 111.729 122.807 111.65 122.83 111.57L122.833 111.561L122.69 111.554Z" stroke="white" stroke-width="0.0627836"/>
<g opacity="0.75">
<path d="M117.668 101.534C117.605 101.517 117.546 101.503 117.494 101.492C125.883 98.2749 135.906 100.431 135.906 100.431L134.613 100.394C134.613 100.394 133.992 100.379 133.041 100.567C130.166 101.135 125.125 103.341 122.829 111.559L122.747 111.555L122.685 111.552L122.821 111.555C123.559 104.407 119.721 102.207 118.002 101.633C117.894 101.596 117.783 101.563 117.668 101.534Z" fill="#FAFBFC"/>
<path d="M101.277 112.303C104.072 114.656 105.932 116.351 106.322 118.262C106.299 118.795 106.281 119.332 106.286 119.894C106.101 120.737 105.491 121.694 105.722 121.103C105.902 120.63 105.749 120.282 105.658 120.095C105.057 118.851 101.494 117.498 96.2745 115.828C89.2242 112.973 84.5824 105.406 84.3586 101.239L84.2871 99.9049L85.4791 100.511C87.7573 101.67 90.2924 102.444 92.9712 102.828C93.2544 103.408 93.567 103.955 93.8947 104.485C95.945 107.798 98.7704 110.193 101.277 112.303Z" fill="#FAFBFC"/>
</g>
</g>
<g filter="url(#filter7_bdddddd_10296_129378)">
<path d="M155.603 78.163C157.14 70.5056 162.88 64.5341 170.53 62.9581C178.701 61.2747 190.437 59.5249 203.924 59.5249C217.411 59.5249 229.148 61.2747 237.319 62.9581C244.968 64.5341 250.708 70.5056 252.246 78.163C253.993 86.8662 255.899 99.183 255.899 111.5C255.899 123.817 253.993 136.134 252.246 144.837C250.708 152.494 244.968 158.466 237.319 160.042C229.148 161.725 217.411 163.475 203.924 163.475C190.437 163.475 178.701 161.725 170.53 160.042C162.88 158.466 157.14 152.494 155.603 144.837C153.855 136.134 151.949 123.817 151.949 111.5C151.949 99.183 153.855 86.8662 155.603 78.163Z" fill="#0391E4" fill-opacity="0.44" shape-rendering="crispEdges"/>
</g>
<g style="mix-blend-mode:hard-light" opacity="0.7" filter="url(#filter8_f_10296_129378)">
<path d="M157 73.8193C157.62 75.1866 158.091 76.6417 158.397 78.1633C160.144 86.8669 162.051 99.1846 162.051 111.502C162.051 123.82 160.144 136.138 158.397 144.841C158.091 146.363 157.62 147.818 157 149.185C156.381 147.818 155.909 146.363 155.604 144.841C153.857 136.138 151.95 123.82 151.95 111.502C151.95 99.1846 153.857 86.8669 155.604 78.1633C155.909 76.6417 156.381 75.1866 157 73.8193Z" fill="url(#paint3_linear_10296_129378)"/>
</g>
<g style="mix-blend-mode:overlay">
<g filter="url(#filter9_df_10296_129378)">
<path d="M182.599 133.422C175.619 124.252 179.357 111.596 188.077 104.062C190.303 102.14 192.772 100.116 195.453 98.0742C198.135 96.0327 200.744 94.1918 203.189 92.5586C212.772 86.1579 225.966 85.9238 232.947 95.0933C239.927 104.263 236.189 116.919 227.469 124.452C225.243 126.375 222.774 128.399 220.093 130.441C217.411 132.482 214.802 134.323 212.357 135.956C202.774 142.357 189.58 142.591 182.599 133.422Z" fill="#7B61FF"/>
</g>
<g filter="url(#filter10_df_10296_129378)">
<path d="M180.175 89.9357C186.691 82.4446 197.62 80.3238 205.412 86.4772C213.204 92.6306 213.674 103.754 207.897 111.829C207.291 112.676 206.659 113.521 206.006 114.348C205.353 115.175 204.677 115.985 203.994 116.772C197.477 124.263 186.548 126.384 178.757 120.23C170.965 114.077 170.494 102.954 176.271 94.879C176.878 94.0314 177.509 93.1868 178.162 92.3595C178.816 91.5321 179.491 90.722 180.175 89.9357Z" fill="#FFB547"/>
</g>
<g filter="url(#filter11_df_10296_129378)">
<path d="M207.294 110.275C213.81 102.784 224.739 100.663 232.531 106.817C240.323 112.97 240.793 124.093 235.016 132.168C234.41 133.015 233.779 133.86 233.125 134.687C232.472 135.515 231.797 136.325 231.113 137.111C224.597 144.602 213.668 146.723 205.876 140.57C198.084 134.416 197.614 123.293 203.39 115.218C203.997 114.371 204.628 113.526 205.282 112.699C205.935 111.871 206.61 111.061 207.294 110.275Z" fill="url(#paint4_linear_10296_129378)"/>
</g>
</g>
<g style="mix-blend-mode:luminosity" opacity="0.9">
<path d="M233.437 106.968C232.129 106.077 229.131 105.743 226.788 106.188C226.515 103.961 225.262 102.013 223.082 100.287L221.828 99.3959L220.956 100.676C219.866 102.347 219.321 104.685 219.485 106.912C219.539 107.692 219.812 109.084 220.629 110.309C219.866 110.754 218.286 111.311 216.215 111.311H176.811L176.702 111.756C176.32 113.983 176.32 120.943 180.789 126.288C184.168 130.352 189.182 132.412 195.777 132.412C210.056 132.412 220.629 125.675 225.589 113.482C227.551 113.538 231.747 113.482 233.873 109.306C233.927 109.195 234.036 108.972 234.418 108.137L234.636 107.692L233.437 106.968ZM208.312 91.2671H202.317V96.8348H208.312V91.2671ZM208.312 97.9483H202.317V103.516H208.312V97.9483ZM201.227 97.9483H195.232V103.516H201.227V97.9483ZM194.142 97.9483H188.147V103.516H194.142V97.9483ZM187.057 104.629H181.062V110.197H187.057V104.629ZM194.142 104.629H188.147V110.197H194.142V104.629ZM201.227 104.629H195.232V110.197H201.227V104.629ZM208.312 104.629H202.317V110.197H208.312V104.629ZM215.397 104.629H209.402V110.197H215.397V104.629Z" fill="white"/>
</g>
<defs>
<filter id="filter0_bdddddd_10296_129378" x="50.4497" y="51.875" width="119.25" height="147.937" filterUnits="userSpaceOnUse" color-interpolation-filters="sRGB">
<feFlood flood-opacity="0" result="BackgroundImageFix"/>
<feGaussianBlur in="BackgroundImageFix" stdDeviation="3.82493"/>
<feComposite in2="SourceAlpha" operator="in" result="effect1_backgroundBlur_10296_129378"/>
<feColorMatrix in="SourceAlpha" type="matrix" values="0 0 0 0 0 0 0 0 0 0 0 0 0 0 0 0 0 0 127 0" result="hardAlpha"/>
<feOffset/>
<feComposite in2="hardAlpha" operator="out"/>
<feColorMatrix type="matrix" values="0 0 0 0 0.290196 0 0 0 0 0.345098 0 0 0 0 0.917647 0 0 0 0.36 0"/>
<feBlend mode="normal" in2="effect1_backgroundBlur_10296_129378" result="effect2_dropShadow_10296_129378"/>
<feColorMatrix in="SourceAlpha" type="matrix" values="0 0 0 0 0 0 0 0 0 0 0 0 0 0 0 0 0 0 127 0" result="hardAlpha"/>
<feOffset dy="1.91246"/>
<feGaussianBlur stdDeviation="0.956232"/>
<feComposite in2="hardAlpha" operator="out"/>
<feColorMatrix type="matrix" values="0 0 0 0 0.290196 0 0 0 0 0.345098 0 0 0 0 0.917647 0 0 0 0.36 0"/>
<feBlend mode="normal" in2="effect2_dropShadow_10296_129378" result="effect3_dropShadow_10296_129378"/>
<feColorMatrix in="SourceAlpha" type="matrix" values="0 0 0 0 0 0 0 0 0 0 0 0 0 0 0 0 0 0 127 0" result="hardAlpha"/>
<feOffset dy="3.82493"/>
<feGaussianBlur stdDeviation="1.91246"/>
<feComposite in2="hardAlpha" operator="out"/>
<feColorMatrix type="matrix" values="0 0 0 0 0.290196 0 0 0 0 0.345098 0 0 0 0 0.917647 0 0 0 0.31 0"/>
<feBlend mode="normal" in2="effect3_dropShadow_10296_129378" result="effect4_dropShadow_10296_129378"/>
<feColorMatrix in="SourceAlpha" type="matrix" values="0 0 0 0 0 0 0 0 0 0 0 0 0 0 0 0 0 0 127 0" result="hardAlpha"/>
<feOffset dy="9.56232"/>
<feGaussianBlur stdDeviation="2.8687"/>
<feComposite in2="hardAlpha" operator="out"/>
<feColorMatrix type="matrix" values="0 0 0 0 0.290196 0 0 0 0 0.345098 0 0 0 0 0.917647 0 0 0 0.18 0"/>
<feBlend mode="normal" in2="effect4_dropShadow_10296_129378" result="effect5_dropShadow_10296_129378"/>
<feColorMatrix in="SourceAlpha" type="matrix" values="0 0 0 0 0 0 0 0 0 0 0 0 0 0 0 0 0 0 127 0" result="hardAlpha"/>
<feOffset dy="19.1246"/>
<feGaussianBlur stdDeviation="3.82493"/>
<feComposite in2="hardAlpha" operator="out"/>
<feColorMatrix type="matrix" values="0 0 0 0 0.290196 0 0 0 0 0.345098 0 0 0 0 0.917647 0 0 0 0.05 0"/>
<feBlend mode="normal" in2="effect5_dropShadow_10296_129378" result="effect6_dropShadow_10296_129378"/>
<feColorMatrix in="SourceAlpha" type="matrix" values="0 0 0 0 0 0 0 0 0 0 0 0 0 0 0 0 0 0 127 0" result="hardAlpha"/>
<feOffset dy="28.687"/>
<feGaussianBlur stdDeviation="3.82493"/>
<feComposite in2="hardAlpha" operator="out"/>
<feColorMatrix type="matrix" values="0 0 0 0 0.290196 0 0 0 0 0.345098 0 0 0 0 0.917647 0 0 0 0.01 0"/>
<feBlend mode="normal" in2="effect6_dropShadow_10296_129378" result="effect7_dropShadow_10296_129378"/>
<feBlend mode="normal" in="SourceGraphic" in2="effect7_dropShadow_10296_129378" result="shape"/>
</filter>
<filter id="filter1_df_10296_129378" x="29.002" y="33.4337" width="166.669" height="161.647" filterUnits="userSpaceOnUse" color-interpolation-filters="sRGB">
<feFlood flood-opacity="0" result="BackgroundImageFix"/>
<feColorMatrix in="SourceAlpha" type="matrix" values="0 0 0 0 0 0 0 0 0 0 0 0 0 0 0 0 0 0 127 0" result="hardAlpha"/>
<feOffset/>
<feGaussianBlur stdDeviation="27.2607"/>
<feComposite in2="hardAlpha" operator="out"/>
<feColorMatrix type="matrix" values="0 0 0 0 0.482353 0 0 0 0 0.380392 0 0 0 0 1 0 0 0 1 0"/>
<feBlend mode="normal" in2="BackgroundImageFix" result="effect1_dropShadow_10296_129378"/>
<feBlend mode="normal" in="SourceGraphic" in2="effect1_dropShadow_10296_129378" result="shape"/>
<feGaussianBlur stdDeviation="6.81356" result="effect2_foregroundBlur_10296_129378"/>
</filter>
<filter id="filter2_df_10296_129378" x="22.4073" y="28.3575" width="148.481" height="149.993" filterUnits="userSpaceOnUse" color-interpolation-filters="sRGB">
<feFlood flood-opacity="0" result="BackgroundImageFix"/>
<feColorMatrix in="SourceAlpha" type="matrix" values="0 0 0 0 0 0 0 0 0 0 0 0 0 0 0 0 0 0 127 0" result="hardAlpha"/>
<feOffset/>
<feGaussianBlur stdDeviation="27.2607"/>
<feComposite in2="hardAlpha" operator="out"/>
<feColorMatrix type="matrix" values="0 0 0 0 0.482353 0 0 0 0 0.380392 0 0 0 0 1 0 0 0 1 0"/>
<feBlend mode="normal" in2="BackgroundImageFix" result="effect1_dropShadow_10296_129378"/>
<feBlend mode="normal" in="SourceGraphic" in2="effect1_dropShadow_10296_129378" result="shape"/>
<feGaussianBlur stdDeviation="15.8531" result="effect2_foregroundBlur_10296_129378"/>
</filter>
<filter id="filter3_df_10296_129378" x="49.5255" y="48.6969" width="148.481" height="149.993" filterUnits="userSpaceOnUse" color-interpolation-filters="sRGB">
<feFlood flood-opacity="0" result="BackgroundImageFix"/>
<feColorMatrix in="SourceAlpha" type="matrix" values="0 0 0 0 0 0 0 0 0 0 0 0 0 0 0 0 0 0 127 0" result="hardAlpha"/>
<feOffset/>
<feGaussianBlur stdDeviation="27.2607"/>
<feComposite in2="hardAlpha" operator="out"/>
<feColorMatrix type="matrix" values="0 0 0 0 0.482353 0 0 0 0 0.380392 0 0 0 0 1 0 0 0 1 0"/>
<feBlend mode="normal" in2="BackgroundImageFix" result="effect1_dropShadow_10296_129378"/>
<feBlend mode="normal" in="SourceGraphic" in2="effect1_dropShadow_10296_129378" result="shape"/>
<feGaussianBlur stdDeviation="15.8531" result="effect2_foregroundBlur_10296_129378"/>
</filter>
<filter id="filter4_df_10296_129378" x="79.1827" y="15.3458" width="164.1" height="187.58" filterUnits="userSpaceOnUse" color-interpolation-filters="sRGB">
<feFlood flood-opacity="0" result="BackgroundImageFix"/>
<feColorMatrix in="SourceAlpha" type="matrix" values="0 0 0 0 0 0 0 0 0 0 0 0 0 0 0 0 0 0 127 0" result="hardAlpha"/>
<feOffset/>
<feGaussianBlur stdDeviation="27.2607"/>
<feComposite in2="hardAlpha" operator="out"/>
<feColorMatrix type="matrix" values="0 0 0 0 0.482353 0 0 0 0 0.380392 0 0 0 0 1 0 0 0 1 0"/>
<feBlend mode="normal" in2="BackgroundImageFix" result="effect1_dropShadow_10296_129378"/>
<feBlend mode="normal" in="SourceGraphic" in2="effect1_dropShadow_10296_129378" result="shape"/>
<feGaussianBlur stdDeviation="15.8531" result="effect2_foregroundBlur_10296_129378"/>
</filter>
<filter id="filter5_df_10296_129378" x="0.632893" y="0.381428" width="197.149" height="228.66" filterUnits="userSpaceOnUse" color-interpolation-filters="sRGB">
<feFlood flood-opacity="0" result="BackgroundImageFix"/>
<feColorMatrix in="SourceAlpha" type="matrix" values="0 0 0 0 0 0 0 0 0 0 0 0 0 0 0 0 0 0 127 0" result="hardAlpha"/>
<feOffset/>
<feGaussianBlur stdDeviation="27.2607"/>
<feComposite in2="hardAlpha" operator="out"/>
<feColorMatrix type="matrix" values="0 0 0 0 0.482353 0 0 0 0 0.380392 0 0 0 0 1 0 0 0 1 0"/>
<feBlend mode="normal" in2="BackgroundImageFix" result="effect1_dropShadow_10296_129378"/>
<feBlend mode="normal" in="SourceGraphic" in2="effect1_dropShadow_10296_129378" result="shape"/>
<feGaussianBlur stdDeviation="6.81356" result="effect2_foregroundBlur_10296_129378"/>
</filter>
<filter id="filter6_df_10296_129378" x="119.49" y="5.19588" width="189.821" height="222.391" filterUnits="userSpaceOnUse" color-interpolation-filters="sRGB">
<feFlood flood-opacity="0" result="BackgroundImageFix"/>
<feColorMatrix in="SourceAlpha" type="matrix" values="0 0 0 0 0 0 0 0 0 0 0 0 0 0 0 0 0 0 127 0" result="hardAlpha"/>
<feOffset/>
<feGaussianBlur stdDeviation="27.2607"/>
<feComposite in2="hardAlpha" operator="out"/>
<feColorMatrix type="matrix" values="0 0 0 0 0.482353 0 0 0 0 0.380392 0 0 0 0 1 0 0 0 1 0"/>
<feBlend mode="normal" in2="BackgroundImageFix" result="effect1_dropShadow_10296_129378"/>
<feBlend mode="normal" in="SourceGraphic" in2="effect1_dropShadow_10296_129378" result="shape"/>
<feGaussianBlur stdDeviation="15.8531" result="effect2_foregroundBlur_10296_129378"/>
</filter>
<filter id="filter7_bdddddd_10296_129378" x="141.949" y="49.5249" width="123.95" height="150.287" filterUnits="userSpaceOnUse" color-interpolation-filters="sRGB">
<feFlood flood-opacity="0" result="BackgroundImageFix"/>
<feGaussianBlur in="BackgroundImageFix" stdDeviation="5"/>
<feComposite in2="SourceAlpha" operator="in" result="effect1_backgroundBlur_10296_129378"/>
<feColorMatrix in="SourceAlpha" type="matrix" values="0 0 0 0 0 0 0 0 0 0 0 0 0 0 0 0 0 0 127 0" result="hardAlpha"/>
<feOffset/>
<feComposite in2="hardAlpha" operator="out"/>
<feColorMatrix type="matrix" values="0 0 0 0 0.0117647 0 0 0 0 0.568627 0 0 0 0 0.894118 0 0 0 0.36 0"/>
<feBlend mode="normal" in2="effect1_backgroundBlur_10296_129378" result="effect2_dropShadow_10296_129378"/>
<feColorMatrix in="SourceAlpha" type="matrix" values="0 0 0 0 0 0 0 0 0 0 0 0 0 0 0 0 0 0 127 0" result="hardAlpha"/>
<feOffset dy="1.91246"/>
<feGaussianBlur stdDeviation="0.956232"/>
<feComposite in2="hardAlpha" operator="out"/>
<feColorMatrix type="matrix" values="0 0 0 0 0.0117647 0 0 0 0 0.568627 0 0 0 0 0.894118 0 0 0 0.36 0"/>
<feBlend mode="normal" in2="effect2_dropShadow_10296_129378" result="effect3_dropShadow_10296_129378"/>
<feColorMatrix in="SourceAlpha" type="matrix" values="0 0 0 0 0 0 0 0 0 0 0 0 0 0 0 0 0 0 127 0" result="hardAlpha"/>
<feOffset dy="3.82493"/>
<feGaussianBlur stdDeviation="1.91246"/>
<feComposite in2="hardAlpha" operator="out"/>
<feColorMatrix type="matrix" values="0 0 0 0 0.0117647 0 0 0 0 0.568627 0 0 0 0 0.894118 0 0 0 0.31 0"/>
<feBlend mode="normal" in2="effect3_dropShadow_10296_129378" result="effect4_dropShadow_10296_129378"/>
<feColorMatrix in="SourceAlpha" type="matrix" values="0 0 0 0 0 0 0 0 0 0 0 0 0 0 0 0 0 0 127 0" result="hardAlpha"/>
<feOffset dy="9.56232"/>
<feGaussianBlur stdDeviation="2.8687"/>
<feComposite in2="hardAlpha" operator="out"/>
<feColorMatrix type="matrix" values="0 0 0 0 0.0117647 0 0 0 0 0.568627 0 0 0 0 0.894118 0 0 0 0.18 0"/>
<feBlend mode="normal" in2="effect4_dropShadow_10296_129378" result="effect5_dropShadow_10296_129378"/>
<feColorMatrix in="SourceAlpha" type="matrix" values="0 0 0 0 0 0 0 0 0 0 0 0 0 0 0 0 0 0 127 0" result="hardAlpha"/>
<feOffset dy="19.1246"/>
<feGaussianBlur stdDeviation="3.82493"/>
<feComposite in2="hardAlpha" operator="out"/>
<feColorMatrix type="matrix" values="0 0 0 0 0.0117647 0 0 0 0 0.568627 0 0 0 0 0.894118 0 0 0 0.05 0"/>
<feBlend mode="normal" in2="effect5_dropShadow_10296_129378" result="effect6_dropShadow_10296_129378"/>
<feColorMatrix in="SourceAlpha" type="matrix" values="0 0 0 0 0 0 0 0 0 0 0 0 0 0 0 0 0 0 127 0" result="hardAlpha"/>
<feOffset dy="28.687"/>
<feGaussianBlur stdDeviation="3.82493"/>
<feComposite in2="hardAlpha" operator="out"/>
<feColorMatrix type="matrix" values="0 0 0 0 0.0117647 0 0 0 0 0.568627 0 0 0 0 0.894118 0 0 0 0.01 0"/>
<feBlend mode="normal" in2="effect6_dropShadow_10296_129378" result="effect7_dropShadow_10296_129378"/>
<feBlend mode="normal" in="SourceGraphic" in2="effect7_dropShadow_10296_129378" result="shape"/>
</filter>
<filter id="filter8_f_10296_129378" x="137.95" y="59.8193" width="38.1006" height="103.366" filterUnits="userSpaceOnUse" color-interpolation-filters="sRGB">
<feFlood flood-opacity="0" result="BackgroundImageFix"/>
<feBlend mode="normal" in="SourceGraphic" in2="BackgroundImageFix" result="shape"/>
<feGaussianBlur stdDeviation="7" result="effect1_foregroundBlur_10296_129378"/>
</filter>
<filter id="filter9_df_10296_129378" x="124.439" y="33.4337" width="166.669" height="161.647" filterUnits="userSpaceOnUse" color-interpolation-filters="sRGB">
<feFlood flood-opacity="0" result="BackgroundImageFix"/>
<feColorMatrix in="SourceAlpha" type="matrix" values="0 0 0 0 0 0 0 0 0 0 0 0 0 0 0 0 0 0 127 0" result="hardAlpha"/>
<feOffset/>
<feGaussianBlur stdDeviation="27.2607"/>
<feComposite in2="hardAlpha" operator="out"/>
<feColorMatrix type="matrix" values="0 0 0 0 0.482353 0 0 0 0 0.380392 0 0 0 0 1 0 0 0 1 0"/>
<feBlend mode="normal" in2="BackgroundImageFix" result="effect1_dropShadow_10296_129378"/>
<feBlend mode="normal" in="SourceGraphic" in2="effect1_dropShadow_10296_129378" result="shape"/>
<feGaussianBlur stdDeviation="6.81356" result="effect2_foregroundBlur_10296_129378"/>
</filter>
<filter id="filter10_df_10296_129378" x="117.844" y="28.3575" width="148.481" height="149.993" filterUnits="userSpaceOnUse" color-interpolation-filters="sRGB">
<feFlood flood-opacity="0" result="BackgroundImageFix"/>
<feColorMatrix in="SourceAlpha" type="matrix" values="0 0 0 0 0 0 0 0 0 0 0 0 0 0 0 0 0 0 127 0" result="hardAlpha"/>
<feOffset/>
<feGaussianBlur stdDeviation="27.2607"/>
<feComposite in2="hardAlpha" operator="out"/>
<feColorMatrix type="matrix" values="0 0 0 0 0.482353 0 0 0 0 0.380392 0 0 0 0 1 0 0 0 1 0"/>
<feBlend mode="normal" in2="BackgroundImageFix" result="effect1_dropShadow_10296_129378"/>
<feBlend mode="normal" in="SourceGraphic" in2="effect1_dropShadow_10296_129378" result="shape"/>
<feGaussianBlur stdDeviation="15.8531" result="effect2_foregroundBlur_10296_129378"/>
</filter>
<filter id="filter11_df_10296_129378" x="144.963" y="48.6969" width="148.481" height="149.993" filterUnits="userSpaceOnUse" color-interpolation-filters="sRGB">
<feFlood flood-opacity="0" result="BackgroundImageFix"/>
<feColorMatrix in="SourceAlpha" type="matrix" values="0 0 0 0 0 0 0 0 0 0 0 0 0 0 0 0 0 0 127 0" result="hardAlpha"/>
<feOffset/>
<feGaussianBlur stdDeviation="27.2607"/>
<feComposite in2="hardAlpha" operator="out"/>
<feColorMatrix type="matrix" values="0 0 0 0 0.482353 0 0 0 0 0.380392 0 0 0 0 1 0 0 0 1 0"/>
<feBlend mode="normal" in2="BackgroundImageFix" result="effect1_dropShadow_10296_129378"/>
<feBlend mode="normal" in="SourceGraphic" in2="effect1_dropShadow_10296_129378" result="shape"/>
<feGaussianBlur stdDeviation="15.8531" result="effect2_foregroundBlur_10296_129378"/>
</filter>
<linearGradient id="paint0_linear_10296_129378" x1="140.473" y1="132.239" x2="110.548" y2="110.408" gradientUnits="userSpaceOnUse">
<stop offset="0.2986" stop-color="#0097CE"/>
<stop offset="0.3791" stop-color="#0999C5"/>
<stop offset="0.5119" stop-color="#229DAD"/>
<stop offset="0.6469" stop-color="#42A38F"/>
<stop offset="0.7352" stop-color="#5DAD82"/>
<stop offset="0.9239" stop-color="#A1C661"/>
<stop offset="1" stop-color="#BED153"/>
</linearGradient>
<linearGradient id="paint1_linear_10296_129378" x1="135.577" y1="116.614" x2="176.207" y2="137.578" gradientUnits="userSpaceOnUse">
<stop stop-color="#3FFFFC"/>
<stop offset="1" stop-color="#014FFF"/>
</linearGradient>
<linearGradient id="paint2_linear_10296_129378" x1="249.647" y1="142.204" x2="173.212" y2="102.003" gradientUnits="userSpaceOnUse">
<stop offset="0.2986" stop-color="#0097CE"/>
<stop offset="0.3791" stop-color="#0999C5"/>
<stop offset="0.5119" stop-color="#229DAD"/>
<stop offset="0.6469" stop-color="#42A38F"/>
<stop offset="0.7352" stop-color="#5DAD82"/>
<stop offset="0.9239" stop-color="#A1C661"/>
<stop offset="1" stop-color="#BED153"/>
</linearGradient>
<linearGradient id="paint3_linear_10296_129378" x1="153.393" y1="137.01" x2="172.902" y2="133.532" gradientUnits="userSpaceOnUse">
<stop stop-color="#FF55F0"/>
<stop offset="1" stop-color="#0049E9"/>
</linearGradient>
<linearGradient id="paint4_linear_10296_129378" x1="235.91" y1="132.239" x2="205.985" y2="110.408" gradientUnits="userSpaceOnUse">
<stop offset="0.2986" stop-color="#0097CE"/>
<stop offset="0.3791" stop-color="#0999C5"/>
<stop offset="0.5119" stop-color="#229DAD"/>
<stop offset="0.6469" stop-color="#42A38F"/>
<stop offset="0.7352" stop-color="#5DAD82"/>
<stop offset="0.9239" stop-color="#A1C661"/>
<stop offset="1" stop-color="#BED153"/>
</linearGradient>
</defs>
</svg>
