
  <svg width="24" height="24" viewBox="0 0 1091 1091" fill="none" xmlns="http://www.w3.org/2000/svg">
    <path
      d="M535.4 133.671C547.227 131.591 559.645 133.452 570.415 138.734C668.473 185.568 766.524 232.402 864.568 279.265C875.826 284.431 885.334 293.361 891.051 304.378C894.033 309.902 895.725 315.987 897.016 322.093C920.021 422.087 943.033 522.073 966.038 622.06C967.249 627.576 968.693 633.04 969.721 638.6C972.426 654.236 967.927 670.863 957.872 683.114C889.753 767.909 821.627 852.698 753.494 937.479C742.775 950.889 725.727 958.769 708.592 958.506C599.238 958.477 489.878 958.594 380.525 958.55C363.681 958.492 347.129 950.415 336.687 937.202C268.525 852.413 200.362 767.625 132.207 682.829C121.693 669.827 117.463 651.988 121.248 635.674C145.58 529.69 169.927 423.707 194.296 317.73C197.978 301.424 209.441 287.16 224.498 279.944C319.421 234.562 414.351 189.194 509.267 143.812C517.74 139.872 526.016 135.057 535.4 133.671ZM535.218 244.171C531.061 247.228 528.422 252.072 527.591 257.114C526.511 265.235 528.108 273.348 529.537 281.308C530.901 291.924 532.286 302.613 531.74 313.338C531.623 317.57 528.611 320.897 525.906 323.837C525.819 326.238 525.738 328.645 525.673 331.053C499.379 333.432 473.421 339.984 449.395 350.993C422.598 363.163 398.251 380.66 378.068 402.066C375.909 400.578 373.78 399.053 371.629 397.565C368.829 398.09 365.832 398.652 363.112 397.492C360.422 396.354 358.198 394.398 355.908 392.64C348.865 386.869 342.513 380.309 336.199 373.757C331.014 367.767 325.67 361.697 318.83 357.545C314.455 354.933 309.118 354.43 304.188 355.386C297.181 357.02 291.552 363.681 291.639 370.97C291.333 376.027 293.382 381.003 296.671 384.775C302.504 390.969 310.168 394.894 317.547 398.915C326.486 404.409 335.572 409.83 343.461 416.812C346.735 419.512 347.297 423.962 347.99 427.88C349.834 429.558 351.679 431.229 353.524 432.915C334.274 461.997 321.608 495.457 317.102 530.07C314.273 550.806 314.594 571.869 317.408 592.583C314.973 593.24 312.552 593.955 310.131 594.663C307.637 597.691 305.421 601.55 301.403 602.666C291.8 605.468 281.781 606.293 271.886 607.438C264.369 607.956 256.72 607.883 249.406 609.933C243.872 611.159 238.673 614.45 235.771 619.397C232.424 624.737 232.402 632.063 235.989 637.287C239.497 642.576 245.906 645.509 252.177 645.371C258.82 645.072 265.229 642.919 271.318 640.351C278.967 636.988 286.922 634.39 294.87 631.822C299.113 630.523 303.423 629.385 307.812 628.728C311.735 628.086 315.308 630.246 318.56 632.128C321.193 631.785 323.803 631.326 326.428 630.932C343.235 684.004 380.467 730.028 428.329 758.271C427.279 760.81 426.222 763.342 425.15 765.874C426.302 769.288 427.79 773.082 426.419 776.672C425.084 780.057 423.429 783.312 421.716 786.522C416.852 795.117 411.733 803.595 405.842 811.526C402.509 816.166 399.702 821.23 397.828 826.636C395.881 832.619 396.997 839.55 400.92 844.497C404.485 848.999 410.567 851.341 416.232 850.37C422.014 849.546 427.17 845.803 430.145 840.827C433.273 835.515 435.424 829.686 436.948 823.725C438.297 818.231 440.55 813.029 442.314 807.673C444.837 800.436 447.142 792.891 451.903 786.755C453.792 784.253 456.971 783.45 459.836 782.655C461.178 780.233 462.498 777.81 463.912 775.439C477.256 780.546 491.067 784.435 505.132 786.967C545.769 794.402 588.367 790.476 627.012 775.862C628.274 778.153 629.535 780.451 630.906 782.684C634.596 783.552 638.431 785.245 640.21 788.827C644.921 797.182 647.903 806.345 651.068 815.356C653.27 821.521 654.407 828.037 657.091 834.042C659.008 838.354 661.101 842.863 664.907 845.854C669.552 849.772 676.18 851.363 682.013 849.451C687.964 847.496 692.375 841.914 693.265 835.763C694.307 830.525 692.703 825.199 690.246 820.595C687.431 814.488 683.034 809.351 679.352 803.792C673.84 795.022 668.006 786.325 664.2 776.643C662.712 773.09 663.989 769.288 665.388 765.947C664.339 763.619 663.391 761.255 662.465 758.884C710.714 730.531 747.58 683.792 764.504 630.479C766.918 630.968 769.346 631.406 771.767 631.887C774.523 630.158 777.359 627.911 780.823 628.196C785.606 628.473 790.244 629.918 794.837 631.194C803.361 633.901 811.863 636.732 820.052 640.351C825.229 642.642 830.742 644.116 836.334 644.933C842.561 645.531 849.19 643.204 853.28 638.366C856.853 634.157 858.144 628.086 856.35 622.833C854.199 615.851 847.709 610.86 840.687 609.452C832.82 607.139 824.58 607.788 816.53 606.803C807.029 605.694 797.404 604.855 788.231 602.003C784.44 600.813 782.5 597.121 780.101 594.291C777.87 593.327 775.449 592.912 773.145 592.182C780.867 536.965 767.435 479.201 736.344 432.951C738.4 431.069 740.456 429.186 742.534 427.326C742.636 423.867 743.096 420.073 745.728 417.542C752.509 410.982 760.669 406.116 768.587 401.081C775.369 396.602 783.112 393.647 789.325 388.306C793.62 385.147 797.091 380.645 798.199 375.348C799.788 369.27 797.608 362.346 792.701 358.399C787.662 354.197 780.327 353.452 774.319 355.853C768.34 358.333 763.629 363.039 759.196 367.614C752.312 375.523 744.919 382.994 737.102 389.984C734.484 392.209 731.852 394.457 728.935 396.281C725.72 398.185 721.826 397.47 718.275 397.463C716.058 399.046 713.856 400.644 711.618 402.198C692.637 382.301 670.106 365.819 645.395 353.759C620.209 341.37 592.72 333.811 564.793 331.192C564.734 328.616 564.647 326.048 564.457 323.487C562.197 321.364 559.63 319.146 558.952 315.965C558.398 313.178 558.281 310.325 558.325 307.494C558.748 298.658 559.667 289.859 560.884 281.104C562.248 273.202 563.954 265.147 562.707 257.107C561.708 249.927 556.458 243.208 549.32 241.354C544.515 239.983 539.17 241.187 535.218 244.171Z"
      fill="#326CE5"
    />
    <path
      d="M416.553 429.398C445.144 401.366 483.133 383.104 522.924 378.551C521.087 407.13 519.73 435.738 517.937 464.324C517.798 470.599 517.185 477.829 512.089 482.207C506.642 487.38 497.731 487.256 491.898 482.783C466.742 465.046 441.695 447.149 416.553 429.398Z"
      fill="#326CE5"
    />
    <path
      d="M567.585 378.565C607.106 383.301 644.724 401.65 673.176 429.456C649.121 446.536 625.044 463.58 600.996 480.66C597.241 483.258 593.084 486.001 588.323 485.811C582.03 485.994 576.058 481.711 573.885 475.867C572.369 471.971 572.843 467.71 572.347 463.638C570.816 435.278 569.073 406.926 567.585 378.565Z"
      fill="#326CE5"
    />
    <path
      d="M388.779 464.383C410.253 483.645 431.756 502.877 453.274 522.095C456.461 524.97 459.793 527.903 461.798 531.77C464.423 537.147 463.606 544.108 459.56 548.573C456.971 551.681 453.085 553.213 449.344 554.446C420.527 562.735 391.74 571.133 362.908 579.363C360.276 553.177 362.967 526.393 371.469 501.44C375.807 488.482 381.663 476.049 388.779 464.383Z"
      fill="#326CE5"
    />
    <path
      d="M701.081 464.434C722.074 498.434 731.495 539.372 727.718 579.136C698.631 570.563 669.443 562.348 640.327 553.87C635.784 552.403 631.154 550.01 628.857 545.603C625.663 540.248 626.371 533.098 630.33 528.333C633.553 524.517 637.549 521.475 641.195 518.082C661.145 500.192 681.138 482.338 701.081 464.434Z"
      fill="#326CE5"
    />
    <path
      d="M530.966 531.289C540.416 531.281 549.859 531.296 559.302 531.281C565.179 538.621 571.005 546.005 576.94 553.294C574.673 562.421 572.945 571.731 570.429 580.764C562.138 585.068 553.578 588.862 545.214 593.043C536.72 588.884 528.166 584.842 519.657 580.72C517.601 571.556 515.391 562.421 513.394 553.25C519.234 545.917 525.162 538.65 530.966 531.289Z"
      fill="#326CE5"
    />
    <path
      d="M373.029 622.986C402.531 617.988 432.033 612.983 461.536 607.963C465.568 607.35 469.928 607 473.691 608.919C479.451 611.494 483.163 617.9 482.579 624.175C481.981 627.991 480.807 631.705 479.196 635.221C468.237 661.692 457.299 688.17 446.34 714.64C412.703 693.27 386.614 660.452 373.029 622.986Z"
      fill="#326CE5"
    />
    <path
      d="M607.668 621.286C608.003 614.158 614.041 607.956 621.077 607.176C625.314 606.774 629.499 607.737 633.655 608.438C661.736 613.158 689.801 617.996 717.896 622.643C704.494 660.459 678.222 693.496 644.418 715.071C633.488 688.63 622.543 662.196 611.605 635.762C609.761 631.114 607.179 626.452 607.668 621.286Z"
      fill="#326CE5"
    />
    <path
      d="M533.526 650.274C537.908 645.028 545.973 643.386 552.018 646.596C555.868 648.428 558.398 652.054 560.52 655.615C575.016 681.866 589.548 708.096 604.058 734.34C582.818 741.315 560.345 744.686 538.003 743.781C520.532 743.03 503.214 739.739 486.619 734.252C500.239 709.628 513.846 684.989 527.467 660.364C529.421 656.964 531.054 653.338 533.526 650.274Z"
      fill="#326CE5"
    />
  </svg>
