<svg style="position: absolute; width: 100%; height: 100%;" viewBox="0 0 25 18" fill="none" xmlns="http://www.w3.org/2000/svg">
  <path
    d="M24.4753 6.98715C23.9349 6.61908 22.6964 6.48106 21.7281 6.66509C21.6155 5.74493 21.0976 4.93978 20.1969 4.22666L19.6789 3.85859L19.3186 4.38769C18.8683 5.07781 18.6431 6.04398 18.7107 6.96414C18.7332 7.2862 18.8458 7.8613 19.1835 8.36739C18.8683 8.55142 18.2153 8.78146 17.3596 8.78146H1.07896L1.03393 8.9655C0.8763 9.88566 0.8763 12.7612 2.72279 14.9696C4.11891 16.6488 6.19058 17.5 8.91527 17.5C14.815 17.5 19.1835 14.7165 21.2327 9.67862C22.0433 9.70163 23.7772 9.67862 24.6554 7.95332C24.678 7.9073 24.723 7.81529 24.8806 7.47023L24.9707 7.2862L24.4753 6.98715ZM14.0944 0.5H11.6174V2.80041H14.0944V0.5ZM14.0944 3.26049H11.6174V5.56089H14.0944V3.26049ZM11.1671 3.26049H8.69009V5.56089H11.1671V3.26049ZM8.23973 3.26049H5.76273V5.56089H8.23973V3.26049ZM5.31237 6.02097H2.83538V8.32138H5.31237V6.02097ZM8.23973 6.02097H5.76273V8.32138H8.23973V6.02097ZM11.1671 6.02097H8.69009V8.32138H11.1671V6.02097ZM14.0944 6.02097H11.6174V8.32138H14.0944V6.02097ZM17.0218 6.02097H14.5448V8.32138H17.0218V6.02097Z"
    fill="currentColor"
  />
</svg>

