<svg viewBox="0 0 1293 1425" fill="none" xmlns="http://www.w3.org/2000/svg" overflow="hidden">
    <g opacity="0.06">
      <path
        d="M574.146 849.729C509.804 908.989 480.084 1001.08 466.348 1113.97L466.122 1113.68L465.821 1116.3C459.051 1175.02 432.474 1229.24 391.239 1268.49L391.982 1269.27L391.239 1268.49C298.73 1356.59 158.94 1347.74 78.9563 1248.78C-1.07139 1149.76 9.07128 998.016 101.628 909.877C142.843 870.613 195.793 849.096 250.247 849.454L252.584 849.469L252.342 849.183C357.33 849.113 445.4 829.11 507.943 767.543C570.567 705.897 607.376 602.798 610.262 437.065L610.61 437.496L610.653 434.518C612.024 338.057 649.54 242.054 722.173 172.902C857.274 44.2504 1061.46 57.1349 1178.29 201.687C1295.16 346.293 1280.35 567.887 1145.2 696.597C1072.57 765.75 980.059 793.592 891.851 782.52L889.196 782.186L889.544 782.615C737.688 764.123 638.642 790.326 574.146 849.729Z"
        fill="#7986CB"
        stroke="#FAFAFA"
        stroke-width="2.15485"
      />
      <path
        d="M366.666 845.235L366.516 845.053C435.203 847.487 493.342 836.437 535.693 797.545C578.141 758.564 604.5 691.825 610.011 583.423L610.236 583.721L610.373 580.746C613.299 517.396 639.952 455.275 689.089 411.653L688.405 410.883L689.089 411.652C780.46 330.505 914.188 344.033 987.836 441.87C1061.5 539.757 1047.11 684.958 955.686 766.143C906.559 809.768 845.255 825.761 787.599 816.294L784.952 815.86L785.181 816.164C686.185 800.451 620.646 815.248 577.001 852.716C533.55 890.017 512.045 949.586 500.59 1023.06L500.449 1022.84L500.037 1025.63C494.421 1063.55 476.215 1098.11 448.899 1122.79L447.9 1123.68C429.559 1139.98 407.903 1151.27 384.801 1156.56C361.7 1161.85 337.84 1160.99 315.275 1154.07C292.709 1147.14 272.108 1134.34 255.248 1116.78C238.387 1099.21 225.775 1077.4 218.505 1053.21C211.235 1029.03 209.527 1003.21 213.531 977.97C217.536 952.734 227.132 928.849 241.487 908.372C255.842 887.896 274.523 871.447 295.913 860.434C317.304 849.421 340.764 844.174 364.275 845.137L366.666 845.235Z"
        fill="#7986CB"
        fill-opacity="0.3"
        stroke="#FAFAFA"
        stroke-width="2.15485"
      />
    </g>
  </svg>

