
  <svg viewBox="0 0 32 32" fill="none" xmlns="http://www.w3.org/2000/svg">
    <g clip-path="url(#clip0_15_51)">
      <path
        d="M11.8485 14.9735C13.1627 16.0733 14.0375 16.8656 14.2208 17.7589C14.4162 13.1864 16.761 10.9561 19.4765 9.92089C17.5834 9.46843 16.15 9.34472 15.154 9.67511C15.0356 9.72171 14.9182 9.76884 14.7943 9.81221C14.4035 9.94908 14.0054 10.067 13.6048 10.1728C13.2819 10.258 12.9574 10.3366 12.6321 10.4004C11.3417 10.6536 10.058 10.7324 8.82622 10.642C8.52812 10.6202 8.23392 10.5862 7.94263 10.5446C8.0758 10.8156 8.22282 11.0714 8.37691 11.3189C9.34095 12.8677 10.6697 13.9872 11.8485 14.9735Z"
        fill="url(#paint0_linear_15_51)"
      />
      <path
        d="M14.2242 17.7594C14.0409 16.866 13.1662 16.0739 11.8519 14.974C10.6731 13.9878 9.34443 12.8683 8.38021 11.3195C8.22614 11.072 8.0791 10.8162 7.94595 10.5452C6.68618 10.3653 5.49398 10.0038 4.42259 9.46202L3.86206 9.17871L3.89569 9.80207C4.00093 11.7502 6.18381 15.2871 9.49936 16.6213C11.9538 17.402 13.6293 18.0347 13.912 18.616C13.9548 18.7036 14.0267 18.8661 13.9422 19.0871C13.8337 19.3636 14.1204 18.9163 14.2076 18.5223C14.2051 18.2593 14.2136 18.0082 14.2242 17.7594Z"
        fill="url(#paint1_linear_15_51)"
      />
      <path
        d="M12.635 10.4005C12.9603 10.3368 13.2848 10.2582 13.6077 10.1729C14.0083 10.0673 14.4064 9.94925 14.7971 9.81239C14.9211 9.76894 15.0385 9.72181 15.1569 9.67526C12.914 9.47694 10.3568 8.74706 7.66993 5.845L7.06669 5.19336L7.04038 6.0777C6.98625 7.88565 7.35185 9.33689 7.94542 10.5448C8.23677 10.5864 8.531 10.6203 8.82899 10.6422C10.0609 10.7326 11.3445 10.6538 12.635 10.4005Z"
        fill="url(#paint2_linear_15_51)"
      />
      <path
        d="M21.9195 14.6233L21.9843 14.6247C22.372 10.8921 20.0729 10.0452 19.4793 9.9209C16.7638 10.9561 14.419 13.1864 14.2236 17.7589C14.1955 19.0746 13.2979 21.3635 8.57971 26.4241C9.4265 26.2519 9.72172 26.0941 9.72172 26.0941C13.0521 25.1321 20.4017 21.1745 21.8639 15.0801C21.9015 14.9231 21.9451 14.7792 21.9868 14.6308L21.9881 14.6265L21.9202 14.6233H21.9195Z"
        fill="url(#paint3_linear_15_51)"
      />
      <path
        d="M27.8683 8.88706C27.8024 8.75546 26.2074 5.66673 22.8113 5.92887C22.5492 5.94913 22.2886 5.98433 22.037 6.03371C20.5488 6.3257 19.4585 7.07968 18.3047 7.87785C17.3757 8.52009 16.4146 9.1803 15.1569 9.67472C16.1528 9.34436 17.5862 9.46807 19.4795 9.92053C23.4241 8.41674 28.1378 9.42435 28.1378 9.42435L27.8683 8.88706Z"
        fill="url(#paint4_linear_15_51)"
      />
      <path d="M21.9208 14.623L21.9841 14.6244L21.92 14.623H21.9208Z" fill="#03C0FF" />
      <path d="M21.9208 14.623L21.9841 14.6244L21.92 14.623H21.9208Z" fill="url(#paint5_linear_15_51)" />
      <path
        d="M19.4786 9.92037C19.5029 9.92547 19.5308 9.93222 19.5603 9.9398C19.6144 9.95349 19.6666 9.969 19.7172 9.98642C20.5255 10.2546 22.3306 11.2828 21.9836 14.6242L21.9195 14.6228L21.9487 14.6242L21.9875 14.626C23.0668 10.7848 25.4375 9.75332 26.7899 9.48792C27.2371 9.40017 27.5288 9.40726 27.5288 9.40726L28.1369 9.42427C28.1369 9.42418 23.4233 8.41658 19.4786 9.92037Z"
        fill="#0199FF"
      />
    </g>
    <defs>
      <linearGradient
        id="paint0_linear_15_51"
        x1="8.77623"
        y1="13.5824"
        x2="18.3852"
        y2="13.6437"
        gradientUnits="userSpaceOnUse"
      >
        <stop stop-color="#15C1FF" />
        <stop offset="1" stop-color="#0049E9" />
      </linearGradient>
      <linearGradient
        id="paint1_linear_15_51"
        x1="3.53915"
        y1="9.56389"
        x2="13.2935"
        y2="17.7346"
        gradientUnits="userSpaceOnUse"
      >
        <stop stop-color="#B3A9FF" />
        <stop offset="1" stop-color="#3300BF" />
      </linearGradient>
      <linearGradient
        id="paint2_linear_15_51"
        x1="7.20494"
        y1="8.31623"
        x2="14.5922"
        y2="6.84379"
        gradientUnits="userSpaceOnUse"
      >
        <stop stop-color="#2BF497" />
        <stop offset="1" stop-color="#08B4E5" />
      </linearGradient>
      <linearGradient
        id="paint3_linear_15_51"
        x1="10.501"
        y1="23.758"
        x2="22.8244"
        y2="10.4006"
        gradientUnits="userSpaceOnUse"
      >
        <stop stop-color="#FF55EC" />
        <stop offset="1" stop-color="#0049E9" />
      </linearGradient>
      <linearGradient
        id="paint4_linear_15_51"
        x1="17.216"
        y1="9.27374"
        x2="27.8895"
        y2="7.14632"
        gradientUnits="userSpaceOnUse"
      >
        <stop stop-color="#3FFFFC" />
        <stop offset="1" stop-color="#014FFF" />
      </linearGradient>
      <linearGradient
        id="paint5_linear_15_51"
        x1="15.0108"
        y1="6.3698"
        x2="23.1857"
        y2="16.2604"
        gradientUnits="userSpaceOnUse"
      >
        <stop stop-color="#94FFF7" />
        <stop offset="0.6882" stop-color="#0085BF" />
        <stop offset="1" stop-color="#0056BF" />
      </linearGradient>
      <clip-path id="clip0_15_51">
        <rect width="24.2759" height="22" fill="white" transform="translate(3.86206 5)" />
      </clip-path>
    </defs>
  </svg>

