
  <svg width="95" height="68" viewBox="0 0 95 72" fill="none" xmlns="http://www.w3.org/2000/svg">
    <path
      d="M48.5725 7.86196C48.5725 7.00728 49.2654 6.31442 50.1201 6.31442H84.166C85.0207 6.31442 85.7136 7.00728 85.7136 7.86196C85.7136 8.71665 85.0207 9.40951 84.166 9.40951H50.1201C49.2654 9.40951 48.5725 8.71665 48.5725 7.86196Z"
      fill="#312E81"
    />
    <path
      fill-rule="evenodd"
      clip-rule="evenodd"
      d="M8.40995 0.269313C8.95933 0.164854 9.52032 0.130034 10.0794 0.124231H87.0715C89.3019 0.073936 91.5304 1.02374 93.0102 2.69509C94.3257 4.14204 95.0317 6.09775 94.9988 8.04958V60.2888C95.0317 62.2387 94.3257 64.1925 93.0122 65.6395C91.5343 67.3127 89.3058 68.2625 87.0773 68.2161H54.6017C53.7469 68.2161 53.054 67.5232 53.054 66.6685C53.054 65.8138 53.7469 65.1209 54.6016 65.1209C54.8298 65.1209 55.058 65.1208 55.2863 65.1208C65.8834 65.1201 76.4808 65.1194 87.0773 65.121C88.9286 65.1984 90.7547 64.0803 91.4917 62.3761C91.9258 61.4823 91.916 60.4798 91.9065 59.506C91.9052 59.3775 91.904 59.2495 91.9037 59.1224V15.5997H5.24136C5.24206 21.0391 5.24174 26.4786 5.24143 31.9182C5.2413 34.0711 5.24117 36.224 5.24111 38.377C5.24108 39.2317 4.54821 39.9245 3.69351 39.9245C2.8389 39.9245 2.14606 39.2318 2.14592 38.3772C2.14429 28.1412 2.14353 17.9049 2.15595 7.6685C2.17336 4.1343 4.93766 0.88833 8.40995 0.269313ZM8.12173 3.56945C6.48713 4.22522 5.30326 5.88109 5.25297 7.64722C5.23415 8.63139 5.2375 9.61556 5.24084 10.5997C5.243 11.2347 5.24515 11.8696 5.24136 12.5046H91.9037C91.8963 11.8539 91.9001 11.2031 91.9038 10.5526C91.9098 9.51868 91.9158 8.48473 91.8767 7.45184C91.7316 5.1286 89.594 3.17289 87.2689 3.22318C73.1518 3.21781 59.0348 3.21841 44.9177 3.21901C33.6241 3.21948 22.3305 3.21996 11.0369 3.21738C10.9408 3.21719 10.8441 3.21651 10.7473 3.21583C9.85963 3.20961 8.94665 3.2032 8.12173 3.56945Z"
      fill="#312E81"
    />
    <path
      d="M10.2178 6.82594C10.0856 6.82594 9.95634 6.86516 9.84641 6.93862C9.73647 7.01206 9.6508 7.11647 9.60021 7.23862C9.54961 7.36077 9.53637 7.4952 9.56215 7.62488C9.58795 7.75454 9.65163 7.87367 9.74512 7.96716C9.8386 8.06064 9.95773 8.12433 10.0874 8.15012C10.2171 8.1759 10.3515 8.16266 10.4737 8.11207C10.5958 8.06148 10.7002 7.9758 10.7737 7.86586C10.8471 7.75593 10.8863 7.62668 10.8863 7.49445C10.8863 7.31715 10.8159 7.14711 10.6905 7.02175C10.5652 6.89637 10.3951 6.82594 10.2178 6.82594Z"
      stroke="#312E81"
      stroke-width="3.20884"
      stroke-linecap="round"
      stroke-linejoin="round"
    />
    <path
      d="M15.566 6.82597C15.4338 6.82597 15.3046 6.86519 15.1947 6.93865C15.0847 7.01209 14.9989 7.1165 14.9484 7.23865C14.8977 7.3608 14.8845 7.49523 14.9104 7.62491C14.9362 7.75457 14.9998 7.8737 15.0933 7.96719C15.1867 8.06067 15.3059 8.12436 15.4355 8.15016C15.5654 8.17593 15.6997 8.16269 15.8219 8.1121C15.944 8.06151 16.0484 7.97583 16.1218 7.86589C16.1954 7.75596 16.2345 7.62671 16.2345 7.49448C16.2345 7.31718 16.1642 7.14714 16.0388 7.02178C15.9134 6.8964 15.7434 6.82597 15.566 6.82597Z"
      stroke="#312E81"
      stroke-width="3.20884"
      stroke-linecap="round"
      stroke-linejoin="round"
    />
    <path
      d="M20.9142 6.82597C20.782 6.82597 20.6528 6.86519 20.5428 6.93865C20.4329 7.01209 20.3471 7.1165 20.2966 7.23865C20.2459 7.3608 20.2326 7.49523 20.2585 7.62491C20.2844 7.75457 20.3479 7.8737 20.4414 7.96719C20.5349 8.06067 20.654 8.12436 20.7837 8.15016C20.9135 8.17593 21.0479 8.16269 21.17 8.1121C21.2922 8.06151 21.3966 7.97583 21.4699 7.86589C21.5435 7.75596 21.5827 7.62671 21.5827 7.49448C21.5827 7.31718 21.5123 7.14714 21.3869 7.02178C21.2616 6.8964 21.0915 6.82597 20.9142 6.82597Z"
      stroke="#312E81"
      stroke-width="3.20884"
      stroke-linecap="round"
      stroke-linejoin="round"
    />
    <path
      fill-rule="evenodd"
      clip-rule="evenodd"
      d="M50.2651 52.6387C50.0692 52.5452 49.8498 52.4928 49.6182 52.4928C49.4358 52.4928 49.261 52.5253 49.0992 52.5848C48.9005 52.6577 48.714 52.7739 48.5545 52.9334L42.0039 59.484C41.4165 60.0714 41.4165 61.0238 42.0039 61.6112C42.5913 62.1986 43.5437 62.1986 44.1311 61.6112L48.1141 57.6282V64.2322C48.1141 65.3319 47.7839 66.5906 47.205 67.532C46.6239 68.4767 45.9601 68.8693 45.3179 68.8693H34.8794C34.0487 68.8693 33.3752 69.5428 33.3752 70.3735C33.3752 71.2042 34.0487 71.8776 34.8794 71.8776H45.3179C47.3907 71.8776 48.8771 70.5557 49.7675 69.1078C50.6599 67.6566 51.1224 65.8446 51.1224 64.2322V57.6285L55.1051 61.6112C55.6925 62.1986 56.6449 62.1986 57.2323 61.6112C57.8197 61.0238 57.8197 60.0714 57.2323 59.484L50.6939 52.9456C50.6476 52.8983 50.5983 52.854 50.5462 52.8131C50.4578 52.7437 50.3635 52.6855 50.2651 52.6387Z"
      fill="#312E81"
    />
    <path
      fill-rule="evenodd"
      clip-rule="evenodd"
      d="M4.8158 42.1543C2.50967 42.1543 0.640137 44.0237 0.640137 46.33V67.7021C0.640137 70.0083 2.50967 71.8777 4.8158 71.8777H26.1879C28.4941 71.8777 30.3635 70.0083 30.3635 67.7021V46.33C30.3635 44.0237 28.4941 42.1543 26.1879 42.1543H4.8158ZM3.64844 46.33C3.64844 45.6852 4.17105 45.1626 4.8158 45.1626H26.1879C26.8327 45.1626 27.3552 45.6852 27.3552 46.33V67.7021C27.3552 68.3469 26.8327 68.8694 26.1879 68.8694H4.8158C4.17105 68.8694 3.64844 68.3468 3.64844 67.7021V46.33ZM14.267 49.4417C13.5264 48.6482 12.2829 48.6053 11.4894 49.3459C10.696 50.0864 10.6531 51.33 11.3937 52.1234L16.3757 57.4613L11.3937 62.7992C10.6531 63.5926 10.696 64.8362 11.4894 65.5767C12.2829 66.3173 13.5264 66.2744 14.267 65.481L20.5005 58.8022C21.2052 58.0471 21.2052 56.8755 20.5005 56.1204L14.267 49.4417Z"
      fill="#312E81"
    />
  </svg>
