
  <svg style="position: absolute; width: 100%; height: 100%;" viewBox="0 0 24 22" fill="none" xmlns="http://www.w3.org/2000/svg">
    <path
      fill-rule="evenodd"
      clip-rule="evenodd"
      d="M3.74 4.06747C3.35719 4.27164 3.05094 4.6034 2.92334 5.01173L0.983776 13.357C0.932734 13.7908 1.03482 14.2246 1.29002 14.5819L6.67486 21.2428C6.95559 21.6256 7.38943 21.8298 7.8488 21.7787H16.4237C16.8576 21.7532 17.2914 21.549 17.5977 21.2428L22.9825 14.5819C23.2377 14.2246 23.3398 13.7908 23.2632 13.357L21.3492 4.96069C21.2471 4.52684 20.9664 4.19507 20.5836 4.01643L12.7998 0.264908C12.5956 0.213867 12.3659 0.213867 12.1618 0.213867C11.9576 0.213867 11.7279 0.239388 11.5238 0.34147L3.74 4.06747ZM4.17392 12.9982C4.17392 13.0237 4.1484 13.0237 4.12288 13.0237C3.8932 13.0748 3.68903 13.2789 3.66351 13.5596C3.74007 13.7638 3.94424 13.9169 4.17392 13.9169C4.22496 13.9169 4.25048 13.9169 4.30153 13.8914C4.32705 13.8659 4.32705 13.8659 4.35257 13.8659C4.38247 13.8659 4.40361 13.8571 4.42112 13.8499C4.43351 13.8447 4.44408 13.8404 4.45465 13.8404C4.53036 13.8214 4.59203 13.7885 4.66049 13.7519C4.68434 13.7391 4.709 13.726 4.73537 13.7128C4.78642 13.7128 4.83746 13.6872 4.8885 13.6617H4.91402C5.16922 13.5596 5.44995 13.4831 5.73067 13.432H5.7562C5.83276 13.432 5.90932 13.4576 5.96036 13.5086C5.96036 13.5086 5.96036 13.5341 5.98588 13.5341L6.19005 13.5086C6.64942 14.9633 7.64472 16.1883 8.94627 16.9794L8.8697 17.1836C8.8697 17.1836 8.89522 17.1836 8.89522 17.2091C8.94626 17.2856 8.94627 17.3877 8.92074 17.4643C8.81866 17.7195 8.69106 17.9747 8.51241 18.2044V18.2554C8.46137 18.3065 8.43585 18.332 8.41033 18.383C8.33377 18.4596 8.28273 18.5362 8.23169 18.6382C8.20617 18.6638 8.18065 18.6893 8.18065 18.7148C8.18065 18.7148 8.15513 18.7148 8.15513 18.7403C8.10409 18.8679 8.10409 18.9955 8.12961 19.1231C8.15513 19.2507 8.25721 19.3528 8.35929 19.4039C8.37527 19.4092 8.39014 19.4145 8.40437 19.4196C8.45827 19.4389 8.50288 19.4549 8.56346 19.4549C8.76762 19.4549 8.94627 19.3273 9.04835 19.1486C9.07387 19.1486 9.07387 19.1231 9.07387 19.1231C9.08663 19.1104 9.09301 19.0976 9.09939 19.0848C9.10577 19.0721 9.11215 19.0593 9.12491 19.0466C9.17595 18.97 9.20147 18.8679 9.22699 18.7658L9.27803 18.6127V18.5872C9.35459 18.3065 9.4822 18.0513 9.6098 17.7961C9.66084 17.7195 9.7374 17.6685 9.81396 17.6429C9.81396 17.6302 9.81396 17.6238 9.81715 17.6206C9.82034 17.6174 9.82672 17.6174 9.83948 17.6174L9.94157 17.4388C10.0065 17.4583 10.0731 17.4794 10.1409 17.5009C10.3396 17.564 10.5489 17.6304 10.7582 17.6685C11.2176 17.7961 11.677 17.8471 12.1363 17.8471C12.9019 17.8471 13.642 17.7195 14.3566 17.4388L14.4587 17.6429C14.4587 17.6557 14.4587 17.6621 14.4619 17.6653C14.4651 17.6685 14.4715 17.6685 14.4842 17.6685C14.5608 17.694 14.6373 17.745 14.6884 17.8216C14.816 18.0768 14.9436 18.332 15.0202 18.6127L15.0712 18.7658C15.084 18.8169 15.1031 18.8615 15.1222 18.9062C15.1414 18.9509 15.1605 18.9955 15.1733 19.0466C15.1988 19.0721 15.2243 19.0976 15.2243 19.1231C15.2498 19.1231 15.2498 19.1486 15.2498 19.1486C15.3519 19.3273 15.5306 19.4549 15.7347 19.4549C15.7858 19.4549 15.8623 19.4294 15.9134 19.4039C16.1431 19.2762 16.2451 18.97 16.1175 18.7148C16.092 18.7148 16.092 18.6893 16.092 18.6893C16.0793 18.6765 16.0729 18.6638 16.0665 18.651C16.0601 18.6382 16.0537 18.6255 16.041 18.6127C16.0074 18.568 15.9787 18.5232 15.9528 18.4827C15.9197 18.4309 15.891 18.3862 15.8623 18.3575C15.8113 18.3065 15.7858 18.2809 15.7603 18.2299V18.2044C15.6071 17.9747 15.454 17.7195 15.3519 17.4643C15.3264 17.3877 15.3264 17.2856 15.3774 17.2091C15.3774 17.2091 15.403 17.2091 15.403 17.1836L15.2754 17.0049C15.5306 16.8773 15.7347 16.7242 15.9644 16.5455C16.9597 15.7799 17.6743 14.7336 18.0571 13.5596L18.2868 13.5852C18.2868 13.5852 18.2868 13.5596 18.3123 13.5596C18.3633 13.5086 18.4399 13.4831 18.5165 13.4831H18.542C18.8482 13.5341 19.1034 13.6107 19.3842 13.7128H19.4097C19.4607 13.7128 19.5118 13.7383 19.5628 13.7638C19.5913 13.7733 19.6234 13.7863 19.6576 13.8003C19.7154 13.8238 19.7795 13.8499 19.8435 13.8659C19.8513 13.8659 19.8637 13.8636 19.8772 13.861C19.9084 13.8551 19.9456 13.8481 19.9456 13.8659C19.9456 13.8914 19.9456 13.8914 19.9711 13.8914C20.0222 13.9169 20.0477 13.9169 20.0987 13.9169C20.3284 13.9425 20.5581 13.7893 20.6092 13.5596C20.6602 13.2789 20.4816 13.0237 20.2008 12.9727C20.1862 12.958 20.1799 12.9518 20.1724 12.9491C20.1669 12.9472 20.1606 12.9472 20.1498 12.9472C20.1199 12.9472 20.0987 12.9384 20.0812 12.9311C20.0688 12.926 20.0583 12.9216 20.0477 12.9216C19.9967 12.9216 19.9456 12.9153 19.8946 12.9089C19.8435 12.9025 19.7925 12.8961 19.7415 12.8961C19.6904 12.8706 19.6394 12.8706 19.5883 12.8706C19.2821 12.8451 19.0014 12.794 18.7206 12.7175C18.6441 12.6664 18.5675 12.6154 18.542 12.5388C18.542 12.5388 18.5165 12.5388 18.5165 12.5133L18.3123 12.4623C18.542 11.0076 18.2102 9.5274 17.4191 8.27689C17.4063 8.25137 17.3936 8.23223 17.3808 8.21309C17.368 8.19395 17.3553 8.17481 17.3425 8.14929L17.4907 8.00114C17.479 7.92772 17.5256 7.83859 17.5722 7.792C17.7764 7.58783 18.0316 7.43471 18.2868 7.28159L18.4399 7.20503C18.542 7.15399 18.6441 7.10294 18.7206 7.0519C18.7462 7.0519 18.7972 7.00086 18.7972 7.00086C18.7972 7.00086 18.7972 6.97534 18.8227 6.97534C19.0269 6.7967 19.0779 6.49045 18.9248 6.26077C18.8482 6.13316 18.7206 6.08212 18.5675 6.08212C18.4399 6.08212 18.3123 6.13316 18.2102 6.20972L18.1847 6.23525C18.1719 6.24801 18.1592 6.25439 18.1464 6.26077C18.1337 6.26715 18.1209 6.27353 18.1081 6.28629C18.0699 6.32457 18.038 6.36285 18.0061 6.40113C17.9742 6.43941 17.9423 6.47769 17.904 6.51597C17.8963 6.5237 17.8862 6.53143 17.8752 6.53986C17.8499 6.55929 17.8197 6.58247 17.8019 6.61805C17.6233 6.82222 17.3936 7.02638 17.1639 7.20503C17.1128 7.23055 17.0618 7.25607 17.0108 7.25607C16.9809 7.25607 16.9597 7.24731 16.9422 7.24006C16.9298 7.23493 16.9192 7.23055 16.9087 7.23055H16.8832L16.73 7.33263C15.8879 6.43941 14.7905 5.8014 13.591 5.54619C13.5468 5.53882 13.5031 5.53146 13.4599 5.52416C13.2037 5.48095 12.9635 5.44042 12.7233 5.41859L12.6978 5.21442V5.16338C12.6212 5.11234 12.5957 5.03578 12.5702 4.95922C12.5702 4.65297 12.5702 4.37225 12.6212 4.09152V4.066C12.6212 4.01496 12.6212 3.96392 12.6467 3.91287L12.6467 3.91286C12.6723 3.81078 12.6978 3.70871 12.6978 3.60663V3.47903C12.6978 3.35142 12.6467 3.22382 12.5447 3.12174C12.4171 2.99413 12.2639 2.91757 12.1108 2.94309C11.8556 2.96861 11.6514 3.22382 11.677 3.47903V3.63215C11.6897 3.68319 11.6961 3.73423 11.7025 3.78527C11.7089 3.83631 11.7152 3.88735 11.728 3.9384C11.728 3.96392 11.7344 3.98944 11.7408 4.01496C11.7471 4.04048 11.7535 4.066 11.7535 4.09152V4.11704C11.8046 4.42329 11.8046 4.70401 11.8046 4.98474C11.779 5.0613 11.7535 5.13786 11.677 5.1889V5.16338L11.6514 5.36755C10.452 5.49515 9.27803 5.95452 8.33377 6.69462C8.23169 6.7967 8.12323 6.89878 8.01477 7.00086C7.9063 7.10294 7.79784 7.20503 7.69576 7.30711L7.49159 7.17951H7.46607C7.44055 7.20503 7.38951 7.20503 7.36399 7.20503C7.31295 7.20503 7.26191 7.17951 7.21087 7.15399C6.98118 7.00086 6.7515 6.7967 6.57285 6.59253C6.56513 6.58481 6.55506 6.57708 6.54407 6.56864C6.51876 6.54922 6.48857 6.52604 6.47077 6.49045C6.41973 6.41389 6.34317 6.33733 6.26661 6.26077C6.24109 6.26077 6.21557 6.23525 6.19005 6.20972L6.16453 6.1842C6.06244 6.10764 5.93484 6.0566 5.80724 6.0566C5.67963 6.0566 5.52651 6.13316 5.44995 6.23525C5.27131 6.46493 5.32235 6.77118 5.55203 6.94982C5.55203 6.95957 5.54831 6.96559 5.54513 6.97074C5.53998 6.97906 5.53626 6.98509 5.55203 7.00086C5.56479 7.01362 5.57755 7.02 5.59031 7.02638C5.60307 7.03276 5.61583 7.03914 5.62859 7.0519C5.67964 7.07742 5.7243 7.10295 5.76896 7.12847C5.81362 7.15399 5.85828 7.17951 5.90932 7.20503L6.06244 7.28159C6.31765 7.43471 6.54733 7.58783 6.77702 7.792C6.82806 7.84304 6.85358 7.94512 6.85358 8.02168V8.0472L7.0067 8.20033C6.59837 8.83834 6.29213 9.55292 6.11348 10.293C5.96036 11.0331 5.90932 11.7987 6.0114 12.5388L5.80724 12.5899C5.78172 12.6664 5.70516 12.743 5.62859 12.7685C5.34787 12.8451 5.04162 12.8961 4.76089 12.9216H4.73537C4.68433 12.9472 4.63329 12.9472 4.58225 12.9472C4.48017 12.9472 4.37809 12.9472 4.276 12.9727C4.22496 12.9727 4.17392 12.9727 4.17392 12.9982ZM17.4907 8.00114L17.4956 7.99616V8.02168C17.4934 8.01501 17.4918 8.00815 17.4907 8.00114ZM12.1874 12.5643L11.4983 12.2326L11.3197 11.4925L11.8046 10.88H12.5702L13.0551 11.4925L12.8764 12.2326L12.1874 12.5643ZM7.23639 12.1815C7.18535 11.6456 7.21087 11.1097 7.33847 10.5737C7.46607 10.0378 7.67024 9.5274 7.95096 9.06803L9.86501 10.8034C9.91605 10.8545 9.94157 10.9055 9.96709 10.9821C10.0181 11.2118 9.89052 11.4414 9.66084 11.4925L7.23639 12.1815ZM10.8093 9.60396L8.71658 8.12377C9.4822 7.35815 10.4775 6.87326 11.6004 6.74566L11.4473 9.32323C11.4473 9.39979 11.4218 9.45084 11.3707 9.50188C11.2431 9.68052 10.9879 9.70604 10.8093 9.60396ZM12.8254 6.72014L13.3358 6.82222C14.229 7.02638 15.0457 7.48575 15.7092 8.12377L13.591 9.62948C13.575 9.63481 13.5602 9.64013 13.5459 9.64523C13.492 9.66454 13.4474 9.68052 13.3868 9.68052C13.1572 9.68052 12.953 9.50188 12.953 9.27219L12.8254 6.72014ZM14.5608 10.7524L16.4493 9.06803C17.0108 10.0123 17.266 11.1097 17.1894 12.1815L14.7139 11.467C14.6118 11.4414 14.5608 11.4159 14.5097 11.3394C14.3566 11.1607 14.3821 10.9055 14.5608 10.7524ZM14.3566 12.9472L16.8832 13.381C16.5259 14.4018 15.8113 15.295 14.9181 15.882L13.9483 13.5341C13.8973 13.4576 13.8973 13.3555 13.9228 13.2789C13.9483 13.0748 14.1525 12.9472 14.3566 12.9472ZM12.1874 16.6732C11.8046 16.6732 11.4473 16.6221 11.09 16.5455C10.9113 16.4945 10.7582 16.469 10.6051 16.4435L11.8301 14.2232L11.8301 14.2232C11.9067 14.1466 11.9577 14.0956 12.0343 14.0445C12.2129 13.9425 12.4171 13.9935 12.5447 14.1466L13.7952 16.4179C13.2848 16.5711 12.7233 16.6732 12.1874 16.6732ZM9.50772 15.8565C8.89522 15.4737 8.35929 14.9378 7.97648 14.3253C7.77232 14.0445 7.6192 13.7128 7.49159 13.3555L10.0436 12.9216C10.1202 12.9216 10.1968 12.9472 10.2733 12.9727C10.452 13.0492 10.5541 13.2534 10.503 13.4576L9.50772 15.8565Z"
      fill="currentColor"
    />
  </svg>
