
  <svg width="24" height="24" viewBox="0 0 1091 1091" fill="none" xmlns="http://www.w3.org/2000/svg">
    <path
      d="M161.986 420.955C176.155 420.955 190.324 420.955 204.493 420.955C219.945 469.365 236.373 517.468 252.03 565.878C268.304 517.673 283.602 469.211 299.773 421.006C313.377 420.955 327.033 421.006 340.637 421.16C348.44 487.59 354.138 554.276 355.987 621.167C344.436 621.167 332.885 621.167 321.283 621.167C320.308 569.164 317.279 517.211 311.837 465.515C294.947 517.314 278.725 569.369 261.835 621.167C252.954 621.167 244.124 621.167 235.294 621.219C218.867 568.856 201.515 516.8 185.806 464.18C181.494 516.441 180.364 568.855 178.311 621.167C168.095 621.167 157.879 621.167 147.663 621.167C148.433 554.225 153.772 487.384 161.986 420.955Z"
      fill="#00758F"
    />
    <path
      d="M370.722 473.576C382.221 473.576 393.721 473.576 405.22 473.576C416.565 513.259 431.556 551.967 439.513 592.574C453.476 554.123 461.998 514.029 467.645 473.576C478.58 473.576 489.566 473.576 500.552 473.628C488.488 531.689 476.578 592.625 441.669 641.909C426.217 665.318 396.801 680.77 369.079 670.144C368.771 663.47 368.566 656.796 368.36 650.122C383.351 651.354 401.524 650.636 410.662 636.621C419.902 625.019 414.05 610.183 410.662 597.554C397.571 556.177 384.018 514.902 370.722 473.576Z"
      fill="#00758F"
    />
    <path
      d="M546.394 428.041C573.653 411.562 608.46 417.825 635.052 432.661C632.382 438.873 629.662 445.084 626.941 451.245C610.154 446.265 592.289 440.567 574.731 445.187C559.023 449.499 549.423 470.599 561.384 483.689C579.608 504.327 608.511 510.59 629.199 528.147C656.921 549.759 649.015 598.221 618.881 613.93C587.514 631.641 548.037 624.351 518.929 605.408C522.06 599.145 525.14 592.882 528.221 586.619C548.396 596.168 572.883 604.279 594.342 593.857C609.64 587.646 615.339 566.136 604.25 553.61C583.099 530.765 547.882 526.042 529.196 500.322C515.284 476.964 521.701 441.747 546.394 428.041Z"
      fill="#F29111"
    />
    <path
      d="M704.049 425.935C735.621 412.126 779.308 414.744 801.332 444.108C818.478 467.98 820.532 498.936 819.864 527.376C818.837 556.587 810.624 586.772 789.216 607.82C800.972 613.416 812.677 619.268 824.382 625.172C819.813 633.129 815.244 641.086 810.675 648.992C794.863 639.7 779.052 630.357 762.932 621.579C735.364 626.045 702.817 626.25 681.615 605.151C659.438 579.739 657.692 543.65 658.822 511.564C660.362 478.709 672.272 441.285 704.049 425.935ZM720.015 448.01C698.043 460.433 694.757 488.412 693.422 511.154C693.217 534.717 693.936 559.975 705.949 580.971C719.245 602.43 753.743 604.381 769.606 584.873C782.389 568.805 784.442 547.243 784.596 527.376C784.699 505.404 784.288 481.892 773.148 462.23C763.137 444.006 737.88 439.437 720.015 448.01Z"
      fill="#F29111"
    />
    <path
      d="M847.278 420.955C858.418 420.955 869.507 420.955 880.647 420.955C880.647 479.119 880.647 537.335 880.647 595.499C901.592 595.499 922.538 595.499 943.534 595.499C943.534 604.021 943.534 612.594 943.534 621.167C911.449 621.167 879.364 621.167 847.278 621.167C847.278 554.43 847.278 487.693 847.278 420.955Z"
      fill="#F29111"
    />
  </svg>
