
  <svg width="24" height="24" viewBox="0 0 1091 1091" fill="none" xmlns="http://www.w3.org/2000/svg">
    <path
      fill-rule="evenodd"
      clip-rule="evenodd"
      d="M171.091 788.65C163.95 784.621 158.027 778.743 153.943 771.633C149.835 764.54 147.699 756.472 147.777 748.276V343.194L147.788 343.183C147.726 334.985 149.855 326.92 153.956 319.821C158.057 312.723 163.98 306.849 171.113 302.808L521.924 100.256C528.986 96.105 537.03 93.916 545.221 93.916C553.413 93.916 561.457 96.1159 568.519 100.267L919.341 302.808C926.47 306.852 932.39 312.727 936.489 319.825C940.588 326.923 942.716 334.987 942.655 343.183L942.666 343.194V748.276C942.728 756.469 940.601 764.531 936.504 771.627C932.407 778.723 926.49 784.596 919.363 788.639L568.541 991.181C561.473 995.332 553.424 997.521 545.227 997.521C537.03 997.521 528.981 995.332 521.913 991.181L521.902 991.191L171.091 788.65ZM419.684 731.838C428.145 723.377 432.898 711.902 432.898 699.936L432.876 699.948V475.648L634.99 717.523C642.633 726.293 652.092 733.295 662.711 738.044C673.331 742.792 684.857 745.173 696.489 745.02C726.504 745.02 747.715 725.178 747.715 701.185L747.77 391.504C747.75 379.552 742.988 368.096 734.529 359.651C726.07 351.206 714.606 346.463 702.654 346.463C690.701 346.463 679.237 351.206 670.778 359.651C662.32 368.096 657.558 379.552 657.538 391.504H657.559V615.782L469.079 390.223L455.446 373.907C447.801 365.139 438.341 358.139 427.722 353.391C417.103 348.643 405.579 346.261 393.947 346.409C363.921 346.409 342.721 366.252 342.721 390.244L342.677 699.947L342.666 699.936C342.666 711.902 347.419 723.377 355.88 731.838C364.341 740.299 375.817 745.052 387.782 745.052C399.748 745.052 411.223 740.299 419.684 731.838Z"
      fill="#009639"
    />
  </svg>
