
  <svg width="24" height="24" viewBox="0 0 1091 1091" fill="none" xmlns="http://www.w3.org/2000/svg">
    <path
      d="M573.213 417.878C588.902 417.815 604.59 417.713 620.279 417.928C620.266 484.908 620.356 551.888 620.24 618.868C604.565 618.982 588.876 618.944 573.2 618.881C573.047 551.888 573.034 484.883 573.213 417.878Z"
      fill="#1D2E3C"
    />
    <path
      d="M631.236 542.48C663.572 510.471 696.164 478.691 728.321 446.492C760.645 478.171 792.469 510.357 824.959 541.847C824.997 542.226 825.049 542.973 825.074 543.353C792.661 574.969 760.696 607.079 728.411 638.834C701.995 612.625 675.502 586.504 649.047 560.345C643.217 554.28 636.619 548.962 631.236 542.48ZM725.355 496.227C710.856 510.712 696.228 525.057 681.716 539.517C679.696 540.986 679.44 544.138 681.537 545.658C685.999 550.216 690.654 554.597 694.732 559.522C705.14 570.398 716.341 580.553 726.659 591.505C728.679 591.29 730.853 590.974 732.234 589.315C746.503 575.172 760.76 561.016 775.067 546.924C777.203 545.139 777.267 541.252 775.131 539.479C760.849 525.285 746.503 511.142 732.221 496.961C730.597 494.859 727.107 493.606 725.355 496.227Z"
      fill="#0079C5"
    />
    <path
      d="M857.564 485.618C878.393 466.79 911.048 465.233 935.7 477.312C940.559 479.895 942.285 472.665 946.939 473.577C960.761 473.716 974.596 473.45 988.417 473.754C988.686 511.866 988.456 549.99 988.532 588.101C988.366 598.484 989.312 609.005 986.627 619.173C985.182 632.695 979.122 645.99 968.893 655.22C959.93 663.931 947.655 668.236 935.636 670.857C926.187 671.478 916.956 674.187 907.43 673.542C894.12 674.137 881.027 671.402 867.767 670.857C861.898 670.034 856.209 668.312 850.429 667.122C850.659 654.904 850.186 642.673 850.685 630.454C858.293 630.163 865.006 634.354 872.345 635.645C880.195 637 887.842 639.925 895.922 639.406C907.187 639.925 919.027 639.127 929.039 633.544C938.756 627.365 941.032 615.07 940.15 604.447C938.04 602.978 936.288 605.068 934.562 606.055C920.868 615.805 902.968 618.35 886.614 615.526C874.953 614.64 863.663 609.651 855.02 601.877C846.645 594.141 841.108 583.733 838.308 572.806C834.779 561.79 835.06 550.142 835.137 538.721C834.383 518.956 842.681 498.888 857.564 485.618ZM914.143 504.079C907.187 505.193 900.116 507.383 895.015 512.435C888.008 518.323 884.965 527.376 883.763 536.125C883.43 546.482 882.753 557.371 887.432 566.982C891.55 575.136 900.73 580.707 909.987 580.048C916.943 579.934 924.308 580.884 930.79 577.719C934.946 576.085 940.533 574.237 941.134 569.134C941.275 550.965 941.096 532.783 941.211 514.613C941.147 511.954 941.185 508.726 939.14 506.776C931.008 504.611 922.594 502.952 914.143 504.079Z"
      fill="#1D2E3C"
    />
    <path
      d="M123.857 482.185C132.654 476.475 142.895 473.613 152.996 471.182C160.732 471.093 168.327 469.409 176.075 469.713C184.156 469.371 192.122 470.84 200.152 471.283C210.79 473.879 221.76 475.55 231.81 480.083C231.797 492.339 231.963 504.596 231.759 516.852C226.542 516.941 222.655 513.18 218.167 511.155C205.918 505.153 192.48 500.747 178.658 501.203C169.427 501.165 158.494 500.886 151.705 508.204C147.562 512.623 150.963 519.714 156.027 521.803C166.984 526.121 178.875 527.007 190.306 529.603C204.934 531.983 220.686 536.44 230.455 548.291C238.203 557.686 239.737 570.702 237.551 582.3C234.163 596.38 222.936 607.497 210.099 613.676C192.761 621.83 173.224 623.184 154.326 622.615C147.025 621.323 139.443 622.425 132.296 620.12C121.696 618.044 111.122 615.511 101.251 611.067C101.085 598.456 101.302 585.858 101.123 573.247C103.412 573.399 106.007 572.766 107.938 574.361C116.748 580.376 126.567 584.896 136.873 587.757C148.662 591.733 161.307 591.594 173.608 591.1C179.54 590.745 185.038 588.327 189.526 584.516C189.462 581.135 190.115 577.641 189.13 574.361C183.683 568.993 175.5 568.727 168.519 566.701C155.004 565.03 141.463 562.409 128.728 557.471C117.374 553.026 107.567 543.91 103.974 532.185C102.721 525.348 100.049 518.283 102.542 511.408C104.205 498.822 113.487 488.845 123.857 482.185Z"
      fill="#1D2E3C"
    />
    <path
      d="M441.054 477.641C449.876 473.982 459.21 470.715 468.902 470.779C479.873 469.285 491.112 469.272 502.082 470.779C515.418 470.88 527.936 476.172 540.798 479.072C541.412 491.594 540.977 504.142 541.067 516.677C535.224 517.513 530.966 512.98 526.056 510.751C516.07 505.927 505.317 502.407 494.231 501.331C489.974 500.913 485.69 499.584 481.42 500.66C473.633 501.939 464.171 502.521 459.453 509.802C459.185 512.309 459.3 514.828 459.287 517.348C465.207 523.527 474.029 524.4 481.918 526.414C490.869 526.945 499.359 530.01 508.232 531.06C518.717 533.922 529.674 537.619 537.269 545.723C544.724 553.623 548.189 564.829 547.55 575.528C546.782 586.645 541.438 597.344 532.794 604.536C521.773 614.576 506.851 618.805 492.492 621.54C481.215 622.085 469.887 623.832 458.622 622.11C442.09 621.806 425.851 617.324 410.546 611.284C410.214 598.534 410.431 585.771 410.444 573.034C412.681 573.312 415.226 572.996 417.067 574.629C427.04 581.922 438.957 585.872 450.746 589.24C461.307 591.595 472.214 591.621 482.992 591.064C488.823 590.659 495.216 588.886 498.553 583.72C499.18 579.972 499.844 574.958 496.073 572.552C491.802 569.02 485.946 569.45 480.934 567.741C474.247 565.335 466.984 566.272 460.233 564.107C446.808 561.258 432.845 557.409 422.501 547.964C412.848 538.341 408.526 523.704 411.454 510.46C414.497 495.215 427.347 483.921 441.054 477.641Z"
      fill="#1D2E3C"
    />
    <path
      d="M354.419 489.176C356.426 483.833 357.475 477.996 361.234 473.463C376.577 474.147 392.01 472.842 407.302 474.134C407.021 479.895 403.722 484.782 401.804 490.062C376.756 550.648 352.015 611.373 327.057 671.997C310.141 672.199 293.225 672.149 276.309 672.022C277.574 666.058 280.784 660.816 283.009 655.207C287.829 643.584 292.931 632.087 297.879 620.515C299.042 618.172 298.377 615.475 297.393 613.209C282.165 574.591 266.885 535.998 251.683 497.368C248.818 489.809 244.957 482.529 243.448 474.539C259.533 474.362 275.605 474.552 291.69 474.438C302.124 501.686 312.775 528.87 322.607 556.346C323.835 559.511 324.397 563.107 326.916 565.614C336.544 540.303 345.098 514.6 354.419 489.176Z"
      fill="#1D2E3C"
    />
  </svg>

